<?xml version="1.0" standalone="no"?>
<!DOCTYPE svg PUBLIC "-//W3C//DTD SVG 1.1//EN" "http://www.w3.org/Graphics/SVG/1.1/DTD/svg11.dtd" >
<svg xmlns="http://www.w3.org/2000/svg" xmlns:xlink="http://www.w3.org/1999/xlink" version="1.1">
<metadata>
Created by FontForge 20170731 at Thu Jan  5 06:54:11 2006
 By Aleksey,,,
COPYRIGHT ESSELTE LETRASET LTD., 1990 
</metadata>
<defs>
<font id="FreestyleScriptPlain" horiz-adv-x="400" >
  <font-face 
    font-family="Freestyle Script Plain"
    font-weight="500"
    font-stretch="normal"
    units-per-em="1000"
    panose-1="0 0 0 0 0 0 0 0 0 0"
    ascent="800"
    descent="-200"
    x-height="290"
    cap-height="624"
    bbox="-298 -327 1074 820"
    underline-thickness="0"
    underline-position="0"
    unicode-range="U+0020-FB02"
  />
<missing-glyph horiz-adv-x="500" 
 />
    <glyph glyph-name=".notdef" horiz-adv-x="500" 
 />
    <glyph glyph-name=".null" horiz-adv-x="0" 
 />
    <glyph glyph-name="nonmarkingreturn" horiz-adv-x="333" 
 />
    <glyph glyph-name="space" unicode=" " horiz-adv-x="192" 
 />
    <glyph glyph-name="exclam" unicode="!" horiz-adv-x="284" 
d="M102 174q0 16 22 51q25 36 65 104l38 65q2 3 26 45q3 5 8.5 15t7.5 15l35 63q23 45 35 65q17 29 19 35l11 22q10 22 27 22q9 0 15.5 -7t6.5 -18q0 -20 -30 -75q-9 -18 -47 -87q-33 -60 -90 -161q-35 -60 -79 -128q-4 -7 -11 -18t-9 -15q-12 -25 -25 -25q-10 0 -17.5 9.5
t-7.5 22.5zM32 21q0 26 15.5 50.5t31.5 24.5q10 0 16.5 -7.5t6.5 -18.5q0 -28 -15 -51.5t-32 -23.5q-23 0 -23 26z" />
    <glyph glyph-name="quotedbl" unicode="&#x22;" horiz-adv-x="290" 
d="M199 473q10 0 16.5 -6.5t6.5 -16.5q0 -16 -28 -64l-22 -40q-24 -43 -34.5 -55t-24.5 -12q-23 0 -23 20q0 10 36 75q4 7 16 28.5t16 28.5q23 42 41 42zM303 473q10 0 16 -6.5t6 -16.5q0 -15 -28 -64l-22 -40q-24 -43 -34.5 -55t-24.5 -12q-9 0 -15.5 5.5t-6.5 14.5
q0 10 11 29l25 46l19 33q9 18 13 24q22 42 41 42z" />
    <glyph glyph-name="numbersign" unicode="#" 
d="M33 667h334v-667h-334v667zM40 7h320v653h-320v-653z" />
    <glyph glyph-name="dollar" unicode="$" horiz-adv-x="397" 
d="M263 277l-28 -47l12 -16q49 -62 49 -105q0 -61 -53 -104.5t-128 -43.5q-13 0 -24 1l-13 -27q-8 -17 -21 -17q-16 0 -16 14q0 4 3 13l12 26q-66 25 -66 80q0 38 30 74t62 36q7 0 12 -4.5t5 -10.5q0 -8 -15 -18q-36 -26 -36 -63q0 -30 31 -48l107 200q-43 63 -43 105
q0 65 56 110.5t151 56.5l20 31q10 15 22 15q16 0 16 -14q0 -3 -4 -13l-10 -19q73 -11 73 -69q0 -63 -86 -106q-56 -29 -118 -37zM295 331q55 11 91.5 35.5t36.5 51.5q0 29 -40 29h-17zM318 438q-51 -7 -87 -42.5t-36 -79.5q0 -24 18 -53l13 22q-6 6 -6 14q0 24 31 28zM113 7
q20 -2 24 -2q43 0 77 33t34 75q0 27 -38 72z" />
    <glyph glyph-name="percent" unicode="%" horiz-adv-x="452" 
d="M307 419q67 30 107 62l29 23q16 11 29 11q10 0 16.5 -6.5t6.5 -14.5q0 -17 -46 -74q-50 -63 -122 -137q-42 -42 -68 -69q-78 -86 -111.5 -129.5t-74.5 -114.5q-18 -30 -25.5 -39t-14.5 -9q-8 0 -15.5 6.5t-7.5 13.5q0 17 44 84q44 63 93 121q11 13 29.5 34t20.5 23
q11 13 21.5 24.5t11.5 12.5l35 34l35 37l53 54q24 25 54 66q-64 -43 -135 -69q-61 -77 -120 -77q-19 0 -31.5 13t-12.5 33q0 24 21.5 56.5t55.5 60.5q55 42 97 42q17 0 27.5 -9t10.5 -23q0 -15 -13 -40zM359 77q2 -4 2 -8q0 -11 -34 -45q-28 -30 -60 -49t-53 -19
q-18 0 -29.5 12.5t-11.5 31.5q0 52 56 108q59 59 112 59q19 0 31.5 -10.5t12.5 -26.5q0 -29 -26 -53zM228 367q-6 7 -6 15q0 10 12 17l17 11q19 10 19 24q0 10 -11 10q-20 0 -50 -25q-54 -43 -54 -71q0 -16 14 -16q18 0 59 35zM287 36q-2 3 -4 7q-3 5 -3 6q0 2 6 8l10 8
q35 29 35 45q0 12 -10 12q-28 0 -67 -44q-33 -36 -33 -60q0 -6 4.5 -10.5t10.5 -4.5q18 0 51 33z" />
    <glyph glyph-name="ampersand" unicode="&#x26;" horiz-adv-x="646" 
d="M306 365l2 -21q11 -85 28 -159l6 -26q43 63 56 120q-6 1 -13 1q-28 1 -37.5 7.5t-9.5 22.5q0 13 7 20q7 10 15 10l48 -2q5 0 13 1l47 4l44 7q36 4 54 4q22 0 34.5 -9.5t12.5 -25.5q0 -10 -6 -17t-14 -7q-2 0 -28 4q-10 3 -22 3q-21 0 -79 -12l-19 -4q-25 -112 -83 -181
q19 -34 35 -46t41 -12q10 0 34 4q20 5 30 5q21 0 21 -21q0 -17 -23 -29q-34 -17 -72 -17q-69 0 -110 67q-64 -61 -125 -61q-60 0 -100 44t-40 109q0 49 22 95t60 77q41 33 112 64q-4 33 -4 54q0 52 15 94q15 39 48.5 64.5t70.5 25.5q32 0 54 -22.5t22 -55.5q0 -51 -39 -99
q-23 -30 -86 -66zM301 409q95 52 95 113q0 16 -9 27.5t-22 11.5q-18 0 -35.5 -17t-23.5 -40q-7 -28 -7 -63zM251 338q-65 -31 -101 -77t-36 -98q0 -46 25 -75t66 -29q45 0 93 49q-12 29 -18 55q-12 45 -17 88l-8 62q0 1 -0.5 4l-1.5 9z" />
    <glyph glyph-name="quotesingle" unicode="'" horiz-adv-x="185" 
d="M198 473q10 0 16.5 -6.5t6.5 -16.5q0 -15 -50 -104q-24 -43 -34.5 -55t-24.5 -12q-22 0 -22 20q0 11 36 75q15 26 32 57q22 42 40 42z" />
    <glyph glyph-name="parenleft" unicode="(" horiz-adv-x="417" 
d="M100 -132l2 18q11 109 22 166.5t31 119.5q38 118 94.5 210t157.5 202q52 54 98 91q13 12 24 12q15 0 15 -15q0 -11 -14 -23l-24 -24q-48 -48 -98 -108q-124 -148 -188 -318q-37 -96 -57 -199q-19 -100 -21 -115q-3 -23 -7 -29.5t-15 -6.5q-20 0 -20 19z" />
    <glyph glyph-name="parenright" unicode=")" horiz-adv-x="417" 
d="M-73 -137q-1 8 25 34q32 30 81.5 87.5t79.5 98.5q83 112 136 248q53 137 73 277q9 57 12 65q6 15 18 15q19 0 19 -26q0 -65 -22 -173q-61 -291 -258 -507q-87 -95 -124 -121q-15 -12 -24 -12q-14 0 -16 14z" />
    <glyph glyph-name="asterisk" unicode="*" horiz-adv-x="264" 
d="M308 582q3 6 6 9q14 24 21.5 31.5t16.5 7.5q8 0 14 -5t6 -11q0 -10 -18 -32q-1 -2 -4.5 -6t-5.5 -6q33 22 55 22q18 0 18 -14q0 -7 -5 -10.5t-27 -12.5l-17 -7q26 -3 36.5 -8.5t10.5 -16.5q0 -10 -9 -17t-20 -7q-10 0 -43 10q12 -25 12 -41q0 -10 -7.5 -17.5t-18.5 -7.5
q-8 0 -11.5 5.5t-8.5 28.5q-2 8 -8 22q-4 -27 -10 -43q-10 -26 -33 -26q-14 0 -14 14q0 9 22 51q-3 -2 -6.5 -4t-5 -3.5t-2.5 -1.5l-21 -16q-7 -7 -16 -7q-5 0 -10 5.5t-5 12.5q0 18 53 42h-21q-38 0 -38 22q0 11 8.5 18.5t21.5 7.5q22 0 46 -8q-11 22 -11 37q0 9 6.5 16
t16.5 7t15 -8t11 -33z" />
    <glyph glyph-name="plus" unicode="+" 
d="M33 667h334v-667h-334v667zM40 7h320v653h-320v-653z" />
    <glyph glyph-name="comma" unicode="," horiz-adv-x="207" 
d="M-66 -98q1 13 21 30q22 19 41.5 53t24.5 60l4 21q5 28 33 28q22 0 22 -29q0 -45 -49 -116q-22 -31 -47 -53q-18 -17 -29 -17q-8 0 -15 7.5t-6 15.5z" />
    <glyph glyph-name="hyphen" unicode="-" horiz-adv-x="369" 
d="M74 169q1 31 52 32l54 1q20 0 37 -1q5 0 16 -0.5t16 -0.5h21q28 -1 37.5 -7t9.5 -22q0 -12 -6 -19.5t-15 -7.5h-6q-6 1 -9 1q-14 2 -46 2h-48q-17 0 -39 -1q-26 -2 -33 -4q-12 -3 -18 -3q-10 0 -17 8.5t-6 21.5z" />
    <glyph glyph-name="period" unicode="." horiz-adv-x="207" 
d="M10 21q0 26 15.5 50.5t31.5 24.5q10 0 16.5 -7.5t6.5 -18.5q0 -28 -14.5 -51.5t-32.5 -23.5q-10 0 -16.5 7t-6.5 19z" />
    <glyph glyph-name="slash" unicode="/" horiz-adv-x="319" 
d="M455 634q7 0 12.5 -5.5t5.5 -11.5q0 -9 -13 -23q-1 -1 -12 -13q-5 -6 -22 -25q-44 -48 -128 -153l-52 -65q-80 -99 -130 -170l-88 -128q-16 -20 -36 -51q-21 -28 -35 -54q-9 -14 -20 -14q-17 0 -17 15q0 13 29 58q102 155 242 335q86 109 150 187q55 67 69 81l18 18
q19 19 27 19z" />
    <glyph glyph-name="zero" unicode="0" horiz-adv-x="332" 
d="M296 437q52 -21 52 -91q0 -110 -84 -231q-94 -134 -175 -134q-36 0 -57.5 30t-21.5 82q0 70 38.5 148t106.5 146q52 52 86 72q24 13 33 13q22 0 22 -29v-6zM233 402q-74 -60 -119 -143t-45 -158q0 -67 41 -67q28 0 65 36t68 92q52 96 52 171q0 37 -24 59q-11 10 -38 10z
" />
    <glyph glyph-name="one" unicode="1" horiz-adv-x="214" 
d="M208 391q-32 -25 -68 -44q-47 -25 -62 -25t-15 25q0 18 23 27q30 11 76 39l51 32q40 24 54 24q9 0 16.5 -7.5t7.5 -17.5q0 -13 -19 -41q-10 -17 -48 -79q-101 -169 -147 -281q-14 -32 -21 -42t-17 -10q-8 0 -15.5 8t-7.5 16t18 55q21 47 58 120q41 82 71 132q21 37 45 69
z" />
    <glyph glyph-name="two" unicode="2" horiz-adv-x="298" 
d="M6 40q83 26 150 26q25 0 42 -10t17 -25q0 -10 -6.5 -17t-15.5 -7q-5 0 -9 1q-24 7 -46 7t-44 -3q-16 -2 -68 -18q-50 -14 -62 -14q-13 0 -23.5 12t-10.5 26q0 15 25 40l41 40q1 1 5.5 4.5t14.5 12.5t21 18q46 39 115 91q76 57 97 76q40 34 40 70q0 18 -11 29t-30 11
q-43 0 -104 -49q-28 -22 -33 -22q-7 0 -13 6t-6 13q0 17 43 50q67 52 130 52q35 0 59 -22t24 -53q0 -44 -29 -80.5t-115 -99.5q-82 -60 -132 -102q-47 -39 -66 -63z" />
    <glyph glyph-name="three" unicode="3" horiz-adv-x="289" 
d="M222 279q27 -11 38.5 -27.5t11.5 -44.5q0 -80 -66 -153.5t-139 -73.5q-37 0 -63.5 27.5t-26.5 66.5q0 24 10.5 38t27.5 14q26 0 26 -19q0 -2 -2 -10q0 -2 -0.5 -7.5t-0.5 -8.5q0 -22 11 -35.5t30 -13.5q44 0 90 58q45 58 45 106q0 26 -13 41t-35 15q-10 0 -19 -3
q-14 -4 -17 -4q-15 0 -15 19q0 16 9 25t30 15q48 12 75.5 33.5t27.5 47.5q0 27 -31 27q-36 0 -69 -21l-21 -12q-8 -5 -16 -5q-16 0 -16 17q0 18 24 34q56 41 112 41q33 0 56 -21t23 -50q0 -70 -97 -116z" />
    <glyph glyph-name="four" unicode="4" horiz-adv-x="344" 
d="M241 189q-1 -3 -2.5 -6l-2.5 -5l-1 -2l-23 -48q-2 -4 -16 -39q-22 -54 -30 -82q-8 -30 -29 -30q-11 0 -18.5 8t-7.5 20q0 15 11 50q7 20 25 61l20 46q0 1 1.5 3.5t3.5 7t4 9.5q-74 -9 -112 -25q-12 -6 -21 -6q-19 0 -19 31q0 14 5.5 24t27.5 33q4 4 10 10.5t17 18
t22 22.5q87 88 155 141t95 53q11 0 19.5 -8.5t8.5 -18.5q0 -11 -20 -45l-27 -43q-34 -53 -70 -128q6 1 14 1q10 1 30 1q30 0 30 -21q0 -14 -9.5 -23t-23.5 -8h-24q-15 0 -30 -1zM204 234l10 21q44 84 90 153q-55 -33 -123 -100q-45 -44 -84 -90l21 4q54 11 86 12z" />
    <glyph glyph-name="five" unicode="5" horiz-adv-x="301" 
d="M227 409q-30 -27 -57 -56q-33 -35 -50 -67q48 19 82 19q39 0 61.5 -21.5t22.5 -59.5q0 -81 -76 -162q-77 -82 -148 -82q-36 0 -59 28t-23 71q0 32 13 52.5t32 20.5t19 -13q0 -1 -1 -4.5t-2 -6.5q-5 -12 -5 -36q0 -27 13 -44t33 -17q44 0 91 55q53 61 53 120
q0 24 -12 37.5t-34 13.5q-33 0 -67 -17l-23 -13q-6 -3 -11 -3q-9 0 -18 12q-10 12 -10 24q0 20 42 77q26 36 67 74q-11 17 -11 22q0 10 7.5 14t29.5 7q77 12 121 12q38 0 51 -6t13 -24q0 -20 -23 -20q-10 0 -19 1h-11q-43 0 -91 -8z" />
    <glyph glyph-name="six" unicode="6" horiz-adv-x="326" 
d="M128 264q73 27 105 27q37 0 57.5 -20t20.5 -55q0 -82 -70 -159.5t-143 -77.5q-41 0 -68 32t-27 80q0 73 49.5 150.5t137.5 142.5q51 37 86 55q23 12 35 12q19 0 19 -16q0 -15 -20 -25q-108 -58 -182 -146zM88 204q-31 -50 -31 -97q0 -34 15.5 -56.5t39.5 -22.5
q49 0 95 62q20 27 33 60t13 56q0 20 -12 32t-32 12q-50 0 -121 -46z" />
    <glyph glyph-name="seven" unicode="7" horiz-adv-x="263" 
d="M287 411l-22 -4q-108 -24 -162 -24q-36 0 -36 23q0 11 7.5 20t17.5 9q1 0 3 -0.5t5.5 -1t6.5 -0.5q2 0 6.5 -0.5t7.5 -0.5q21 0 80 8q78 14 94 18q17 5 27 5q27 0 27 -28q0 -19 -22 -44q-92 -98 -151 -178t-112 -176q-24 -44 -32.5 -54t-21.5 -10q-8 0 -14 6t-6 14
q0 13 24 61q41 77 121 182t152 175z" />
    <glyph glyph-name="eight" unicode="8" horiz-adv-x="322" 
d="M169 288q-25 24 -34.5 40.5t-9.5 36.5q0 46 44 81t102 35q35 0 58 -20.5t23 -52.5q0 -33 -22.5 -60t-82.5 -66q51 -52 51 -99q0 -72 -70 -135.5t-149 -63.5q-41 0 -70.5 26.5t-29.5 63.5q0 78 98 153q48 37 92 61zM216 317q76 43 76 86q0 15 -10.5 25.5t-26.5 10.5
q-28 0 -51 -19.5t-22 -41.5q1 -18 26 -50q1 -1 3.5 -4.5t4.5 -6.5zM202 255q-58 -30 -99 -68q-57 -53 -57 -102q0 -28 18 -40q18 -13 39 -13q50 0 94 46.5t44 98.5q0 43 -39 78z" />
    <glyph glyph-name="nine" unicode="9" horiz-adv-x="315" 
d="M233 202q-69 -34 -106 -34q-34 0 -55.5 25t-21.5 63q0 81 69 156t144 75q40 0 64.5 -25.5t24.5 -67.5q0 -84 -61 -190q-30 -55 -102 -134q-78 -87 -103 -87q-7 0 -12.5 5t-5.5 12q0 12 20 29q47 39 88 88q34 41 57 85zM262 259q35 73 35 115q0 67 -49 67t-97 -56.5
t-48 -114.5q0 -51 48 -51t111 40z" />
    <glyph glyph-name="colon" unicode=":" horiz-adv-x="193" 
d="M11 21q0 26 15 50.5t31 24.5q10 0 17 -7.5t7 -18.5q0 -28 -15 -51.5t-33 -23.5q-22 0 -22 26zM94 238q0 26 15.5 50.5t31.5 24.5q10 0 16.5 -7.5t6.5 -18.5q0 -28 -15 -51.5t-32 -23.5q-23 0 -23 26z" />
    <glyph glyph-name="semicolon" unicode=";" horiz-adv-x="193" 
d="M-66 -98q1 13 21 30q22 19 41.5 53t24.5 60l4 21q5 28 33 28q22 0 22 -29q0 -45 -49 -116q-22 -31 -47 -53q-18 -17 -29 -17q-8 0 -15 7.5t-6 15.5zM95 238q0 26 15.5 50.5t31.5 24.5q10 0 16.5 -7.5t6.5 -18.5q0 -28 -14.5 -51.5t-32.5 -23.5q-10 0 -16.5 7.5t-6.5 18.5
z" />
    <glyph glyph-name="less" unicode="&#x3c;" horiz-adv-x="313" 
d="M323 318l-9 -13q-61 -92 -86 -139q-24 -51 -24 -77q0 -20 17 -20q14 0 31.5 17t56.5 68q17 23 27 23q11 0 11 -14t-19 -43q-28 -39 -58 -67q-43 -40 -71 -40q-43 0 -43 59q-31 -42 -50 -57.5t-41 -15.5t-36.5 16t-14.5 40q0 44 32 107q23 48 63 108q1 2 3 5t5.5 8t5.5 8
l-18 -4q-33 -6 -67 -16q-14 -4 -19 -4q-14 0 -14 14q0 25 50 40q38 10 108 22q2 2 4 5t3.5 5t1.5 3l26 33q20 27 48 53q13 13 23 13q17 0 17 -19q0 -12 -14 -29q-31 -33 -44 -54q5 0 11.5 0.5t7.5 0.5l33 4h17q1 2 3 5t3.5 4.5t1.5 2.5l25 34q6 7 33 37q32 36 43 36
q7 0 12 -7t5 -17q0 -13 -12 -25q-26 -27 -54 -65q36 -1 60 -4l28 -3q34 -3 34 -24q0 -9 -6.5 -15.5t-15.5 -6.5q-3 0 -17 3q-4 1 -27 3l-40 2q-4 1 -18 1q-11 0 -18 -1h-14zM264 315q-31 -3 -57 -6l-17 -3q-42 -56 -81 -122q-46 -78 -46 -113q0 -18 14 -18q18 0 45 34
q15 18 54 83q46 79 63 106q12 20 25 39z" />
    <glyph glyph-name="equal" unicode="=" 
d="M33 667h334v-667h-334v667zM40 7h320v653h-320v-653z" />
    <glyph glyph-name="greater" unicode="&#x3e;" 
d="M33 667h334v-667h-334v667zM40 7h320v653h-320v-653z" />
    <glyph glyph-name="question" unicode="?" horiz-adv-x="399" 
d="M162 217q0 33 37 87q41 60 162 146q68 46 84 64q39 39 39 75q0 20 -14.5 33t-37.5 13q-73 0 -160 -90q-30 -30 -43 -30q-7 0 -12.5 5.5t-5.5 12.5q0 32 58 79q80 64 156 64q43 0 72 -26t29 -63q0 -47 -46 -98q-34 -37 -111 -93q-61 -44 -85 -68q-33 -33 -53 -73l-15 -32
q-13 -24 -33 -24q-9 0 -15 5t-6 13zM113 21q0 26 15.5 50.5t31.5 24.5q10 0 16.5 -7.5t6.5 -18.5q0 -28 -14.5 -51.5t-32.5 -23.5q-23 0 -23 26z" />
    <glyph glyph-name="at" unicode="@" 
d="M33 667h334v-667h-334v667zM40 7h320v653h-320v-653z" />
    <glyph glyph-name="A" unicode="A" horiz-adv-x="415" 
d="M326 271q-111 -24 -186 -52q-50 -74 -98 -158l-26 -45q-18 -30 -21 -36q-16 -26 -33 -26q-9 0 -15.5 6.5t-6.5 15.5t16 41q36 62 60 101l35 55q1 1 11 18q-27 -8 -54 -19q-9 -5 -19 -5q-19 0 -19 22q0 18 22 28q24 11 58 21q32 10 58 22q2 2 4 5t3.5 4.5l2.5 2.5l1 2
l43 60q7 10 37 47q105 126 180 200q33 33 48 43.5t28 10.5q12 0 21 -9t9 -22t-13 -48q-25 -62 -45 -128q-21 -68 -26 -93h12q10 1 24 1q28 0 28 -21q0 -13 -8.5 -22t-21.5 -9h-6h-7q-23 0 -35 -4q-6 -20 -16 -66q-1 -5 -4.5 -21.5t-7 -35t-7.5 -38.5q-5 -40 -7 -54
q-4 -27 -6 -42q-2 -24 -2 -26v-2v-8v-6q0 -29 -20 -29q-34 0 -34 50q0 65 25 181q4 20 18 88zM339 324q3 8 6 17l17 59q2 7 13 38q2 4 5 13t4 13q7 19 14.5 38t7.5 20l7 21q-33 -23 -64 -56q-51 -53 -116 -136q-22 -27 -47 -67q18 5 21 5l57 17q22 6 58 14z" />
    <glyph glyph-name="B" unicode="B" horiz-adv-x="435" 
d="M307 346q109 -39 109 -142q0 -95 -79.5 -169.5t-180.5 -74.5q-49 0 -106 25q-1 -5 -3 -11t-2 -7q-7 -23 -20 -23q-12 0 -22 12t-10 28q0 15 22 71q40 105 77 176q10 19 36 66q8 14 24.5 42.5t24.5 42.5q31 53 37 62l55 85q1 1 2.5 3.5t5 8.5t6.5 11q-29 -10 -61 -25
q-30 -15 -37 -15q-17 0 -17 25q0 12 5.5 17.5t30.5 18.5q48 23 96 39q61 20 104 20q52 0 85 -26t33 -66q0 -60 -57 -111.5t-158 -82.5zM233 376q83 15 157 59q85 53 85 102q0 46 -65 46q-32 0 -77 -15q9 -6 9 -16t-17 -34q-1 -1 -7.5 -10.5t-11.5 -18.5q-4 -5 -15 -21.5
t-18 -27.5q-28 -42 -40 -64zM64 26q36 -21 80 -21q104 0 167 83q53 69 53 136q0 38 -28 63.5t-69 25.5q-14 0 -19 -1l-17 -4q-2 0 -4.5 -0.5t-3.5 -0.5q-12 0 -20 17q-79 -122 -134 -283z" />
    <glyph glyph-name="C" unicode="C" horiz-adv-x="390" 
d="M6 68q0 73 50 178t135 211q65 82 127 127t109 45q28 0 45.5 -19t17.5 -49q0 -76 -68 -163q-50 -65 -76 -65q-10 0 -18 8t-8 18q0 18 30 40q45 34 74.5 78.5t29.5 79.5q0 30 -26 30q-54 0 -161 -118q-93 -102 -144 -204q-55 -112 -55 -191q0 -33 21 -57.5t49 -24.5
q53 0 133 83q20 20 48.5 58t38.5 57q8 14 17 14q11 0 11 -10q0 -23 -54 -99q-51 -69 -108.5 -109.5t-107.5 -40.5q-46 0 -78 36t-32 87z" />
    <glyph glyph-name="D" unicode="D" horiz-adv-x="435" 
d="M240 519q-16 -9 -25 -16q-21 -18 -30 -18t-15.5 6.5t-6.5 14.5q0 11 9 21.5t38 33.5q73 54 160 54q63 0 104 -40t41 -101q0 -72 -44 -169t-114 -181q-71 -84 -151.5 -135.5t-140.5 -51.5q-25 0 -41.5 13.5t-16.5 34.5q0 16 14 61q52 158 151 349l53 98zM286 542
q15 -8 15 -17q0 -5 -5 -15l-14 -24q-22 -40 -77 -146q-56 -111 -104 -233q-30 -81 -30 -100t18 -19q23 0 59.5 19t70.5 49q110 96 181 226q64 116 64 203q0 81 -83 81q-43 0 -95 -24z" />
    <glyph glyph-name="E" unicode="E" horiz-adv-x="390" 
d="M213 363l19 3l56 11q57 9 93 9q32 0 32 -24q0 -14 -8.5 -19.5t-31.5 -6.5q-38 -1 -106 -11q-47 -7 -87 -19q-18 -26 -37 -64q-15 -30 -45 -95q-22 -47 -38 -99q5 2 13 5t9 3q76 26 106 32q52 9 84 9q52 0 52 -27q0 -13 -8.5 -17.5t-35.5 -5.5q-46 0 -106 -14t-96 -34
l-29 -16q-14 -7 -21 -7q-13 0 -24 12.5t-11 26.5q0 10 16 52l25 62q25 62 69 148q24 44 47 85q25 43 39 65l65 98q8 12 17 26q-20 6 -20 26q0 14 12 20.5t55 16.5q113 26 227 26q45 0 45 -23q0 -15 -14 -26q-11 -8 -44 -5q-30 1 -109 -7q-61 -8 -99 -19q5 -8 5 -12
q0 -9 -8 -17l-15 -21l-24 -36l-31 -46q-21 -32 -38 -65z" />
    <glyph glyph-name="F" unicode="F" horiz-adv-x="366" 
d="M337 557q-31 -37 -67 -93q-42 -66 -61 -103l29 6q76 15 117 15q23 0 32 -4.5t9 -17.5q0 -32 -35 -30l-34 1q-41 0 -155 -33q-22 -38 -42 -80q-40 -87 -61 -148l-15 -41q-7 -22 -7 -24q-9 -26 -23 -26q-11 0 -20.5 12t-9.5 26q0 12 21 73q24 63 51 119q42 89 94 174
q47 79 87 139l15 23q-17 3 -17 19q0 23 47 36q63 18 125 28q69 11 106 11q57 0 57 -29q0 -11 -8.5 -19t-19.5 -8q-8 0 -14 1q-9 2 -28 2q-34 0 -90 -10q-45 -6 -83 -19z" />
    <glyph glyph-name="G" unicode="G" horiz-adv-x="388" 
d="M243 75q-50 -35 -78.5 -48t-53.5 -13q-35 0 -60 30.5t-25 73.5q0 72 48 165t134 190q149 165 245 165q29 0 48.5 -22t19.5 -53q0 -85 -83 -176q-64 -70 -96 -70q-9 0 -16 7t-7 15q0 12 22 30q56 45 90 91q54 70 54 113q0 11 -7.5 18t-19.5 7q-19 0 -39.5 -11t-60.5 -42
q-103 -80 -190.5 -214t-87.5 -211q0 -22 15.5 -38.5t35.5 -16.5q35 0 86 37q64 47 91 74q23 23 34 23q9 0 15 -7.5t6 -18.5q0 -13 -17 -37q-46 -62 -97 -165q-55 -112 -68 -167q-6 -22 -13.5 -31t-21.5 -9q-11 0 -18.5 7.5t-7.5 20.5q0 21 19 71q17 49 46 104l42 77
q2 4 16 31z" />
    <glyph glyph-name="H" unicode="H" horiz-adv-x="458" 
d="M363 301q-100 -20 -209 -63l-8 -16q-42 -86 -67 -159q-17 -51 -24 -86q-4 -28 -21 -28q-12 0 -21.5 10.5t-9.5 24.5q0 11 7 36q4 14 9 29.5t7 22t2 7.5q7 24 23 61l26 59q0 1 7 18q-6 -2 -12 -5l-16 -7q-7 -3 -14 -3q-16 0 -16 21q0 15 9 22t39 18q20 7 42 16
q10 19 11 21l26 49q9 17 19 34q2 5 7 12.5t6 9.5q76 126 104 191q23 53 27 58q10 13 23 13q24 0 24 -23q0 -25 -43 -108q-39 -75 -97 -169q-24 -40 -34 -64l25 7l76 22q6 2 19.5 5.5t26.5 7t26 6.5l33 9l9 16q57 104 129 214q3 5 6.5 10.5t6 9.5t3.5 7q12 21 25 21
q10 0 17 -8t7 -19q0 -20 -28 -65l-31 -47l-36 -56q-24 -37 -42 -73q9 1 21 1q39 0 39 -19q0 -11 -10.5 -21.5t-22.5 -10.5h-19q-10 0 -35 -4q-93 -163 -123 -275l-12 -49q-8 -31 -25 -31q-11 0 -21 13t-10 28q0 24 30 100q25 61 79 176z" />
    <glyph glyph-name="I" unicode="I" horiz-adv-x="178" 
d="M14 -19q-10 0 -18.5 9.5t-8.5 21.5q0 17 15 65q43 145 188 370q29 47 72 106q32 45 44.5 58t22.5 13q8 0 15 -7.5t7 -16.5q0 -12 -9 -26.5t-52 -74.5q-124 -174 -185 -307q-57 -127 -65 -176q-6 -35 -26 -35z" />
    <glyph glyph-name="J" unicode="J" horiz-adv-x="426" 
d="M519 582l-8 -20q-97 -251 -188 -396q-54 -86 -113 -134.5t-110 -48.5q-37 0 -61.5 30.5t-24.5 77.5q0 55 24.5 120t64.5 113q47 57 67 57q6 0 11 -6t5 -13t-7 -17l-19 -24q-89 -118 -89 -212q0 -34 14.5 -55.5t36.5 -21.5q53 0 113 89q36 56 81 137q43 80 81 165
q44 99 63 151q-95 -19 -130 -33q-15 -6 -25 -6t-17 7.5t-7 17.5q0 15 13.5 23t58.5 22q93 29 208 29q39 0 55 -6t16 -22q0 -26 -34 -26q-1 0 -10.5 0.5t-15.5 0.5q-12 1 -29 1h-24z" />
    <glyph glyph-name="K" unicode="K" horiz-adv-x="408" 
d="M239 423q4 2 8.5 4t7 3.5l5 3t3.5 1.5l60 38q15 9 45 26q37 21 57 32q31 17 42 22l55 26q19 9 31 9q9 0 15 -6.5t6 -16.5q0 -13 -8 -19.5t-34 -15.5q-62 -20 -156 -76q-54 -32 -104 -73q-13 -46 -22 -103q-16 -110 -16 -179q0 -55 26 -55q18 0 43 31q35 43 60 78
q15 20 23 20q12 0 12 -14q0 -18 -43 -81q-60 -89 -110 -89q-34 0 -49.5 28.5t-15.5 89.5q0 81 21 178l20 92q1 3 6 28q-21 -39 -54 -94l-48 -77q-41 -67 -75 -145q-19 -44 -32 -101q-8 -30 -27 -30q-25 0 -25 32q0 38 39 126q22 48 62 122q13 24 36 60q5 8 14.5 23t14.5 23
q111 173 140 257q10 29 17.5 38t19.5 9q8 0 14 -6t6 -15q0 -27 -34 -98q-22 -45 -56 -106z" />
    <glyph glyph-name="L" unicode="L" horiz-adv-x="289" 
d="M32 42q15 5 20 7q71 21 97 26q36 8 64 8q37 0 37 -27q0 -11 -8 -19.5t-19 -8.5q-2 0 -14 2q-5 1 -13 1q-55 0 -111 -27l-30 -13q-30 -15 -54 -15q-14 0 -24.5 12.5t-10.5 29.5q0 18 41 104q54 111 136 233t130 184q25 32 30 39q24 32 41 32q9 0 15.5 -6.5t6.5 -14.5
q0 -13 -23 -42l-33 -44l-59 -77q-30 -39 -94 -138q-60 -93 -95 -168q-19 -40 -30 -78z" />
    <glyph glyph-name="M" unicode="M" horiz-adv-x="499" 
d="M226 154q14 22 17 25l55 85q53 83 154 215q68 90 111 137q30 33 52 33q14 0 22.5 -7.5t8.5 -20.5q0 -16 -28 -66l-32 -56l-51 -90q-78 -145 -123 -286q-23 -69 -23 -99q0 -2 0.5 -5.5t0.5 -5.5q0 -5 0.5 -10.5t1 -8t0.5 -3.5q0 -14 -10 -26t-21 -12q-13 0 -21.5 13.5
t-8.5 36.5q0 64 62 215q40 91 77 162q38 72 75 137l16 29q-35 -36 -90 -108q-78 -103 -124 -177l-53 -84q-54 -89 -91 -89q-34 0 -34 42q0 74 54 198q30 72 60 128q13 26 31 57q-40 -40 -68 -78t-72 -109q-95 -153 -150 -282l-27 -65q-22 -52 -51 -52q-16 0 -16 17q0 7 4 19
l14 31l26 62q53 125 163 291q58 89 136 184q46 58 68 79t36 21q12 0 22 -10t10 -22q0 -14 -21 -48q-38 -64 -60 -107q-48 -99 -80 -195q-14 -47 -22 -95z" />
    <glyph glyph-name="N" unicode="N" horiz-adv-x="423" 
d="M269 74q33 99 71.5 181t118.5 223q18 33 58 101q23 39 39 55.5t32 16.5t16 -14q0 -9 -22 -43l-26 -42q-55 -86 -123 -216q-70 -138 -105 -245l-17 -49q-27 -80 -69 -80q-17 0 -23 15.5t-6 59.5q0 116 23 258q14 85 28 149q5 19 14 52q-33 -37 -69 -94q-20 -32 -57 -98
q-87 -150 -125 -269q-15 -47 -22 -58q-14 -22 -33 -22q-8 0 -13.5 6t-5.5 14t8 30l16 46q35 101 144 286q65 107 135 204q33 46 51.5 63.5t34.5 17.5q8 0 13 -5t5 -13q0 -11 -5 -21q-34 -90 -60.5 -229.5t-26.5 -231.5q0 -4 0.5 -20t0.5 -28z" />
    <glyph glyph-name="O" unicode="O" horiz-adv-x="423" 
d="M318 569q-37 -7 -86 -34q-10 -6 -18 -6t-14 7.5t-6 16.5q0 10 8.5 17.5t35.5 21.5q69 36 142 36q55 0 92.5 -37t37.5 -92q0 -89 -72 -214q-77 -134 -188 -242q-95 -90 -159 -90q-37 0 -60.5 29.5t-23.5 74.5q0 64 34 147t95 167q78 109 182 198zM343 574q8 -11 8 -17
q0 -8 -9 -17l-17 -19l-39 -42q-105 -114 -163.5 -222t-58.5 -187q0 -56 42 -56q44 0 121 76q100 99 163.5 211.5t63.5 189.5q0 39 -21.5 61.5t-59.5 22.5q-19 0 -30 -1z" />
    <glyph glyph-name="P" unicode="P" horiz-adv-x="399" 
d="M166 235l-7 -15l-37 -77q-22 -48 -31 -73l-20 -55q-10 -25 -10 -27q-10 -33 -27 -33q-10 0 -18.5 9.5t-8.5 21.5q0 18 19 68q19 48 54 122l27 60q2 2 8 15q-20 13 -20 29q0 11 8.5 19t19.5 8q4 0 18 -4q6 10 10 18l37 73q16 32 23 47q13 26 23 55q-3 -1 -6 -3t-5 -3.5
t-3 -1.5l-17 -11q-10 -7 -19 -7q-8 0 -13.5 6.5t-5.5 15.5q0 24 39 49q38 24 60 36q1 3 2.5 8.5t2.5 7.5q5 18 10.5 24.5t16.5 6.5q23 0 23 -25q65 19 101 19q46 0 79.5 -33t33.5 -80q0 -102 -102.5 -188t-224.5 -86q-16 0 -40 4zM302 533q-17 -50 -53 -124q-11 -24 -23 -48
t-17 -34.5t-6 -13.5q-3 -4 -12 -25q23 -4 36 -4q42 0 95.5 25.5t96.5 65.5q77 74 77 132q0 56 -76 56q-57 0 -118 -30z" />
    <glyph glyph-name="Q" unicode="Q" horiz-adv-x="418" 
d="M241 35q4 -10 6 -19q19 -66 25 -82q33 -72 88 -72q28 0 56 20q10 6 13 6q6 0 11 -6t5 -13q0 -22 -32.5 -42.5t-68.5 -20.5q-58 0 -94 51q-18 26 -29 55q0 2 -1.5 5t-4.5 11.5t-6 18.5q-2 8 -8 24q-1 6 -8 23q-41 -26 -60 -33.5t-40 -7.5q-38 0 -62.5 29t-24.5 74
q0 64 34 147t95 167q72 99 176 196q-21 -4 -41 -13q-25 -10 -39 -18q-12 -7 -17 -7q-4 0 -14 8q-9 6 -9 16t10 18t39 22q68 34 132 34q66 0 101 -38q35 -37 35 -91q0 -105 -103 -265q-36 -56 -78 -105q-12 -14 -39 -43q-6 -7 -18.5 -20t-19.5 -20zM227 92q92 85 158.5 203
t66.5 197q0 37 -21.5 60t-56.5 23q-9 0 -31 -2q6 -12 6 -16q0 -9 -26 -36q-29 -29 -74 -82.5t-68 -85.5q-40 -56 -81 -140q-9 -20 -20 -57q41 19 65 19q57 0 82 -83zM179 49q-13 79 -57 79q-21 0 -55 -24q-3 -22 -3 -31q0 -59 40 -59q37 0 75 35z" />
    <glyph glyph-name="R" unicode="R" horiz-adv-x="392" 
d="M134 216q-19 -36 -37 -74q-29 -59 -52 -124q-14 -41 -19.5 -47.5t-22.5 -6.5q-9 0 -16 6.5t-7 15.5q0 12 19 62q40 104 108 222q-7 22 -7 34q0 13 8 22.5t19 9.5q7 0 17 -5q3 4 6 10t4 7l44 76q4 6 22 42q20 40 25 54q-18 -8 -21 -10q-8 -4 -13 -4q-15 0 -15 19
q0 24 33 43q26 14 45 22q8 27 13.5 35t18.5 8q17 0 29 -19q45 14 83 14q52 0 83 -29t31 -78q0 -100 -100.5 -175.5t-232.5 -75.5q-17 0 -31 1q10 -36 31 -81l42 -91q20 -41 35 -64l19 -31q7 -12 7 -20q0 -11 -11 -18q-10 -8 -18 -8q-13 0 -27 25q-2 5 -17 31q-23 40 -58 116
q-27 62 -37 86zM193 322q12 -1 27 -1q104 0 190 71q78 62 78 126q0 57 -74 57q-42 0 -104 -28q-15 -35 -28 -60l-39 -75q-35 -66 -50 -90z" />
    <glyph glyph-name="S" unicode="S" horiz-adv-x="339" 
d="M-33 87q0 40 30 71.5t68 31.5q10 0 17 -6.5t7 -15.5q0 -16 -25 -24q-41 -14 -41 -54q0 -29 21 -46.5t56 -17.5q64 0 112 38q30 23 30 60q0 34 -36 88q-25 37 -49 80q-23 41 -23 78q0 92 91 172q46 40 98.5 64t96.5 24q34 0 54.5 -17.5t20.5 -46.5q0 -80 -121 -165
q-67 -45 -98 -45q-10 0 -18 7.5t-8 15.5q0 19 33 30q64 22 113 66t49 79q0 13 -9.5 21.5t-24.5 8.5q-56 0 -131 -55q-43 -31 -68.5 -72.5t-25.5 -79.5q0 -27 12 -55t44 -77q56 -81 56 -124q0 -56 -58 -98.5t-135 -42.5q-60 0 -99 30t-39 77z" />
    <glyph glyph-name="T" unicode="T" horiz-adv-x="487" 
d="M382 557q-44 -7 -94 -17q-35 -8 -55 -13q-17 -4 -31 -8q-21 -7 -28 -7q-10 0 -17 7.5t-7 17.5q0 22 35 31l49 14q204 55 401 55q43 0 57.5 -5t14.5 -19q0 -19 -20.5 -24.5t-101.5 -6.5q-57 -1 -111 -7q-18 -1 -50 -8q12 -5 12 -15t-16 -34q-43 -63 -105 -171
q-83 -148 -130 -263q-9 -24 -27 -76q-8 -21 -9 -30q-7 -31 -23 -31q-13 0 -23 11.5t-10 26.5q0 35 55 154q35 76 85 169q35 66 85 145l51 83z" />
    <glyph glyph-name="U" unicode="U" horiz-adv-x="471" 
d="M445 390q-23 -27 -53 -66q-40 -54 -79 -105l-51 -69q-61 -82 -109 -133q-56 -60 -95 -60q-23 0 -39 22t-16 55q0 70 51 184.5t132 228.5q66 92 123 153q28 26 42 26q8 0 14.5 -7.5t6.5 -15.5q0 -15 -23 -38q-7 -7 -20 -22q-8 -10 -13 -15l-54 -64q-75 -88 -141 -220
t-66 -194q0 -28 21 -28q19 0 55 40q47 55 122 151l91 114q32 43 48 63q5 6 15.5 20l16.5 22q8 10 22.5 29t21.5 28q8 10 17.5 21t13.5 16l41 46q20 24 30 31.5t21 7.5q9 0 16 -7t7 -16q0 -12 -22 -44q-109 -162 -175 -319q-62 -149 -65 -221q-2 -27 -5 -34t-13 -7
q-14 0 -24 11t-10 27q0 18 11 70q11 56 52 155q21 50 64 130q2 3 4.5 8t6.5 12.5t7 13.5z" />
    <glyph glyph-name="V" unicode="V" horiz-adv-x="389" 
d="M128 -3q119 220 246 408q53 78 125 170q29 36 48 36q8 0 13.5 -5.5t5.5 -12.5q0 -12 -25 -43q-25 -29 -66 -86q-33 -45 -89 -130q-40 -61 -89 -142q-38 -64 -44 -74q-12 -19 -29 -49l-48 -86q-20 -36 -29.5 -46t-22.5 -10q-51 0 -51 90q0 63 17 149q22 114 53 216
q33 108 54 157l21 48q10 22 18 30t22 8q24 0 24 -20q0 -13 -6 -26l-18 -43q-22 -53 -52 -141q-36 -101 -58 -203.5t-22 -167.5q0 -2 0.5 -5.5t1 -10t0.5 -11.5z" />
    <glyph glyph-name="W" unicode="W" horiz-adv-x="481" 
d="M68 20q41 55 69 102l48 79l41 67l37 60q27 43 42 58t31 15q18 0 18 -15q0 -10 -7 -23q-2 -5 -27 -67q-15 -41 -25 -84q-18 -75 -18 -137q0 -22 5 -52q17 23 32 49q23 45 45 93l35 74q41 90 104 199q50 87 116 172q33 41 51 41q7 0 13.5 -6t6.5 -13q0 -12 -30 -51
q-61 -76 -114 -167q-63 -107 -155 -303q-50 -108 -70 -135.5t-46 -27.5q-51 0 -51 89q0 71 24 175q-27 -35 -54 -82q-21 -36 -45 -75q-4 -7 -12.5 -21t-12.5 -21q-5 -9 -10.5 -18.5t-5.5 -10.5q-32 -55 -60 -55q-37 0 -37 48q0 49 32 163q26 94 91 251q60 148 69 180
q8 31 18 42.5t27 11.5q21 0 21 -21q0 -25 -18 -75q-21 -55 -32 -79l-35 -84q-44 -98 -73 -197q-31 -102 -38 -149z" />
    <glyph glyph-name="X" unicode="X" horiz-adv-x="388" 
d="M234 340v17q0 32 -11 144q-6 70 -19 104q-7 20 -7 22q0 9 8 16t19 7q12 0 17.5 -7.5t13.5 -31.5q13 -42 27 -192l3 -25l21 20q103 102 184 169q61 48 72 48q7 0 13 -7.5t6 -17.5q0 -14 -9 -25t-42 -38l-50 -42q-59 -48 -126 -114l-65 -65q2 -97 8 -165q11 -121 32 -178
l11 -31q5 -12 5 -20q0 -11 -9 -19.5t-21 -8.5q-14 0 -21 9t-15 37q-17 54 -29 179q-7 67 -10 146q-34 -34 -63 -66q-63 -69 -85 -95q-27 -32 -73 -89q-19 -24 -30 -41q-18 -29 -33 -29q-9 0 -16 7.5t-7 16.5q0 17 36 61l51 62q49 60 107 125q87 95 93 102z" />
    <glyph glyph-name="Y" unicode="Y" horiz-adv-x="403" 
d="M330 320q-40 -39 -94 -87q-44 -38 -65.5 -50.5t-42.5 -12.5q-22 0 -37 18t-15 46q0 56 41.5 135t106.5 149q51 56 96 86q24 16 39 16q8 0 13.5 -5.5t5.5 -13.5q0 -19 -33 -39q-26 -17 -63.5 -53t-61.5 -68q-32 -43 -60 -102t-28 -86q0 -9 6 -15.5t14 -6.5q20 0 64 35
q38 30 59.5 51t65.5 69q69 77 107 128l40 54q2 2 5.5 6t10.5 13t15 18q34 41 48 41q10 0 16.5 -8.5t6.5 -19.5q0 -18 -18 -41q-54 -69 -97 -128q-105 -141 -148 -221q-17 -30 -44 -88q-53 -115 -66 -158q-10 -32 -19.5 -44t-23.5 -12q-23 0 -23 22q0 28 37.5 113t81.5 158
l44 74q1 1 3 4t5.5 10t7.5 13z" />
    <glyph glyph-name="Z" unicode="Z" horiz-adv-x="380" 
d="M23 23q37 3 69.5 12t117.5 39q83 30 103 30q24 0 24 -25q0 -13 -8.5 -18.5t-31.5 -10.5q-55 -11 -144 -45q-42 -16 -72 -25q-36 -10 -58 -10q-23 0 -38 14t-15 36q0 18 10.5 37t48.5 68q111 141 217 254q54 55 135 127q43 39 81 72l23 19q-25 -2 -29 -3l-72 -11
q-64 -11 -113 -11q-26 0 -45.5 10t-19.5 23q0 10 7.5 18t16.5 8q2 0 19 -5q15 -5 35 -5q34 0 97 7q24 2 91 13q45 8 69 8q39 0 39 -25q0 -20 -31 -44l-39 -30q-151 -117 -320 -310l-42 -49t-47 -56q-51 -62 -78 -112z" />
    <glyph glyph-name="bracketleft" unicode="[" horiz-adv-x="403" 
d="M429 600l-8 -14q-2 -4 -26 -48l-8 -16l-9 -16q-3 -5 -6.5 -12t-10.5 -19.5t-13 -24.5q-12 -23 -30.5 -58t-22.5 -42q-81 -153 -137 -292q-31 -74 -40 -117q50 34 89 34q36 0 36 -23q0 -22 -21 -22h-3q-3 1 -6 1q-11 0 -37 -13q-37 -18 -59 -39q-16 -16 -32 -16
q-30 0 -30 40q0 18 10 48q1 4 3 8.5t7.5 19t11.5 31.5q36 96 73 177q79 173 176 343l40 72q20 34 31.5 45.5t27.5 11.5q4 0 18 -6q20 -8 40 -8t48 14q9 5 16 5q8 0 14 -8.5t6 -18.5q0 -18 -17 -28q-30 -15 -82 -15q-32 0 -49 6z" />
    <glyph glyph-name="backslash" unicode="\" horiz-adv-x="404" 
d="M344 -47q0 -34 -19 -34q-20 0 -20 24q-1 3 -1 17l-3 32q0 10 -4 46q-1 11 -3 31q-7 63 -12 116q-8 86 -24 175l-20 114q-7 39 -18 82q-2 10 -4 21l-3 11q-3 13 -3 17q-4 16 -4 18q0 7 6.5 12t14.5 5q9 0 13.5 -6.5t9.5 -24.5l16 -66q1 -3 2.5 -11t3.5 -20t5 -28
q11 -59 18 -101q16 -92 26 -177q1 -8 9 -80q7 -62 9 -88l3 -47q2 -17 2 -38z" />
    <glyph glyph-name="bracketright" unicode="]" horiz-adv-x="403" 
d="M46 -69q1 1 2 4l2 3q2 4 26 48q2 5 7.5 15.5t8.5 15.5l42 80q15 28 74 146q43 84 97 216q21 51 41 109q4 16 6 27q-56 -38 -94 -38q-32 0 -32 24q0 20 26 21q21 1 50 15q14 7 52 38q19 15 29 15q13 0 21.5 -11.5t8.5 -29.5q0 -32 -42 -136q-83 -213 -233 -494
q-50 -94 -72 -116q-14 -13 -25 -13q-7 0 -22 6q-17 7 -39 7q-19 0 -43 -11q-14 -7 -20 -7q-8 0 -15 9t-7 21q0 17 30 29.5t70 12.5q30 0 51 -6z" />
    <glyph glyph-name="asciicircum" unicode="^" horiz-adv-x="367" 
d="M107 152q-25 42 -25 70q0 43 34 74t81 31q25 0 41 -9.5t16 -25.5q0 -10 -7 -18.5t-15 -8.5q-4 0 -22 8q-12 5 -23 5q-25 0 -41.5 -17t-16.5 -42q0 -22 15 -43q41 23 105 72q62 48 91 80q-12 -1 -25 -1q-54 0 -54 19q0 9 12 18t24 9l18 -2q5 -1 16 -1q19 0 41 5
q24 38 47 66q36 45 52 45q14 0 14 -18q0 -20 -31 -66l-10 -17q3 0 7.5 0.5t7.5 1t5 0.5q15 1 32 1q45 0 45 -19q0 -22 -29 -22h-15q-26 0 -55 -5l-26 -3l-14 -2q-32 -42 -44 -59q-15 -20 -40 -67q-22 -38 -31 -68q-11 -31 -11 -41q0 -7 5 -12t12 -5q19 0 49 40q21 27 34 50
q9 16 21 16q13 0 13 -13q0 -15 -21 -47q-67 -107 -122 -107q-19 0 -31 14.5t-12 36.5q0 52 48 142l-17 -12q-8 -6 -37 -24l-42 -28l-13 -9q13 -29 13 -50q0 -43 -36 -75.5t-84 -32.5q-26 0 -41 14.5t-15 39.5q0 52 107 112zM124 116q-27 -12 -48.5 -32.5t-21.5 -33.5
q0 -17 23 -17q21 0 38 17t17 39q0 11 -8 27z" />
    <glyph glyph-name="underscore" unicode="_" horiz-adv-x="500" 
d="M0 -133h500v-60h-500v60z" />
    <glyph glyph-name="grave" unicode="`" horiz-adv-x="244" 
d="M86 503q13 0 28 -21q1 -2 4 -6t8.5 -11t9.5 -13q22 -27 23 -28q18 -22 18 -34q0 -17 -15 -17t-51 46q-44 54 -44 66q0 7 6 12.5t13 5.5zM0 -307z" />
    <glyph glyph-name="a" unicode="a" horiz-adv-x="243" 
d="M107 68q-46 -52 -80 -52q-20 0 -32.5 15t-12.5 38q0 29 18.5 69.5t47.5 76.5q61 75 110 75q21 0 33.5 -12.5t12.5 -32.5q0 -22 -15 -51q9 -12 9 -16q0 -6 -6 -13l-9 -11q-5 -6 -21 -36q-10 -19 -10 -29q0 -18 14 -18t41.5 29.5t50.5 70.5q13 19 23 19q13 0 13 -14
q0 -9 -12 -32t-29 -43q-63 -81 -106 -81q-20 0 -29 11t-11 37zM107 118q-2 6 -3 7q-1 3 -1 5q0 5 17 21q42 40 42 69q0 8 -5 13.5t-12 5.5q-29 0 -71 -56q-45 -61 -45 -98q0 -17 14 -17q26 0 64 50z" />
    <glyph glyph-name="b" unicode="b" horiz-adv-x="240" 
d="M112 258q42 35 74 35q20 0 33.5 -16t13.5 -38q0 -29 -16.5 -70.5t-42.5 -77.5q-70 -98 -130 -98q-29 0 -48 22q-4 -8 -4 -9q-9 -18 -12 -22t-10 -4q-8 0 -15 8t-7 17t12 36l27 63q42 98 100 208q62 117 110 196l35 56q14 22 24 22t17.5 -8t7.5 -19q0 -10 -14 -33l-26 -43
l-40 -63q-50 -78 -89 -162zM15 61q14 -20 31 -20q42 0 89 74q47 70 47 109q0 8 -5.5 14t-13.5 6q-16 0 -40.5 -19t-44.5 -48q-33 -48 -63 -116z" />
    <glyph glyph-name="c" unicode="c" horiz-adv-x="197" 
d="M-19 57q0 38 22.5 85.5t59.5 88.5q67 73 110 73q17 0 27.5 -11t10.5 -30q0 -35 -28 -71q-23 -27 -38 -27q-14 0 -14 15q0 10 16 24q7 7 18 25q7 12 7 16q0 10 -11 10q-9 0 -28 -15t-36 -36q-29 -36 -48 -74.5t-19 -62.5q0 -13 9.5 -22t22.5 -9q31 0 73 38q32 28 60 65
q12 18 22 18q5 0 9.5 -4.5t4.5 -10.5q0 -17 -47 -70q-73 -82 -132 -82q-31 0 -51 19t-20 48z" />
    <glyph glyph-name="d" unicode="d" horiz-adv-x="246" 
d="M213 304l8 14q22 42 40 77q1 2 25 47q13 26 17 32l42 72q24 41 38 41q11 0 18.5 -8.5t7.5 -20.5q0 -9 -18 -37q-32 -50 -65 -108q-56 -100 -98 -183l-35 -70q-5 -11 -15 -31q-9 -17 -10 -21l-9 -26q-2 -4 -2 -9q0 -13 11 -13q16 0 40 29q34 41 51 74q8 18 18 18
q13 0 13 -16q0 -30 -44 -89q-55 -76 -99 -76q-14 0 -23.5 11t-9.5 27q0 4 4 24q-47 -67 -89 -67q-23 0 -37 16t-14 43q0 85 77 181q61 78 123 78q16 0 35 -9zM190 256q-9 8 -20 8q-33 0 -74 -49q-26 -32 -45 -73t-19 -67t20 -26q17 1 40 34q26 34 58 96l33 65z" />
    <glyph glyph-name="e" unicode="e" horiz-adv-x="204" 
d="M51 133q-14 -34 -14 -52q0 -15 10.5 -25.5t26.5 -10.5q28 0 66 28.5t64 67.5q15 24 25 24q6 0 10.5 -4.5t4.5 -10.5q0 -20 -39 -66q-35 -41 -74.5 -65t-71.5 -24q-29 0 -51 21.5t-22 50.5q0 34 20.5 81.5t53.5 87.5q25 32 60.5 53.5t61.5 21.5q17 0 29 -12.5t12 -31.5
q0 -50 -45.5 -96t-95.5 -46q-12 0 -31 8zM74 176q15 -7 24 -7q29 0 60 38q23 28 23 46q0 14 -14 14q-20 0 -50 -33q-17 -18 -43 -58z" />
    <glyph glyph-name="f" unicode="f" horiz-adv-x="220" 
d="M57 232q77 166 146 262q43 63 80 100q22 22 37 22q7 0 12.5 -5t5.5 -12q0 -12 -18 -31q-64 -75 -104 -137q-30 -46 -68 -114q-19 -36 -23 -44l22 8q59 22 87 22q22 0 37.5 -11t15.5 -27q0 -10 -7.5 -17t-17.5 -7q-7 0 -15 4l-18 9q-5 4 -17 4q-48 0 -117 -44
q30 -14 41 -36q17 -31 17 -81q0 -119 -72 -250q-63 -118 -121 -118q-24 0 -38.5 21t-14.5 55q0 52 24 131q28 85 44 119l33 73q2 4 9 24q-3 -1 -7 -1q-14 0 -14 15q0 16 23 36q20 18 38 30zM74 168q-22 -40 -41 -90q-45 -106 -59 -154q-19 -68 -19 -104q0 -14 6.5 -24.5
t16.5 -9.5q30 2 79 101q56 114 56 207q0 32 -8.5 48t-30.5 26z" />
    <glyph glyph-name="g" unicode="g" horiz-adv-x="247" 
d="M141 43q53 39 78 70q17 21 35 47q17 24 18 27q8 12 16 12q12 0 12 -11q0 -12 -19 -44q-59 -95 -173 -163l-8 -18q-61 -125 -96 -170q-54 -70 -101 -70q-25 0 -39.5 15t-14.5 42q0 58 58 113q34 31 70 53q4 2 18 10t30 16q15 9 31 17q2 2 19 11q5 12 6 15l16 32q1 2 11 24
q-30 -30 -48 -42t-37 -12q-16 0 -28 15t-12 36q0 31 22 77t56 88q33 42 69 66t65 24q19 0 31 -11.5t12 -30.5q0 -21 -15 -55q10 -11 10 -16t-4 -10q-11 -13 -43 -68q-25 -42 -45 -89zM138 156q-7 8 -7 11q0 5 7 11q52 49 52 80q0 13 -12 13q-16 0 -44 -25t-54 -61
q-47 -66 -47 -105q0 -18 15 -18q14 0 39.5 26.5t50.5 67.5zM45 -57q-57 -24 -102.5 -70.5t-46.5 -82.5q-1 -7 4.5 -13t13.5 -6q29 0 71 64q14 23 39 68q15 27 21 40z" />
    <glyph glyph-name="h" unicode="h" horiz-adv-x="225" 
d="M74 192q34 26 74 60q39 32 58 32q22 0 22 -22q0 -13 -16 -31q-27 -33 -48.5 -73t-21.5 -59q0 -16 14 -16q13 0 37 25q22 27 35 47l21 30q13 22 24 22q4 0 7.5 -4t3.5 -9q0 -20 -40 -78q-65 -91 -109 -91q-17 0 -28.5 14.5t-11.5 36.5q0 30 12.5 58t47.5 80
q-48 -28 -88 -84q-33 -47 -55 -99q-11 -29 -28 -29q-8 0 -14 5.5t-6 13.5q0 12 6 27l12 36q37 106 104 235q80 157 162 249q55 61 87 61q16 0 25 -10.5t9 -27.5q0 -50 -55 -129q-24 -36 -62 -79.5t-65 -64.5l-74 -60l-2 -2q-2 -1 -5 -4t-6 -5l-6 -12q-13 -28 -20 -43z
M132 317q53 38 102 97q90 106 90 149q0 8 -8 8q-14 0 -46 -36q-73 -79 -138 -218z" />
    <glyph glyph-name="i" unicode="i" horiz-adv-x="110" 
d="M-31 42q0 56 58 142q40 58 58 58q6 0 10.5 -5t4.5 -11q0 -12 -29 -54q-32 -47 -43 -70q-9 -24 -9 -34q0 -13 11 -13q14 0 39.5 27t49.5 67q12 20 22 20q5 0 9 -4.5t4 -10.5q0 -26 -51 -88q-57 -69 -96 -69q-16 0 -27 13.5t-11 31.5zM135 405q0 23 26 49q19 19 34 19
q22 0 22 -22q0 -20 -21 -46q-21 -24 -40 -24q-9 0 -15 7t-6 17z" />
    <glyph glyph-name="j" unicode="j" horiz-adv-x="105" 
d="M-64 -3l10 21l30 63l33 71q35 76 56 110t41 34q8 0 14 -5.5t6 -12.5q0 -10 -14 -30l-15 -20q-18 -25 -54 -98q-30 -60 -42 -91q39 26 64 52t51 66q12 18 22 18q14 0 14 -15q0 -33 -61 -92q-50 -50 -118 -87q-13 -22 -33 -68q-89 -206 -180 -206q-25 0 -41.5 16t-16.5 40
q0 35 29.5 81.5t74.5 80.5q58 44 130 72zM136 404q0 25 26 49q20 20 34 20q10 0 16 -6.5t6 -16.5q0 -21 -21 -45t-40 -24q-21 0 -21 23zM-91 -54q-47 -19 -99 -69q-61 -58 -61 -101q0 -21 19 -21q36 0 82 77q28 47 59 114z" />
    <glyph glyph-name="k" unicode="k" horiz-adv-x="287" 
d="M152 151q-11 -32 -11 -52q0 -23 8.5 -37t22.5 -14q20 0 49 22t56 58l21 27q16 20 26 20q5 0 8.5 -4t3.5 -9q0 -20 -49 -80q-35 -44 -61 -62q-39 -28 -69 -28q-29 0 -46.5 27.5t-17.5 71.5q0 29 10 67q-50 -54 -92 -126q-17 -29 -33 -29q-8 0 -13.5 5.5t-5.5 12.5
q0 9 7 28l19 48q34 88 89.5 187t115.5 179q114 153 174 153q14 0 23.5 -10t9.5 -24q0 -57 -82 -155q-39 -48 -91 -94q-22 -20 -53 -43q-9 -8 -28 -22t-29 -22l-18 -13q-1 -2 -3 -5t-2 -4q-16 -30 -28 -58q43 47 78 75q59 45 104 45q22 0 34 -11t12 -30q0 -36 -37 -65.5
t-83 -29.5q-11 0 -19 1zM135 306q92 63 160 149q51 69 51 93q0 11 -9 11q-31 0 -97 -91q-26 -34 -76 -110q-17 -29 -29 -52zM127 183q15 -3 23 -3q34 0 63.5 15.5t29.5 34.5q0 12 -15 12q-36 0 -101 -59z" />
    <glyph glyph-name="l" unicode="l" horiz-adv-x="190" 
d="M45 107q-3 -14 -3 -25q0 -12 7 -19.5t18 -7.5q26 0 69 38.5t81 96.5q15 23 25 23q13 0 13 -15q0 -11 -21 -45q-46 -68 -98 -111t-88 -43q-24 0 -39 18.5t-15 47.5q0 67 74 215q82 165 171 272q61 73 98 73q26 0 26 -33q0 -52 -55 -152q-57 -105 -154 -219
q-67 -76 -109 -114zM71 179q29 29 72 84q86 111 132 192q40 73 40 98q0 9 -7 9q-17 0 -57 -56q-40 -55 -76 -119q-37 -64 -76 -143q-15 -31 -28 -65z" />
    <glyph glyph-name="m" unicode="m" horiz-adv-x="339" 
d="M69 167l19 18q87 86 117 86q7 0 12.5 -5t5.5 -12q0 -9 -15 -29q-32 -44 -44 -72l14 14q51 49 82 70q38 27 52 27q9 0 16.5 -7.5t7.5 -17.5q0 -11 -17 -28q-34 -33 -62 -77.5t-28 -66.5q0 -17 15 -17t46 31q27 27 45 53q16 24 25 24q5 0 9.5 -4.5t4.5 -10.5q0 -18 -47 -75
q-62 -77 -104 -77q-19 0 -32.5 15t-13.5 37q0 61 58 130q-33 -24 -51 -43q-36 -40 -55 -72l-12 -20q-12 -20 -26 -20q-7 0 -13.5 6t-6.5 14q0 7 5 20l10 27q14 37 40 89q-27 -17 -44 -37q-27 -30 -46 -66l-20 -39q-9 -17 -12 -25q-5 -15 -9.5 -20t-13.5 -5q-10 0 -16.5 7
t-6.5 17q0 14 18 61q34 94 77 164q23 37 36 51t25 14q18 0 18 -20q0 -10 -16 -31q-8 -9 -28 -41q-10 -16 -19 -37z" />
    <glyph glyph-name="n" unicode="n" horiz-adv-x="219" 
d="M56 147q4 4 9 9.5t6 6.5q47 52 83 80q35 28 53 28q9 0 17 -7.5t8 -15.5q0 -11 -23 -34q-28 -27 -49 -64t-21 -60q0 -6 4 -10.5t9 -4.5q12 0 35 24q16 18 33 45l18 27q10 17 22 17q5 0 9.5 -4t4.5 -9q0 -10 -16 -38q-32 -54 -66.5 -85.5t-60.5 -31.5q-18 0 -29.5 14.5
t-11.5 36.5q0 42 36 100q-49 -37 -76 -72.5t-50 -94.5q-7 -20 -23 -20q-10 0 -16.5 7t-6.5 16q0 12 17 57q36 93 79 161q26 39 37 51t21 12q18 0 18 -19q0 -12 -17 -34q-31 -37 -53 -88z" />
    <glyph glyph-name="o" unicode="o" horiz-adv-x="208" 
d="M188 166q-81 -171 -158 -171q-23 0 -36.5 16.5t-13.5 43.5q0 47 27 104.5t70 100.5q55 56 97 56q41 0 41 -47q0 -34 -13 -68q-1 -3 -12 -19q-4 -4 -4 -9q0 -1 2 -7zM124 132q-13 10 -12 15q0 4 5 9l10 12q42 47 44 80q1 6 -3.5 10.5t-10.5 4.5q-12 0 -34 -18.5t-44 -47.5
t-36.5 -64t-14.5 -58q0 -25 20 -25q19 0 40 23t36 59z" />
    <glyph glyph-name="p" unicode="p" horiz-adv-x="237" 
d="M119 261q44 27 68 27q43 0 43 -50q0 -66 -68 -153q-66 -84 -128 -84q-22 0 -43 16q-15 -26 -45 -94l-32 -74q-21 -46 -43 -107q-10 -34 -26 -34q-7 0 -13.5 8t-6.5 17q0 13 7 28l18 48q24 65 94 212q70 148 134 254q18 29 25 43q17 32 33 32q7 0 12 -6t5 -14
q0 -12 -12 -31l-12 -20zM9 58q11 -11 28 -11q43 0 99 80q42 61 42 99q0 18 -17 18q-21 0 -55 -32t-61 -87l-27 -51z" />
    <glyph glyph-name="q" unicode="q" horiz-adv-x="236" 
d="M106 55q-46 -57 -80 -57q-19 0 -31.5 15.5t-12.5 39.5q0 40 24 91.5t64 98.5q63 72 112 72q46 0 46 -50q0 -3 -2 -15q15 -4 15 -14q0 -6 -9 -23q-3 -5 -29 -56q-14 -29 -40 -88l-40 -89q-49 -108 -75 -183q-1 -3 -6.5 -19t-10.5 -30l-9 -30q-8 -34 -26 -34q-9 0 -15 7.5
t-6 18.5q0 20 29 101q27 73 65 160l26 57q0 1 1.5 4.5t4.5 10t5 12.5zM132 135q-2 4 -2 10q0 12 17 28q33 33 33 74q0 10 -4 15.5t-11 4.5q-24 0 -77 -69q-22 -30 -39 -67t-19 -59q0 -21 20 -21q16 0 38 22.5t44 61.5z" />
    <glyph glyph-name="r" unicode="r" horiz-adv-x="224" 
d="M67 162q44 46 110 100q52 40 65 40q7 0 14 -11q5 -5 5 -10q0 -9 -19 -24q-50 -41 -50 -60q0 -11 13 -11q21 0 72 34q9 6 15 6q4 0 8 -4t4 -9q0 -15 -41 -45q-43 -32 -82 -32q-40 0 -40 33q0 10 11 28q-37 -28 -75.5 -75t-61.5 -92l-14 -28q-11 -23 -28 -23q-18 0 -18 17
q0 13 13 50q46 124 88 185q40 57 62 57q18 0 18 -16q0 -9 -13 -26l-22 -27q-22 -28 -34 -57z" />
    <glyph glyph-name="s" unicode="s" horiz-adv-x="239" 
d="M60 202q0 47 50 85t112 38q61 0 61 -43q0 -49 -48 -80q-40 -25 -73 -25q-20 0 -20 18q0 16 18 21l27 6q19 4 32.5 16t13.5 25q0 20 -23 20q-29 0 -63 -23q-39 -26 -39 -61q0 -25 26 -64q28 -41 28 -70q0 -34 -26.5 -58t-64.5 -24q-39 0 -63.5 25t-24.5 65q0 30 14 55.5
t31 25.5q13 0 13 -10q0 -4 -5 -12q-11 -20 -11 -49q0 -22 15.5 -38.5t36.5 -16.5q17 0 27.5 11t10.5 28q0 22 -23 54q-32 45 -32 81z" />
    <glyph glyph-name="t" unicode="t" horiz-adv-x="164" 
d="M147 316q-40 -64 -68.5 -134t-28.5 -106q0 -26 20 -26q25 0 60 46q19 26 38 57q9 16 21 16q5 0 9.5 -4t4.5 -9q0 -9 -18 -38q-73 -118 -132 -118q-23 0 -37.5 18t-14.5 47q0 47 20 103q9 26 24 57q4 6 16 32l11 22l9 18q-13 -4 -20 -4q-12 0 -20.5 7t-8.5 15t6.5 14.5
t15.5 7.5l28 4q5 1 34 9q16 28 56 84q22 31 32 40.5t18 9.5q7 0 13 -6.5t6 -13.5q0 -13 -27 -50q-19 -25 -27 -39q57 15 77 15q27 0 27 -23q0 -11 -7 -15.5t-27 -5.5q-32 -5 -110 -30z" />
    <glyph glyph-name="u" unicode="u" horiz-adv-x="249" 
d="M129 95q-25 -40 -44.5 -56t-42.5 -16q-20 0 -34 16.5t-14 41.5q0 36 21 85t55 91q21 27 42 46q13 12 23 12q7 0 13 -5.5t6 -13.5q0 -10 -16 -27q-36 -38 -64.5 -91t-28.5 -82q0 -16 13 -16q22 0 50 38q16 20 39 54q3 5 9.5 14t9.5 13q11 16 12 18l26 40q20 29 38 29
q16 0 16 -16q0 -12 -21 -44q-70 -99 -70 -147q0 -6 3.5 -10.5t8.5 -4.5q21 0 48 44l21 33q10 15 13 21q9 19 20 19q13 0 13 -13q0 -7 -5 -15l-10 -20q-63 -127 -116 -127q-19 0 -31 13.5t-12 34.5q0 17 9 41z" />
    <glyph glyph-name="v" unicode="v" horiz-adv-x="213" 
d="M158 135l-7 -13q-25 -43 -59 -80q-42 -45 -71 -45q-17 0 -29 16t-12 39q0 34 28 93q9 21 41 84q12 18 16 29q7 18 13 24t14 6q6 0 11 -5.5t5 -13.5q0 -21 -25 -68l-15 -30q-14 -25 -29 -61q-10 -21 -10 -38q0 -16 12 -16q17 0 43.5 32.5t51.5 84.5v18q0 42 17.5 70.5
t42.5 28.5q18 0 18 -21q0 -18 -12 -49q-4 -12 -22 -47q12 -2 14 -2q18 0 43 20q21 17 27 17q5 0 10.5 -6t5.5 -11q0 -22 -30 -43t-59 -21q-17 0 -33 8z" />
    <glyph glyph-name="w" unicode="w" horiz-adv-x="335" 
d="M148 138l-15 -21q-29 -40 -61 -73q-41 -41 -66 -41q-15 0 -25 13t-10 33q0 53 64 147q57 84 85 84q8 0 13.5 -6t5.5 -13q0 -12 -19 -30q-32 -32 -64 -81t-32 -66q0 -9 10 -9q17 0 54 40q28 30 72 87q36 44 39 47q12 11 25 11q21 0 21 -15q0 -6 -8 -20l-15 -29l-20 -36
q-33 -59 -33 -90q0 -14 10 -14q14 0 35.5 24.5t42.5 63.5q32 58 44 117q9 47 38 47q17 0 17 -18q0 -63 -71 -176q-75 -117 -124 -117q-38 0 -38 47q0 43 25 94z" />
    <glyph glyph-name="x" unicode="x" horiz-adv-x="245" 
d="M152 199l14 16l24 27q52 58 70 58q12 0 12 -17q0 -14 -27 -38l-22 -21q-35 -31 -69 -81q-2 -11 -2 -25l1 -20q0 -38 18 -38q14 0 41 36q30 40 38 54q12 23 24 23t12 -12q0 -24 -47 -88q-54 -74 -90 -74q-22 0 -31.5 20t-11.5 72q-6 -8 -12 -14l-35 -46q-37 -47 -53 -47
q-6 0 -11 7t-5 17t4.5 16t26.5 26q23 20 52 54l25 31l8 8v15v32v22v18q-29 -29 -70 -91q-17 -29 -28 -29q-5 0 -10 5.5t-5 11.5q0 15 42 74q42 57 62.5 77t36.5 20q21 0 21 -25q0 -12 -1 -20v-12q-1 -12 -1 -23t-1 -19z" />
    <glyph glyph-name="y" unicode="y" horiz-adv-x="271" 
d="M160 138q-59 -69 -93 -97t-61 -28q-15 0 -25 10t-10 26q0 52 63 141q31 43 62 73q17 16 30 16q8 0 13.5 -6t5.5 -14q0 -14 -16 -32l-21 -22q-8 -8 -38 -44q-41 -52 -41 -74q0 -11 10 -11q15 0 46 28q21 18 48.5 47t39.5 45l26 36l21 28q23 33 40 33q8 0 14 -6.5t6 -15.5
q0 -14 -19 -47q-22 -38 -43 -75q-31 -55 -47 -98q33 19 57 44q41 41 53 65q9 20 19 20q14 0 14 -14q0 -24 -44 -77q-53 -60 -129 -104q-39 -92 -78 -164q-69 -119 -141 -119q-27 0 -44.5 19t-17.5 48q0 58 56 112q41 42 110 83l55 32q1 0 3 1.5t6 4t8 4.5q10 24 27 60
q21 40 35 72zM71 -54q-34 -17 -55 -34q-59 -42 -83 -76q-23 -33 -23 -58t25 -25q22 0 46 27q26 30 48 75l33 74q4 8 9 17z" />
    <glyph glyph-name="z" unicode="z" horiz-adv-x="229" 
d="M48 57q43 16 78 16q57 0 57 -29q0 -9 -7 -16t-16 -7q-7 0 -22 4q-10 3 -21 3q-40 0 -78 -18q-28 -13 -35 -13q-11 0 -19 7t-8 16q0 21 47 80q72 89 152 153l-16 -2q-36 -4 -57 -4q-47 0 -47 27q0 21 19 21q1 0 25 -4q5 -1 25 -1q45 0 81 9q15 3 25 3q11 0 19.5 -7
t8.5 -17q0 -16 -27 -35q-14 -10 -64 -52q-75 -63 -120 -134z" />
    <glyph glyph-name="braceleft" unicode="{" 
d="M33 667h334v-667h-334v667zM40 7h320v653h-320v-653z" />
    <glyph glyph-name="bar" unicode="|" 
d="M33 667h334v-667h-334v667zM40 7h320v653h-320v-653z" />
    <glyph glyph-name="braceright" unicode="}" 
d="M33 667h334v-667h-334v667zM40 7h320v653h-320v-653z" />
    <glyph glyph-name="asciitilde" unicode="~" horiz-adv-x="411" 
d="M320 409q35 58 94 120q65 71 106 71q13 0 22.5 -10t9.5 -24q0 -26 -23.5 -69.5t-60.5 -88.5q37 -3 37 -24q0 -23 -25 -23q-1 0 -3.5 0.5t-3.5 0.5l-24 4q-1 0 -6.5 0.5t-10.5 0.5q-30 -32 -42 -44l-46 -46q-19 -19 -35 -33l-53 -48l-14 -14l-27 -58q46 43 87 73
q34 24 56 36q22 13 34 13q8 0 13.5 -6t5.5 -13q0 -14 -20 -30q-36 -32 -63 -75t-27 -68q0 -16 14 -16q27 0 79 74q22 30 28 36t14 6q11 0 11 -10q0 -18 -43 -73q-60 -83 -111 -83q-19 0 -30.5 13t-11.5 33q0 45 46 111q-43 -23 -81 -66q-22 -25 -56 -84q-11 -21 -25 -21
q-18 0 -18 22q0 16 10 50q3 6 6 19q-3 -3 -7.5 -7t-5.5 -5l-28 -26q-29 -27 -59 -27q-18 0 -29.5 14.5t-11.5 36.5q0 70 82 208q4 6 11.5 19t10.5 19q14 24 24 43q-4 -1 -8.5 -2.5t-6.5 -1.5q-9 -3 -18 -5t-13.5 -3.5t-5.5 -1.5q-15 -5 -25 -5q-13 0 -13 13q0 24 42 37
q32 10 55 15q16 4 26 5q22 39 50 72q31 38 46 38t15 -17t-28 -52l-16 -21q-2 -2 -8 -11q31 4 82 8zM425 412l14 17q3 5 9.5 13.5t9.5 12.5q13 17 13 18l20 32q10 14 10 21q0 10 -9 10q-15 0 -46 -31q-51 -51 -78 -93q11 1 24 1q16 0 33 -1zM387 369q-7 0 -15 0.5t-13 0.5
q-9 0 -17 -1l-7 -12q-28 -45 -57 -102l18 18q12 12 27 27.5t18 18.5l33 35zM290 366q-48 -2 -113 -14l-8 -13q-55 -86 -89 -160q-33 -70 -33 -99q0 -18 16 -18q18 0 55 31q18 15 51 49q11 24 32 64q7 13 16 31t13 25q7 13 23 41l30 49z" />
    <glyph glyph-name="nbspace" unicode="&#xa0;" horiz-adv-x="192" 
 />
    <glyph glyph-name="exclamdown" unicode="&#xa1;" horiz-adv-x="284" 
d="M331 498q0 -19 -22 -51q-36 -55 -64 -103l-39 -66q-6 -10 -25 -45q-7 -12 -17 -30l-34 -63q-24 -44 -36 -65q-5 -9 -11.5 -20.5t-7.5 -14.5l-11 -22q-10 -22 -26 -22q-10 0 -16 7t-6 18q0 19 29 76q4 7 18 33t29 54q64 114 91 160q34 59 79 129q16 25 20 33q13 24 25 24
q10 0 17 -9.5t7 -22.5zM402 651q0 -25 -15.5 -50t-31.5 -25q-10 0 -16.5 7.5t-6.5 18.5q0 29 14.5 52t32.5 23q23 0 23 -26z" />
    <glyph glyph-name="cent" unicode="&#xa2;" horiz-adv-x="329" 
d="M254 383q3 7 6 13l11 18q16 28 29 28q15 0 15 -12q0 -8 -16 -33l-7 -11q-2 -2 -5 -8q34 -15 34 -52q0 -41 -25 -68q-23 -25 -41 -25q-15 0 -15 14q0 10 14 20q25 18 25 50q0 16 -15 21l-10 -16q-39 -62 -48 -79l-55 -101q-1 -2 -12 -23q40 4 70 21q47 30 68 51
q17 17 26 17q14 0 14 -11q0 -24 -62 -70q-69 -51 -129 -51h-8q-3 -7 -6 -13l-17 -33l-10 -23q-15 -30 -28 -30q-5 0 -9 4.5t-4 9.5q0 6 10 27q9 22 17 35l8 16q3 6 6 13q-45 16 -45 66q0 45 31 97t81 92q50 39 102 46zM226 337q-41 -17 -87 -71q-48 -56 -48 -105
q0 -21 17 -34l9 18l47 85l52 89q5 10 10 18z" />
    <glyph glyph-name="sterling" unicode="&#xa3;" horiz-adv-x="409" 
d="M252 294q10 3 15 3l40 10q22 5 38 5q21 0 34 -8.5t13 -22.5q0 -9 -6 -16t-13 -7q-5 0 -17 3q-12 2 -21 2q-26 0 -86 -16q-3 -1 -9.5 -2.5t-11.5 -2.5q-17 -45 -51 -113q-28 -53 -63 -97q102 35 168 35q19 0 32 -8t13 -20q0 -10 -9.5 -18.5t-19.5 -8.5l-33 2
q-32 0 -88 -13q-54 -11 -124 -38l-28 -11q-15 -5 -27 -5q-11 0 -18 6t-7 16q0 21 32 39q63 36 92 84q42 67 71 138q-14 -2 -16 -2q-30 -5 -49 -5q-34 0 -34 23q0 11 8 19.5t18 8.5q7 0 12 -1q16 -2 22 -2q32 0 62 8l9 18l29 58q46 90 91.5 128t108.5 38q43 0 43 -27
q0 -8 -6 -14.5t-14 -6.5q-1 0 -3 0.5t-5.5 1t-7.5 0.5q-3 1 -11 1q-41 0 -71 -24q-62 -52 -102 -158z" />
    <glyph glyph-name="currency" unicode="&#xa4;" horiz-adv-x="252" 
d="M127 76q-33 -45 -53 -61.5t-40 -16.5q-21 0 -34 16t-13 41q0 63 54 145q49 74 80 74q7 0 12.5 -5.5t5.5 -11.5q0 -8 -18 -30q-40 -48 -62 -89q-24 -50 -24 -74q0 -14 12 -14q22 0 61 58q29 44 39 71l9 24q9 27 23 44t27 17q7 0 13 -7t6 -15q0 -11 -14 -42q-2 -5 -9 -18
t-10 -19q-23 -41 -23 -71q0 -45 26 -61l17 -9q10 -6 10 -20q0 -9 -7.5 -15.5t-18.5 -6.5q-18 0 -34.5 12t-24.5 29q-7 19 -10 55z" />
    <glyph glyph-name="yen" unicode="&#xa5;" horiz-adv-x="382" 
d="M184 238q-4 -1 -8 -1l-16 -3q-33 -4 -49 -4q-34 0 -34 22q0 11 8 20t18 9q7 0 12 -1q16 -2 22 -2q20 0 44 4q-26 149 -46 208q-7 22 -7 24q0 9 8 15.5t19 6.5q14 0 21.5 -10.5t16.5 -41.5q26 -91 34 -186q11 21 29 45l41 59q16 22 40 52l37 47q25 32 37 32q8 0 14.5 -8.5
t6.5 -19.5q0 -18 -18 -41q-5 -6 -10 -13t-11 -15l-9 -12l-66 -88l-10 -13l-11 -14q8 2 9 2q26 7 47 7q47 0 47 -31q0 -9 -5.5 -15.5t-13.5 -6.5q-5 0 -17 3q-12 2 -21 2q-26 0 -55 -8q-26 -7 -32 -8l-6 -9q-21 -32 -27 -42q4 1 9.5 2.5t6.5 1.5q37 9 55 9q21 0 33.5 -8.5
t12.5 -22.5q0 -9 -5.5 -16t-13.5 -7q-5 0 -17 3q-12 2 -22 2q-23 0 -58 -9q-3 -1 -27 -7l-4 -8q-12 -27 -27 -63q-5 -11 -25 -58q-11 -29 -15 -40q-10 -32 -19.5 -44t-23.5 -12q-23 0 -23 23q0 17 20 70q22 60 50 110l4 9l-13 -3q-31 -5 -57 -5q-34 0 -34 22q0 11 8.5 20
t18.5 9q7 0 12 -1q16 -2 22 -2q34 0 70 10l2 4q1 2 4.5 8.5t5.5 10.5q7 12 11 21v6z" />
    <glyph glyph-name="section" unicode="&#xa7;" 
d="M33 667h334v-667h-334v667zM40 7h320v653h-320v-653z" />
    <glyph glyph-name="dieresis" unicode="&#xa8;" horiz-adv-x="317" 
d="M67 416q0 25 26 49q19 19 33 19q10 0 16.5 -6t6.5 -16q0 -21 -22 -45q-21 -24 -39 -24q-21 0 -21 23zM169 416q0 25 26 49q19 19 33 19q10 0 16.5 -6t6.5 -16q0 -21 -22 -45q-21 -24 -39 -24q-21 0 -21 23zM0 -307z" />
    <glyph glyph-name="copyright" unicode="&#xa9;" 
d="M33 667h334v-667h-334v667zM40 7h320v653h-320v-653z" />
    <glyph glyph-name="ordfeminine" unicode="&#xaa;" horiz-adv-x="491" 
d="M218 177q61 22 111 66q31 26 43 26q7 0 13 -5.5t6 -12.5q0 -11 -19 -27q-4 -3 -25 -26l-22 -25q-17 -19 -31.5 -48.5t-14.5 -44.5t12 -15q23 0 68 57q12 15 46 63q30 40 42 61q19 30 35 30q8 0 14.5 -5.5t6.5 -12.5q0 -11 -18 -35q-83 -111 -83 -152q0 -15 13 -15
q14 0 41 34q29 37 43 60q10 18 21 18q15 0 15 -14q0 -12 -21 -46q-33 -49 -51 -68q-38 -41 -70 -41q-16 0 -27 13t-11 33q0 7 3 27q-15 -13 -18 -17q-48 -45 -71 -45q-17 0 -28.5 14.5t-11.5 35.5t7.5 40t31.5 62q-39 -24 -75 -34q-1 -3 -3.5 -7t-2.5 -5q-1 -1 -2.5 -5
t-5.5 -11.5t-9 -18.5q-5 -14 -11 -24l-35 -75q0 -1 -1 -3t-3 -6.5t-4.5 -10.5t-7 -16.5t-9.5 -22.5q-47 -110 -59 -145q-16 -42 -19 -58q-10 -34 -28 -34q-8 0 -15 7.5t-7 17.5q0 7 5 24l10 32q8 25 45 111q9 22 17 40.5t14.5 33.5t9.5 21q23 47 36 79q-31 -33 -46.5 -43
t-32.5 -10q-20 0 -32 14.5t-12 39.5q0 39 24.5 91t63.5 97q65 74 116 74q20 0 31.5 -13.5t11.5 -36.5v-17q15 -6 15 -14q0 -2 -3 -8l-7 -14l-12 -21q0 -1 -1 -3t-3 -5.5t-3 -5.5zM135 134q-2 8 -2 9q0 13 18 29q13 12 23.5 35t10.5 40q0 20 -16 20q-12 0 -34 -20t-44 -50
q-24 -33 -41 -70t-17 -56q0 -8 5.5 -14t13.5 -6q34 0 83 83z" />
    <glyph glyph-name="guillemotleft" unicode="&#xab;" horiz-adv-x="356" 
d="M80 154q0 28 35 61q31 30 47 30q10 0 18 -7.5t8 -15.5q0 -11 -24 -30q-28 -21 -28 -36q0 -12 12 -33q12 -20 12 -28q0 -10 -9 -18.5t-19 -8.5q-20 0 -37 35q-15 33 -15 51zM188 154q0 28 35 61q31 30 47 30q10 0 18 -7.5t8 -15.5q0 -11 -24 -30q-28 -21 -28 -36
q0 -12 12 -33q12 -20 12 -28q0 -10 -9 -18.5t-19 -8.5q-20 0 -37 35q-15 33 -15 51z" />
    <glyph glyph-name="logicalnot" unicode="&#xac;" horiz-adv-x="207" 
d="M72 169q9 9 12 11q47 46 77 69q42 31 59 31q19 0 19 -20q0 -15 -17 -36q-93 -109 -93 -191q0 -27 15 -52q7 -12 7 -17q0 -7 -7 -13t-14 -6q-20 0 -34 24.5t-14 60.5q0 64 50 145q-41 -29 -66 -61q-23 -28 -38 -55q0 -1 -2.5 -5t-7 -12t-9.5 -17q-14 -26 -31 -26
q-9 0 -15 6.5t-6 16.5q0 15 29 75q33 69 68 127q29 51 45 51q8 0 14 -6.5t6 -14.5q0 -12 -14 -31q-18 -26 -33 -54z" />
    <glyph glyph-name="registered" unicode="&#xae;" 
d="M33 667h334v-667h-334v667zM40 7h320v653h-320v-653z" />
    <glyph glyph-name="macron" unicode="&#xaf;" horiz-adv-x="317" 
d="M60 245q28 58 55 106q63 112 116 179l42 53q27 35 46 35q9 0 15.5 -6t6.5 -14q0 -9 -18 -27q-7 -7 -53 -66q-55 -68 -104 -155q-38 -71 -48 -91q-12 -25 -16 -33q23 -5 32 -5q50 0 93 35q23 18 51 57q-13 -1 -32 -1q-25 0 -25 19q0 9 6 16t14 7q4 0 7 -1h13q25 0 49 6
q22 37 53 80q22 30 31.5 39.5t19.5 9.5q7 0 12.5 -5.5t5.5 -13.5q0 -11 -14 -28q-1 -1 -6 -8t-11.5 -16.5t-11.5 -16.5q-6 -9 -15 -24q6 2 12 3.5t9.5 3t5.5 1.5l35 8q20 4 27 4q18 0 18 -15q0 -25 -53 -34q-36 -6 -71 -16l-16 -4q-42 -64 -69 -127q-36 -82 -36 -116
q0 -16 13 -16q24 0 65 72q15 29 21.5 36t14.5 7q13 0 13 -13q0 -26 -48 -91q-53 -73 -90 -73q-36 0 -36 60q0 67 42 152q-38 -29 -89 -38q15 -46 15 -98q0 -104 -47 -227q-33 -88 -70 -135t-73 -47q-28 0 -45.5 27.5t-17.5 72.5q0 99 59 253q27 70 76 172q-36 15 -36 36
q0 9 9 16t20 7q7 0 20 -7zM80 179q-22 -46 -48 -108q-82 -199 -82 -296q0 -39 25 -39q17 0 39 29.5t44 79.5q25 58 41.5 123t16.5 109q0 38 -10 68q-7 17 -26 34z" />
    <glyph glyph-name="degree" unicode="&#xb0;" 
d="M33 667h334v-667h-334v667zM40 7h320v653h-320v-653z" />
    <glyph glyph-name="plusminus" unicode="&#xb1;" horiz-adv-x="252" 
d="M129 82q-50 -86 -93 -86q-23 0 -37 18t-14 47q0 83 72 175q62 79 121 79q20 0 33.5 -11t13.5 -27q0 -10 -8 -29q7 -11 7 -18q0 -12 -14 -34q-17 -29 -30 -69.5t-13 -62.5q0 -30 20 -38l12 -6q13 -6 13 -20q0 -10 -7 -16t-17 -6q-25 0 -43 20.5t-18 49.5q0 21 2 34z
M190 242q-13 21 -28 21q-37 0 -80 -64q-48 -72 -48 -122q0 -11 5.5 -18.5t13.5 -6.5q24 2 54 50q21 35 22 37q2 3 3.5 6.5t6.5 13.5t12 23q15 32 22 42t17 18z" />
    <glyph glyph-name="acute" unicode="&#xb4;" horiz-adv-x="244" 
d="M158 503q7 0 13 -5.5t6 -12.5q0 -12 -44 -66q-23 -28 -32.5 -37t-18.5 -9q-16 0 -16 17q0 11 19 34q1 1 23 28q4 6 9.5 13t8.5 11t4 6q14 21 28 21zM0 -307z" />
    <glyph glyph-name="mu" unicode="&#xb5;" horiz-adv-x="275" 
d="M80 187q36 53 78.5 84t79.5 31q22 0 37.5 -15t15.5 -38q0 -44 -41 -83q-45 -42 -114 -42q-21 0 -35 5q-13 -26 -13 -43q0 -18 10.5 -29t26.5 -11q54 0 131 82q17 17 25 17q5 0 9.5 -3.5t4.5 -8.5q0 -17 -45 -62q-74 -71 -137 -71q-35 0 -54.5 20t-19.5 57q0 29 17 68
q-39 24 -39 46q0 8 6.5 15.5t14.5 7.5q6 0 16 -8l15 -12l1 -1l5 -2.5t5 -3.5zM123 169q18 -3 31 -3q31 0 61 23t30 47q0 19 -22 19q-20 0 -50.5 -26.5t-49.5 -59.5z" />
    <glyph glyph-name="paragraph" unicode="&#xb6;" 
d="M33 667h334v-667h-334v667zM40 7h320v653h-320v-653z" />
    <glyph glyph-name="periodcentered" unicode="&#xb7;" horiz-adv-x="207" 
d="M85 208q0 26 15.5 51t31.5 25q10 0 16.5 -7.5t6.5 -18.5q0 -28 -15 -51.5t-32 -23.5q-23 0 -23 25z" />
    <glyph glyph-name="cedilla" unicode="&#xb8;" 
d="M33 667h334v-667h-334v667zM40 7h320v653h-320v-653z" />
    <glyph glyph-name="ordmasculine" unicode="&#xba;" horiz-adv-x="404" 
d="M66 237q-3 13 -3 23q0 28 22 53q37 47 64 47q17 0 17 -19q0 -25 -34 -64q3 0 8 0.5t6 0.5q17 3 26 3q11 0 18.5 -6.5t7.5 -16.5q0 -11 -18 -38l-21 -29q-30 -43 -45 -76t-15 -44q0 -5 4.5 -9t9.5 -4q14 0 37 26q28 31 57 78l40 64q1 1 9 14q-6 20 -6 27q0 31 25 60t51 29
q17 0 17 -17q0 -22 -30 -66q11 -2 23 -2q9 0 15 1q4 0 9.5 0.5t7.5 0.5q27 0 27 -23q0 -11 -15 -32q-2 -2 -16 -23q-24 -35 -35 -60q-17 -39 -17 -52q0 -6 5 -11t10 -5q14 0 39.5 28t54.5 76q14 23 24 23q5 0 9 -4.5t4 -9.5q0 -11 -20 -44q-74 -125 -132 -125
q-20 0 -33.5 15t-13.5 37q0 45 68 157q-16 1 -31 4q-6 0 -10 1l-10 -15l-37 -62q-96 -153 -152 -153q-18 0 -30.5 14.5t-12.5 35.5q0 37 42 107l32 53l2 2q1 2 3.5 6.5t4.5 8.5q-3 0 -6.5 0.5t-4.5 0.5h-14q-1 1 -8 1q-5 -6 -30 -44q-45 -69 -61 -69q-5 0 -10 5t-5 11
q0 8 12 23q7 8 13.5 16.5t10 12.5t4.5 5l28 41q3 3 9 12z" />
    <glyph glyph-name="guillemotright" unicode="&#xbb;" horiz-adv-x="356" 
d="M289 173q0 -29 -35 -62q-31 -30 -46 -30q-10 0 -18.5 7.5t-8.5 16.5q0 12 25 29q27 21 27 36q0 12 -12 33q-12 22 -12 28q0 10 9 18.5t19 8.5q20 0 37 -35q15 -32 15 -50zM181 173q0 -29 -35 -62q-31 -30 -46 -30q-10 0 -18.5 7.5t-8.5 16.5q0 12 25 29q27 21 27 36
q0 12 -12 33q-12 22 -12 28q0 10 9 18.5t19 8.5q20 0 37 -35q15 -32 15 -50z" />
    <glyph glyph-name="questiondown" unicode="&#xbf;" horiz-adv-x="399" 
d="M407 453q0 -32 -37 -86q-41 -61 -162 -146q-66 -46 -84 -64q-39 -39 -39 -76q0 -20 14.5 -32.5t37.5 -12.5q73 0 161 90q30 30 43 30q7 0 12.5 -6t5.5 -13q0 -30 -59 -78q-80 -64 -156 -64q-42 0 -71.5 26t-29.5 63q0 48 47 97q33 37 110 93q67 50 86 69q35 37 52 72
l16 32q10 24 32 24q21 0 21 -18zM456 650q0 -26 -15.5 -51t-31.5 -25q-10 0 -16.5 7.5t-6.5 18.5q0 28 15 51.5t32 23.5q23 0 23 -25z" />
    <glyph glyph-name="Agrave" unicode="&#xc0;" horiz-adv-x="415" 
d="M326 271q-111 -24 -186 -52q-50 -74 -98 -158l-26 -45q-18 -30 -21 -36q-16 -26 -33 -26q-9 0 -15.5 6.5t-6.5 15.5t16 41q36 62 60 101l35 55q1 1 11 18q-27 -8 -54 -19q-9 -5 -19 -5q-19 0 -19 22q0 18 22 28q24 11 58 21q32 10 58 22q2 2 4 5t3.5 4.5l2.5 2.5l1 2
l43 60q7 10 37 47q105 126 180 200q33 33 48 43.5t28 10.5q12 0 21 -9t9 -22t-13 -48q-25 -62 -45 -128q-21 -68 -26 -93h12q10 1 24 1q28 0 28 -21q0 -13 -8.5 -22t-21.5 -9h-6h-7q-23 0 -35 -4q-6 -20 -16 -66q-1 -5 -4.5 -21.5t-7 -35t-7.5 -38.5q-5 -40 -7 -54
q-4 -27 -6 -42q-2 -24 -2 -26v-2v-8v-6q0 -29 -20 -29q-34 0 -34 50q0 65 25 181q4 20 18 88zM339 324q3 8 6 17l17 59q2 7 13 38q2 4 5 13t4 13q7 19 14.5 38t7.5 20l7 21q-33 -23 -64 -56q-51 -53 -116 -136q-22 -27 -47 -67q18 5 21 5l57 17q22 6 58 14zM419 808
q13 0 28 -21l22 -30q22 -27 23 -28q18 -22 18 -34q0 -17 -15 -17t-51 46q-44 54 -44 66q0 7 6 12.5t13 5.5zM333 -2z" />
    <glyph glyph-name="Aacute" unicode="&#xc1;" horiz-adv-x="415" 
d="M326 271q-111 -24 -186 -52q-50 -74 -98 -158l-26 -45q-18 -30 -21 -36q-16 -26 -33 -26q-9 0 -15.5 6.5t-6.5 15.5t16 41q36 62 60 101l35 55q1 1 11 18q-27 -8 -54 -19q-9 -5 -19 -5q-19 0 -19 22q0 18 22 28q24 11 58 21q32 10 58 22q2 2 4 5t3.5 4.5l2.5 2.5l1 2
l43 60q7 10 37 47q105 126 180 200q33 33 48 43.5t28 10.5q12 0 21 -9t9 -22t-13 -48q-25 -62 -45 -128q-21 -68 -26 -93h12q10 1 24 1q28 0 28 -21q0 -13 -8.5 -22t-21.5 -9h-6h-7q-23 0 -35 -4q-6 -20 -16 -66q-1 -5 -4.5 -21.5t-7 -35t-7.5 -38.5q-5 -40 -7 -54
q-4 -27 -6 -42q-2 -24 -2 -26v-2v-8v-6q0 -29 -20 -29q-34 0 -34 50q0 65 25 181q4 20 18 88zM339 324q3 8 6 17l17 59q2 7 13 38q2 4 5 13t4 13q7 19 14.5 38t7.5 20l7 21q-33 -23 -64 -56q-51 -53 -116 -136q-22 -27 -47 -67q18 5 21 5l57 17q22 6 58 14zM552 811
q7 0 13 -5.5t6 -12.5q0 -12 -44 -66q-23 -28 -32.5 -37t-18.5 -9q-16 0 -16 17q0 11 19 34q1 1 23 28l22 30q14 21 28 21zM394 1z" />
    <glyph glyph-name="Acircumflex" unicode="&#xc2;" horiz-adv-x="415" 
d="M326 271q-111 -24 -186 -52q-50 -74 -98 -158l-26 -45q-18 -30 -21 -36q-16 -26 -33 -26q-9 0 -15.5 6.5t-6.5 15.5t16 41q36 62 60 101l35 55q1 1 11 18q-27 -8 -54 -19q-9 -5 -19 -5q-19 0 -19 22q0 18 22 28q24 11 58 21q32 10 58 22q2 2 4 5t3.5 4.5l2.5 2.5l1 2
l43 60q7 10 37 47q105 126 180 200q33 33 48 43.5t28 10.5q12 0 21 -9t9 -22t-13 -48q-25 -62 -45 -128q-21 -68 -26 -93h12q10 1 24 1q28 0 28 -21q0 -13 -8.5 -22t-21.5 -9h-6h-7q-23 0 -35 -4q-6 -20 -16 -66q-1 -5 -4.5 -21.5t-7 -35t-7.5 -38.5q-5 -40 -7 -54
q-4 -27 -6 -42q-2 -24 -2 -26v-2v-8v-6q0 -29 -20 -29q-34 0 -34 50q0 65 25 181q4 20 18 88zM339 324q3 8 6 17l17 59q2 7 13 38q2 4 5 13t4 13q7 19 14.5 38t7.5 20l7 21q-33 -23 -64 -56q-51 -53 -116 -136q-22 -27 -47 -67q18 5 21 5l57 17q22 6 58 14zM408 726
q0 15 23 25l23 11q36 16 51 16q14 0 40 -31q25 -32 25 -47q0 -7 -6.5 -13.5t-14.5 -6.5q-12 0 -29 22q-20 26 -30 26q-2 0 -12 -4q-4 -2 -20 -8l-17 -5q-9 -3 -16 -3t-12 5.5t-5 12.5zM341 1z" />
    <glyph glyph-name="Atilde" unicode="&#xc3;" horiz-adv-x="415" 
d="M326 271q-111 -24 -186 -52q-50 -74 -98 -158l-26 -45q-18 -30 -21 -36q-16 -26 -33 -26q-9 0 -15.5 6.5t-6.5 15.5t16 41q36 62 60 101l35 55q1 1 11 18q-27 -8 -54 -19q-9 -5 -19 -5q-19 0 -19 22q0 18 22 28q24 11 58 21q32 10 58 22q2 2 4 5t3.5 4.5l2.5 2.5l1 2
l43 60q7 10 37 47q105 126 180 200q33 33 48 43.5t28 10.5q12 0 21 -9t9 -22t-13 -48q-25 -62 -45 -128q-21 -68 -26 -93h12q10 1 24 1q28 0 28 -21q0 -13 -8.5 -22t-21.5 -9h-6h-7q-23 0 -35 -4q-6 -20 -16 -66q-1 -5 -4.5 -21.5t-7 -35t-7.5 -38.5q-5 -40 -7 -54
q-4 -27 -6 -42q-2 -24 -2 -26v-2v-8v-6q0 -29 -20 -29q-34 0 -34 50q0 65 25 181q4 20 18 88zM339 324q3 8 6 17l17 59q2 7 13 38q2 4 5 13t4 13q7 19 14.5 38t7.5 20l7 21q-33 -23 -64 -56q-51 -53 -116 -136q-22 -27 -47 -67q18 5 21 5l57 17q22 6 58 14zM444 789
q26 0 53 -8q29 -8 42 -8q26 0 51 11l8 2q13 0 13 -18q0 -17 -18.5 -28.5t-44.5 -11.5q-5 0 -25 2q-5 1 -10.5 1.5t-9 1.5t-5.5 1l-24 6q-10 2 -23 2q-7 0 -10 -1l-18 -3q-17 0 -17 21q0 30 38 30zM339 1z" />
    <glyph glyph-name="Adieresis" unicode="&#xc4;" horiz-adv-x="415" 
d="M326 271q-111 -24 -186 -52q-50 -74 -98 -158l-26 -45q-18 -30 -21 -36q-16 -26 -33 -26q-9 0 -15.5 6.5t-6.5 15.5t16 41q36 62 60 101l35 55q1 1 11 18q-27 -8 -54 -19q-9 -5 -19 -5q-19 0 -19 22q0 18 22 28q24 11 58 21q32 10 58 22q2 2 4 5t3.5 4.5l2.5 2.5l1 2
l43 60q7 10 37 47q105 126 180 200q33 33 48 43.5t28 10.5q12 0 21 -9t9 -22t-13 -48q-25 -62 -45 -128q-21 -68 -26 -93h12q10 1 24 1q28 0 28 -21q0 -13 -8.5 -22t-21.5 -9h-6h-7q-23 0 -35 -4q-6 -20 -16 -66q-1 -5 -4.5 -21.5t-7 -35t-7.5 -38.5q-5 -40 -7 -54
q-4 -27 -6 -42q-2 -24 -2 -26v-2v-8v-6q0 -29 -20 -29q-34 0 -34 50q0 65 25 181q4 20 18 88zM339 324q3 8 6 17l17 59q2 7 13 38q2 4 5 13t4 13q7 19 14.5 38t7.5 20l7 21q-33 -23 -64 -56q-51 -53 -116 -136q-22 -27 -47 -67q18 5 21 5l57 17q22 6 58 14zM408 723
q0 25 26 49q19 19 33 19q10 0 16.5 -6t6.5 -16q0 -21 -22 -45q-21 -24 -39 -24q-21 0 -21 23zM510 723q0 25 26 49q19 19 33 19q10 0 16.5 -6t6.5 -16q0 -21 -22 -45q-21 -24 -39 -24q-21 0 -21 23zM341 0z" />
    <glyph glyph-name="Aring" unicode="&#xc5;" horiz-adv-x="415" 
d="M326 271q-111 -24 -186 -52q-50 -74 -98 -158l-26 -45q-18 -30 -21 -36q-16 -26 -33 -26q-9 0 -15.5 6.5t-6.5 15.5t16 41q36 62 60 101l35 55q1 1 11 18q-27 -8 -54 -19q-9 -5 -19 -5q-19 0 -19 22q0 18 22 28q24 11 58 21q32 10 58 22q2 2 4 5t3.5 4.5l2.5 2.5l1 2
l43 60q7 10 37 47q105 126 180 200q33 33 48 43.5t28 10.5q12 0 21 -9t9 -22t-13 -48q-25 -62 -45 -128q-21 -68 -26 -93h12q10 1 24 1q28 0 28 -21q0 -13 -8.5 -22t-21.5 -9h-6h-7q-23 0 -35 -4q-6 -20 -16 -66q-1 -5 -4.5 -21.5t-7 -35t-7.5 -38.5q-5 -40 -7 -54
q-4 -27 -6 -42q-2 -24 -2 -26v-2v-8v-6q0 -29 -20 -29q-34 0 -34 50q0 65 25 181q4 20 18 88zM339 324q3 8 6 17l17 59q2 7 13 38q2 4 5 13t4 13q7 19 14.5 38t7.5 20l7 21q-33 -23 -64 -56q-51 -53 -116 -136q-22 -27 -47 -67q18 5 21 5l57 17q22 6 58 14zM448 714
q0 37 38 75q33 31 58 31q15 0 25 -10.5t10 -25.5q0 -34 -38 -72q-31 -33 -59 -33q-14 0 -24 10.5t-10 24.5zM479 723q0 -12 11 -12q17 0 35 20q20 24 20 41q1 5 -3.5 9.5t-9.5 4.5q-10 0 -27 -15q-26 -24 -26 -48zM381 13z" />
    <glyph glyph-name="AE" unicode="&#xc6;" horiz-adv-x="646" 
d="M382 298q-3 -1 -7 -1.5t-6.5 -1l-5 -1t-3.5 -0.5l-79 -17q-12 -3 -68 -11l-13 -13q-82 -91 -129 -151l-29 -37q-39 -51 -44 -58q-20 -29 -37 -29q-9 0 -15 6t-6 16q0 17 30 56l46 60q4 6 31 38q4 4 11 12.5t10 12.5l48 58q3 1 18 20q-13 0 -18 -1h-25q-8 -1 -16 -1
q-25 0 -25 17q0 19 22 28q11 3 35 5l29 2l33 2q1 0 7 0.5t10 0.5q22 24 52 53q120 116 193 170q-21 13 -21 29q0 12 11 18.5t42 13.5q51 12 100 19q59 9 69 10q36 5 55 7l80 8q6 0 17 1t19 1.5t11 0.5q33 0 33 -22q0 -12 -8 -21.5t-19 -8.5l-18 1h-2q-3 0 -7 -0.5t-8 -0.5
l-43 -3q-40 -2 -110 -13q-30 -4 -51 -10q8 -9 8 -16q0 -9 -10 -23l-15 -22l-34 -54q-31 -48 -46 -82q20 4 77 12q45 4 53 5q24 2 37 2q27 0 27 -17q0 -30 -45 -33l-35 -3q-37 -2 -103 -13q-27 -4 -47 -9q-8 -13 -32 -59q-62 -122 -90 -207l22 8q81 27 135 39q46 10 76 10
q32 0 32 -26q0 -13 -10 -18.5t-39 -8.5q-121 -13 -217 -62q-20 -10 -31 -10q-13 0 -23.5 11.5t-10.5 26.5q0 18 21 71q36 92 88 189zM411 352q19 39 58 97q10 14 28 42q24 34 34 52q-75 -47 -151 -114q-87 -76 -112 -107q19 3 26 5l47 11q7 2 48 10q2 0 9 1.5t13 2.5z" />
    <glyph glyph-name="Ccedilla" unicode="&#xc7;" horiz-adv-x="390" 
d="M92 -51q-38 9 -62 42t-24 79q0 105 100 267q81 131 169.5 211.5t151.5 80.5q28 0 45.5 -19t17.5 -49q0 -76 -68 -163q-50 -65 -76 -65q-10 0 -18 8t-8 18q0 18 30 40q45 34 74.5 78.5t29.5 79.5q0 30 -26 30q-54 0 -161 -118q-93 -102 -144 -204q-55 -112 -55 -191
q0 -33 20.5 -57t48.5 -24q55 0 134 82q20 20 48.5 58t38.5 57q8 14 17 14q11 0 11 -10q0 -12 -20.5 -47t-48.5 -71q-43 -55 -91 -89t-89 -39l-18 -33q27 -8 35.5 -16t8.5 -24q0 -24 -20 -40.5t-49 -16.5q-28 0 -48 11.5t-20 27.5q0 14 11 14q6 0 11 -4q25 -17 41 -17
q14 0 23.5 6t9.5 14q0 7 -7.5 12t-17.5 5q-18 1 -23 3t-5 10t9 25z" />
    <glyph glyph-name="Egrave" unicode="&#xc8;" horiz-adv-x="390" 
d="M213 363l19 3l56 11q57 9 93 9q32 0 32 -24q0 -14 -8.5 -19.5t-31.5 -6.5q-38 -1 -106 -11q-47 -7 -87 -19q-18 -26 -37 -64q-15 -30 -45 -95q-22 -47 -38 -99q5 2 13 5t9 3q76 26 106 32q52 9 84 9q52 0 52 -27q0 -13 -8.5 -17.5t-35.5 -5.5q-46 0 -106 -14t-96 -34
l-29 -16q-14 -7 -21 -7q-13 0 -24 12.5t-11 26.5q0 10 16 52l25 62q25 62 69 148q24 44 47 85q25 43 39 65l65 98q8 12 17 26q-20 6 -20 26q0 14 12 20.5t55 16.5q113 26 227 26q45 0 45 -23q0 -15 -14 -26q-11 -8 -44 -5q-30 1 -109 -7q-61 -8 -99 -19q5 -8 5 -12
q0 -9 -8 -17l-15 -21l-24 -36l-31 -46q-21 -32 -38 -65zM372 810q13 0 28 -21l22 -30q22 -27 23 -28q18 -22 18 -34q0 -17 -15 -17t-51 46q-44 54 -44 66q0 7 6 12.5t13 5.5zM286 0z" />
    <glyph glyph-name="Eacute" unicode="&#xc9;" horiz-adv-x="390" 
d="M213 363l19 3l56 11q57 9 93 9q32 0 32 -24q0 -14 -8.5 -19.5t-31.5 -6.5q-38 -1 -106 -11q-47 -7 -87 -19q-18 -26 -37 -64q-15 -30 -45 -95q-22 -47 -38 -99q5 2 13 5t9 3q76 26 106 32q52 9 84 9q52 0 52 -27q0 -13 -8.5 -17.5t-35.5 -5.5q-46 0 -106 -14t-96 -34
l-29 -16q-14 -7 -21 -7q-13 0 -24 12.5t-11 26.5q0 10 16 52l25 62q25 62 69 148q24 44 47 85q25 43 39 65l65 98q8 12 17 26q-20 6 -20 26q0 14 12 20.5t55 16.5q113 26 227 26q45 0 45 -23q0 -15 -14 -26q-11 -8 -44 -5q-30 1 -109 -7q-61 -8 -99 -19q5 -8 5 -12
q0 -9 -8 -17l-15 -21l-24 -36l-31 -46q-21 -32 -38 -65zM509 808q7 0 13 -5.5t6 -12.5q0 -12 -44 -66q-23 -28 -32.5 -37t-18.5 -9q-16 0 -16 17q0 11 19 34q1 1 23 28q4 6 9.5 13t8.5 11t4 6q14 21 28 21zM351 -2z" />
    <glyph glyph-name="Ecircumflex" unicode="&#xca;" horiz-adv-x="390" 
d="M213 363l19 3l56 11q57 9 93 9q32 0 32 -24q0 -14 -8.5 -19.5t-31.5 -6.5q-38 -1 -106 -11q-47 -7 -87 -19q-18 -26 -37 -64q-15 -30 -45 -95q-22 -47 -38 -99q5 2 13 5t9 3q76 26 106 32q52 9 84 9q52 0 52 -27q0 -13 -8.5 -17.5t-35.5 -5.5q-46 0 -106 -14t-96 -34
l-29 -16q-14 -7 -21 -7q-13 0 -24 12.5t-11 26.5q0 10 16 52l25 62q25 62 69 148q24 44 47 85q25 43 39 65l65 98q8 12 17 26q-20 6 -20 26q0 14 12 20.5t55 16.5q113 26 227 26q45 0 45 -23q0 -15 -14 -26q-11 -8 -44 -5q-30 1 -109 -7q-61 -8 -99 -19q5 -8 5 -12
q0 -9 -8 -17l-15 -21l-24 -36l-31 -46q-21 -32 -38 -65zM366 725q0 15 23 25l23 11q36 16 51 16q14 0 40 -31q25 -32 25 -47q0 -7 -6.5 -13.5t-14.5 -6.5q-12 0 -29 22q-20 26 -30 26q-2 0 -12 -4q-4 -2 -20 -8l-17 -5q-9 -3 -16 -3t-12 5.5t-5 12.5zM299 0z" />
    <glyph glyph-name="Edieresis" unicode="&#xcb;" horiz-adv-x="390" 
d="M213 363l19 3l56 11q57 9 93 9q32 0 32 -24q0 -14 -8.5 -19.5t-31.5 -6.5q-38 -1 -106 -11q-47 -7 -87 -19q-18 -26 -37 -64q-15 -30 -45 -95q-22 -47 -38 -99q5 2 13 5t9 3q76 26 106 32q52 9 84 9q52 0 52 -27q0 -13 -8.5 -17.5t-35.5 -5.5q-46 0 -106 -14t-96 -34
l-29 -16q-14 -7 -21 -7q-13 0 -24 12.5t-11 26.5q0 10 16 52l25 62q25 62 69 148q24 44 47 85q25 43 39 65l65 98q8 12 17 26q-20 6 -20 26q0 14 12 20.5t55 16.5q113 26 227 26q45 0 45 -23q0 -15 -14 -26q-11 -8 -44 -5q-30 1 -109 -7q-61 -8 -99 -19q5 -8 5 -12
q0 -9 -8 -17l-15 -21l-24 -36l-31 -46q-21 -32 -38 -65zM373 723q0 25 26 49q19 19 33 19q10 0 16.5 -6t6.5 -16q0 -21 -22 -45q-21 -24 -39 -24q-21 0 -21 23zM475 723q0 25 26 49q19 19 33 19q10 0 16.5 -6t6.5 -16q0 -21 -22 -45q-21 -24 -39 -24q-21 0 -21 23zM306 0z
" />
    <glyph glyph-name="Igrave" unicode="&#xcc;" horiz-adv-x="178" 
d="M14 -19q-10 0 -18.5 9.5t-8.5 21.5q0 17 15 65q43 145 188 370q29 47 72 106q32 45 44.5 58t22.5 13q8 0 15 -7.5t7 -16.5q0 -12 -9 -26.5t-52 -74.5q-124 -174 -185 -307q-57 -127 -65 -176q-6 -35 -26 -35zM299 811q13 0 28 -21l22 -30q22 -27 23 -28q18 -22 18 -34
q0 -17 -15 -17t-51 46q-44 54 -44 66q0 7 6 12.5t13 5.5zM213 1z" />
    <glyph glyph-name="Iacute" unicode="&#xcd;" horiz-adv-x="178" 
d="M14 -19q-10 0 -18.5 9.5t-8.5 21.5q0 17 15 65q43 145 188 370q29 47 72 106q32 45 44.5 58t22.5 13q8 0 15 -7.5t7 -16.5q0 -12 -9 -26.5t-52 -74.5q-124 -174 -185 -307q-57 -127 -65 -176q-6 -35 -26 -35zM447 776q7 0 13 -5.5t6 -12.5q0 -12 -44 -66
q-23 -28 -32.5 -37t-18.5 -9q-16 0 -16 17q0 11 19 34q1 1 23 28l22 30q14 21 28 21zM289 -34z" />
    <glyph glyph-name="Icircumflex" unicode="&#xce;" horiz-adv-x="178" 
d="M14 -19q-10 0 -18.5 9.5t-8.5 21.5q0 17 15 65q43 145 188 370q29 47 72 106q32 45 44.5 58t22.5 13q8 0 15 -7.5t7 -16.5q0 -12 -9 -26.5t-52 -74.5q-124 -174 -185 -307q-57 -127 -65 -176q-6 -35 -26 -35zM292 725q0 15 23 25l23 11q36 16 51 16q14 0 40 -31
q25 -32 25 -47q0 -7 -6.5 -13.5t-14.5 -6.5q-12 0 -29 22q-20 26 -30 26q-2 0 -12 -4q-4 -2 -20 -8l-17 -5q-9 -3 -16 -3t-12 5.5t-5 12.5zM225 0z" />
    <glyph glyph-name="Idieresis" unicode="&#xcf;" horiz-adv-x="178" 
d="M14 -19q-10 0 -18.5 9.5t-8.5 21.5q0 17 15 65q43 145 188 370q29 47 72 106q32 45 44.5 58t22.5 13q8 0 15 -7.5t7 -16.5q0 -12 -9 -26.5t-52 -74.5q-124 -174 -185 -307q-57 -127 -65 -176q-6 -35 -26 -35zM300 724q0 25 26 49q19 19 33 19q10 0 16.5 -6t6.5 -16
q0 -21 -22 -45q-21 -24 -39 -24q-21 0 -21 23zM402 724q0 25 26 49q19 19 33 19q10 0 16.5 -6t6.5 -16q0 -21 -22 -45q-21 -24 -39 -24q-21 0 -21 23zM233 1z" />
    <glyph glyph-name="Ntilde" unicode="&#xd1;" horiz-adv-x="423" 
d="M269 74q33 99 71.5 181t118.5 223q18 33 58 101q23 39 39 55.5t32 16.5t16 -14q0 -9 -22 -43l-26 -42q-55 -86 -123 -216q-70 -138 -105 -245l-17 -49q-27 -80 -69 -80q-17 0 -23 15.5t-6 59.5q0 116 23 258q14 85 28 149q5 19 14 52q-33 -37 -69 -94q-20 -32 -57 -98
q-87 -150 -125 -269q-15 -47 -22 -58q-14 -22 -33 -22q-8 0 -13.5 6t-5.5 14t8 30l16 46q35 101 144 286q65 107 135 204q33 46 51.5 63.5t34.5 17.5q8 0 13 -5t5 -13q0 -11 -5 -21q-34 -90 -60.5 -229.5t-26.5 -231.5q0 -4 0.5 -20t0.5 -28zM430 788q26 0 53 -8
q29 -8 42 -8q26 0 51 11l8 2q13 0 13 -18q0 -17 -18.5 -28.5t-44.5 -11.5q-5 0 -25 2q-5 1 -10.5 1.5t-9 1.5t-5.5 1l-24 6q-10 2 -23 2q-7 0 -10 -1l-18 -3q-17 0 -17 21q0 30 38 30zM325 0z" />
    <glyph glyph-name="Ograve" unicode="&#xd2;" horiz-adv-x="423" 
d="M318 569q-37 -7 -86 -34q-10 -6 -18 -6t-14 7.5t-6 16.5q0 10 8.5 17.5t35.5 21.5q69 36 142 36q55 0 92.5 -37t37.5 -92q0 -89 -72 -214q-77 -134 -188 -242q-95 -90 -159 -90q-37 0 -60.5 29.5t-23.5 74.5q0 64 34 147t95 167q78 109 182 198zM343 574q8 -11 8 -17
q0 -8 -9 -17l-17 -19l-39 -42q-105 -114 -163.5 -222t-58.5 -187q0 -56 42 -56q44 0 121 76q100 99 163.5 211.5t63.5 189.5q0 39 -21.5 61.5t-59.5 22.5q-19 0 -30 -1zM381 808q13 0 28 -21l22 -30q22 -27 23 -28q18 -22 18 -34q0 -17 -15 -17t-51 46q-44 54 -44 66
q0 7 6 12.5t13 5.5zM295 -2z" />
    <glyph glyph-name="Oacute" unicode="&#xd3;" horiz-adv-x="423" 
d="M318 569q-37 -7 -86 -34q-10 -6 -18 -6t-14 7.5t-6 16.5q0 10 8.5 17.5t35.5 21.5q69 36 142 36q55 0 92.5 -37t37.5 -92q0 -89 -72 -214q-77 -134 -188 -242q-95 -90 -159 -90q-37 0 -60.5 29.5t-23.5 74.5q0 64 34 147t95 167q78 109 182 198zM343 574q8 -11 8 -17
q0 -8 -9 -17l-17 -19l-39 -42q-105 -114 -163.5 -222t-58.5 -187q0 -56 42 -56q44 0 121 76q100 99 163.5 211.5t63.5 189.5q0 39 -21.5 61.5t-59.5 22.5q-19 0 -30 -1zM511 811q7 0 13 -5.5t6 -12.5q0 -12 -44 -66q-23 -28 -32.5 -37t-18.5 -9q-16 0 -16 17q0 11 19 34
q1 1 23 28l22 30q14 21 28 21zM353 1z" />
    <glyph glyph-name="Ocircumflex" unicode="&#xd4;" horiz-adv-x="423" 
d="M318 569q-37 -7 -86 -34q-10 -6 -18 -6t-14 7.5t-6 16.5q0 10 8.5 17.5t35.5 21.5q69 36 142 36q55 0 92.5 -37t37.5 -92q0 -89 -72 -214q-77 -134 -188 -242q-95 -90 -159 -90q-37 0 -60.5 29.5t-23.5 74.5q0 64 34 147t95 167q78 109 182 198zM343 574q8 -11 8 -17
q0 -8 -9 -17l-17 -19l-39 -42q-105 -114 -163.5 -222t-58.5 -187q0 -56 42 -56q44 0 121 76q100 99 163.5 211.5t63.5 189.5q0 39 -21.5 61.5t-59.5 22.5q-19 0 -30 -1zM372 723q0 15 23 25l23 11q36 16 51 16q14 0 40 -31q25 -32 25 -47q0 -7 -6.5 -13.5t-14.5 -6.5
q-12 0 -29 22q-20 26 -30 26q-2 0 -12 -4q-4 -2 -20 -8l-17 -5q-9 -3 -16 -3t-12 5.5t-5 12.5zM305 -2z" />
    <glyph glyph-name="Otilde" unicode="&#xd5;" horiz-adv-x="423" 
d="M318 569q-37 -7 -86 -34q-10 -6 -18 -6t-14 7.5t-6 16.5q0 10 8.5 17.5t35.5 21.5q69 36 142 36q55 0 92.5 -37t37.5 -92q0 -89 -72 -214q-77 -134 -188 -242q-95 -90 -159 -90q-37 0 -60.5 29.5t-23.5 74.5q0 64 34 147t95 167q78 109 182 198zM343 574q8 -11 8 -17
q0 -8 -9 -17l-17 -19l-39 -42q-105 -114 -163.5 -222t-58.5 -187q0 -56 42 -56q44 0 121 76q100 99 163.5 211.5t63.5 189.5q0 39 -21.5 61.5t-59.5 22.5q-19 0 -30 -1zM426 788q26 0 53 -8q29 -8 42 -8q26 0 51 11l8 2q13 0 13 -18q0 -17 -18.5 -28.5t-44.5 -11.5
q-5 0 -25 2q-5 1 -10.5 1.5t-9 1.5t-5.5 1l-24 6q-10 2 -23 2q-7 0 -10 -1l-18 -3q-17 0 -17 21q0 30 38 30zM321 0z" />
    <glyph glyph-name="Odieresis" unicode="&#xd6;" horiz-adv-x="423" 
d="M318 569q-37 -7 -86 -34q-10 -6 -18 -6t-14 7.5t-6 16.5q0 10 8.5 17.5t35.5 21.5q69 36 142 36q55 0 92.5 -37t37.5 -92q0 -89 -72 -214q-77 -134 -188 -242q-95 -90 -159 -90q-37 0 -60.5 29.5t-23.5 74.5q0 64 34 147t95 167q78 109 182 198zM343 574q8 -11 8 -17
q0 -8 -9 -17l-17 -19l-39 -42q-105 -114 -163.5 -222t-58.5 -187q0 -56 42 -56q44 0 121 76q100 99 163.5 211.5t63.5 189.5q0 39 -21.5 61.5t-59.5 22.5q-19 0 -30 -1zM379 723q0 25 26 49q19 19 33 19q10 0 16.5 -6t6.5 -16q0 -21 -22 -45q-21 -24 -39 -24q-21 0 -21 23z
M481 723q0 25 26 49q19 19 33 19q10 0 16.5 -6t6.5 -16q0 -21 -22 -45q-21 -24 -39 -24q-21 0 -21 23zM312 0z" />
    <glyph glyph-name="Oslash" unicode="&#xd8;" horiz-adv-x="424" 
d="M460 601l13 17q24 34 39 34q5 0 10.5 -5t5.5 -11q0 -8 -7 -17l-12 -16l-16 -21q-1 -3 -6 -9q23 -37 23 -71q0 -111 -106 -272q-113 -171 -228 -245q-42 -28 -81 -32q-4 -7 -7.5 -13t-6 -10.5t-3.5 -6.5q-11 -25 -24 -25q-16 0 -16 17q0 11 12 36q0 1 2 5l3 6
q-49 29 -49 94q0 92 61 209q55 101 145 201q30 34 103 102q-23 -4 -42 -12q-24 -10 -42 -20q-12 -5 -17 -5q-8 0 -14.5 7t-6.5 15q0 10 8 16.5t36 21.5q71 37 142 37q40 0 81 -27zM427 559q-25 18 -56 18q-5 0 -27 -2q6 -12 6 -16q0 -10 -27 -38q-42 -43 -69 -75
q-95 -110 -142 -208q-49 -97 -49 -169q0 -19 5 -29t19 -21l9 17q57 101 126 210q75 119 131 202q34 50 38 56q20 29 36 55zM133 20q31 13 65 43q115 104 188 229q68 118 68 195q0 14 -5 34l-13 -20q-6 -9 -16 -23.5t-17 -24.5q-13 -20 -21 -32l-62 -93q-14 -20 -42 -62
q-21 -33 -26 -42l-61 -101q-15 -27 -26 -45q-12 -19 -32 -58z" />
    <glyph glyph-name="Ugrave" unicode="&#xd9;" horiz-adv-x="471" 
d="M445 390q-23 -27 -53 -66q-40 -54 -79 -105l-51 -69q-61 -82 -109 -133q-56 -60 -95 -60q-23 0 -39 22t-16 55q0 70 51 184.5t132 228.5q66 92 123 153q28 26 42 26q8 0 14.5 -7.5t6.5 -15.5q0 -15 -23 -38q-7 -7 -20 -22q-8 -10 -13 -15l-54 -64q-75 -88 -141 -220
t-66 -194q0 -28 21 -28q19 0 55 40q47 55 122 151l91 114q32 43 48 63q5 6 15.5 20l16.5 22q8 10 22.5 29t21.5 28q8 10 17.5 21t13.5 16l41 46q20 24 30 31.5t21 7.5q9 0 16 -7t7 -16q0 -12 -22 -44q-109 -162 -175 -319q-62 -149 -65 -221q-2 -27 -5 -34t-13 -7
q-14 0 -24 11t-10 27q0 18 11 70q11 56 52 155q21 50 64 130q2 3 4.5 8t6.5 12.5t7 13.5zM425 811q13 0 28 -21l22 -30q22 -27 23 -28q18 -22 18 -34q0 -17 -15 -17t-51 46q-44 54 -44 66q0 7 6 12.5t13 5.5zM339 1z" />
    <glyph glyph-name="Uacute" unicode="&#xda;" horiz-adv-x="471" 
d="M445 390q-23 -27 -53 -66q-40 -54 -79 -105l-51 -69q-61 -82 -109 -133q-56 -60 -95 -60q-23 0 -39 22t-16 55q0 70 51 184.5t132 228.5q66 92 123 153q28 26 42 26q8 0 14.5 -7.5t6.5 -15.5q0 -15 -23 -38q-7 -7 -20 -22q-8 -10 -13 -15l-54 -64q-75 -88 -141 -220
t-66 -194q0 -28 21 -28q19 0 55 40q47 55 122 151l91 114q32 43 48 63q5 6 15.5 20l16.5 22q8 10 22.5 29t21.5 28q8 10 17.5 21t13.5 16l41 46q20 24 30 31.5t21 7.5q9 0 16 -7t7 -16q0 -12 -22 -44q-109 -162 -175 -319q-62 -149 -65 -221q-2 -27 -5 -34t-13 -7
q-14 0 -24 11t-10 27q0 18 11 70q11 56 52 155q21 50 64 130q2 3 4.5 8t6.5 12.5t7 13.5zM557 811q7 0 13 -5.5t6 -12.5q0 -12 -44 -66q-23 -28 -32.5 -37t-18.5 -9q-16 0 -16 17q0 11 19 34q1 1 23 28l22 30q14 21 28 21zM399 1z" />
    <glyph glyph-name="Ucircumflex" unicode="&#xdb;" horiz-adv-x="471" 
d="M445 390q-23 -27 -53 -66q-40 -54 -79 -105l-51 -69q-61 -82 -109 -133q-56 -60 -95 -60q-23 0 -39 22t-16 55q0 70 51 184.5t132 228.5q66 92 123 153q28 26 42 26q8 0 14.5 -7.5t6.5 -15.5q0 -15 -23 -38q-7 -7 -20 -22q-8 -10 -13 -15l-54 -64q-75 -88 -141 -220
t-66 -194q0 -28 21 -28q19 0 55 40q47 55 122 151l91 114q32 43 48 63q5 6 15.5 20l16.5 22q8 10 22.5 29t21.5 28q8 10 17.5 21t13.5 16l41 46q20 24 30 31.5t21 7.5q9 0 16 -7t7 -16q0 -12 -22 -44q-109 -162 -175 -319q-62 -149 -65 -221q-2 -27 -5 -34t-13 -7
q-14 0 -24 11t-10 27q0 18 11 70q11 56 52 155q21 50 64 130q2 3 4.5 8t6.5 12.5t7 13.5zM418 726q0 15 23 25l23 11q36 16 51 16q14 0 40 -31q25 -32 25 -47q0 -7 -6.5 -13.5t-14.5 -6.5q-12 0 -29 22q-20 26 -30 26q-2 0 -12 -4q-4 -2 -20 -8l-17 -5q-9 -3 -16 -3t-12 5.5
t-5 12.5zM351 1z" />
    <glyph glyph-name="Udieresis" unicode="&#xdc;" horiz-adv-x="471" 
d="M445 390q-23 -27 -53 -66q-40 -54 -79 -105l-51 -69q-61 -82 -109 -133q-56 -60 -95 -60q-23 0 -39 22t-16 55q0 70 51 184.5t132 228.5q66 92 123 153q28 26 42 26q8 0 14.5 -7.5t6.5 -15.5q0 -15 -23 -38q-7 -7 -20 -22q-8 -10 -13 -15l-54 -64q-75 -88 -141 -220
t-66 -194q0 -28 21 -28q19 0 55 40q47 55 122 151l91 114q32 43 48 63q5 6 15.5 20l16.5 22q8 10 22.5 29t21.5 28q8 10 17.5 21t13.5 16l41 46q20 24 30 31.5t21 7.5q9 0 16 -7t7 -16q0 -12 -22 -44q-109 -162 -175 -319q-62 -149 -65 -221q-2 -27 -5 -34t-13 -7
q-14 0 -24 11t-10 27q0 18 11 70q11 56 52 155q21 50 64 130q2 3 4.5 8t6.5 12.5t7 13.5zM433 723q0 25 26 49q19 19 33 19q10 0 16.5 -6t6.5 -16q0 -21 -22 -45q-21 -24 -39 -24q-21 0 -21 23zM535 723q0 25 26 49q19 19 33 19q10 0 16.5 -6t6.5 -16q0 -21 -22 -45
q-21 -24 -39 -24q-21 0 -21 23zM366 0z" />
    <glyph glyph-name="germandbls" unicode="&#xdf;" horiz-adv-x="254" 
d="M188 237q25 11 33 11t13.5 -5t5.5 -13q0 -14 -12 -20l-16 -9q-1 -1 -4 -3q-2 -2 -4 -3q15 -42 15 -73q0 -52 -29.5 -90.5t-70.5 -38.5q-22 0 -38.5 17.5t-16.5 41.5q0 32 25 76t64 82q-5 15 -6 19q-18 49 -18 67q0 22 11 39t55 64q55 56 88 113q30 52 30 77q0 16 -13 16
q-18 0 -44 -36q-35 -48 -66 -108q-45 -89 -71 -161l-18 -48q-2 -6 -33 -89l-27 -70q-9 -24 -18 -50q-10 -31 -16 -39t-18 -8q-8 0 -14.5 6.5t-6.5 16.5t5 25q4 9 7 18t5.5 15.5t3.5 9.5l41 104q6 14 39 99q27 72 52 136q46 108 102 179q48 62 89 62q21 0 36 -16t15 -38
q0 -47 -40 -114.5t-111 -140.5q-39 -40 -39 -62t15 -59zM165 167q-25 -21 -42 -49t-17 -49q0 -10 5.5 -16.5t13.5 -5.5q19 1 32 25t13 59q0 16 -5 36z" />
    <glyph glyph-name="agrave" unicode="&#xe0;" horiz-adv-x="243" 
d="M107 68q-46 -52 -80 -52q-20 0 -32.5 15t-12.5 38q0 29 18.5 69.5t47.5 76.5q61 75 110 75q21 0 33.5 -12.5t12.5 -32.5q0 -22 -15 -51q9 -12 9 -16q0 -6 -6 -13l-9 -11q-5 -6 -21 -36q-10 -19 -10 -29q0 -18 14 -18t41.5 29.5t50.5 70.5q13 19 23 19q13 0 13 -14
q0 -9 -12 -32t-29 -43q-63 -81 -106 -81q-20 0 -29 11t-11 37zM107 118q-2 6 -3 7q-1 3 -1 5q0 5 17 21q42 40 42 69q0 8 -5 13.5t-12 5.5q-29 0 -71 -56q-45 -61 -45 -98q0 -17 14 -17q26 0 64 50zM145 503q13 0 28 -21q1 -2 4 -6t8.5 -11t9.5 -13q22 -27 23 -28
q18 -22 18 -34q0 -17 -15 -17t-51 46q-44 54 -44 66q0 7 6 12.5t13 5.5zM59 -307z" />
    <glyph glyph-name="aacute" unicode="&#xe1;" horiz-adv-x="243" 
d="M107 68q-46 -52 -80 -52q-20 0 -32.5 15t-12.5 38q0 29 18.5 69.5t47.5 76.5q61 75 110 75q21 0 33.5 -12.5t12.5 -32.5q0 -22 -15 -51q9 -12 9 -16q0 -6 -6 -13l-9 -11q-5 -6 -21 -36q-10 -19 -10 -29q0 -18 14 -18t41.5 29.5t50.5 70.5q13 19 23 19q13 0 13 -14
q0 -9 -12 -32t-29 -43q-63 -81 -106 -81q-20 0 -29 11t-11 37zM107 118q-2 6 -3 7q-1 3 -1 5q0 5 17 21q42 40 42 69q0 8 -5 13.5t-12 5.5q-29 0 -71 -56q-45 -61 -45 -98q0 -17 14 -17q26 0 64 50zM277 503q7 0 13 -5.5t6 -12.5q0 -12 -44 -66q-23 -28 -32.5 -37t-18.5 -9
q-16 0 -16 17q0 11 19 34q1 1 23 28l22 30q14 21 28 21zM119 -307z" />
    <glyph glyph-name="acircumflex" unicode="&#xe2;" horiz-adv-x="243" 
d="M107 68q-46 -52 -80 -52q-20 0 -32.5 15t-12.5 38q0 29 18.5 69.5t47.5 76.5q61 75 110 75q21 0 33.5 -12.5t12.5 -32.5q0 -22 -15 -51q9 -12 9 -16q0 -6 -6 -13l-9 -11q-5 -6 -21 -36q-10 -19 -10 -29q0 -18 14 -18t41.5 29.5t50.5 70.5q13 19 23 19q13 0 13 -14
q0 -9 -12 -32t-29 -43q-63 -81 -106 -81q-20 0 -29 11t-11 37zM107 118q-2 6 -3 7q-1 3 -1 5q0 5 17 21q42 40 42 69q0 8 -5 13.5t-12 5.5q-29 0 -71 -56q-45 -61 -45 -98q0 -17 14 -17q26 0 64 50zM126 418q0 15 23 25l23 11q36 16 51 16q14 0 40 -31q25 -32 25 -47
q0 -7 -6.5 -13.5t-14.5 -6.5q-12 0 -29 22q-20 26 -30 26q-2 0 -12 -4q-4 -2 -20 -8l-17 -5q-9 -3 -16 -3t-12 5.5t-5 12.5zM59 -307z" />
    <glyph glyph-name="atilde" unicode="&#xe3;" horiz-adv-x="243" 
d="M107 68q-46 -52 -80 -52q-20 0 -32.5 15t-12.5 38q0 29 18.5 69.5t47.5 76.5q61 75 110 75q21 0 33.5 -12.5t12.5 -32.5q0 -22 -15 -51q9 -12 9 -16q0 -6 -6 -13l-9 -11q-5 -6 -21 -36q-10 -19 -10 -29q0 -18 14 -18t41.5 29.5t50.5 70.5q13 19 23 19q13 0 13 -14
q0 -9 -12 -32t-29 -43q-63 -81 -106 -81q-20 0 -29 11t-11 37zM107 118q-2 6 -3 7q-1 3 -1 5q0 5 17 21q42 40 42 69q0 8 -5 13.5t-12 5.5q-29 0 -71 -56q-45 -61 -45 -98q0 -17 14 -17q26 0 64 50zM161 469q26 0 53 -8q29 -8 42 -8q26 0 51 11l8 2q13 0 13 -18
q0 -17 -18.5 -28.5t-44.5 -11.5q-5 0 -25 2q-5 1 -10.5 1.5t-9 1.5t-5.5 1l-24 6q-10 2 -23 2q-7 0 -10 -1l-18 -3q-17 0 -17 21q0 30 38 30zM56 -319z" />
    <glyph glyph-name="adieresis" unicode="&#xe4;" horiz-adv-x="243" 
d="M107 68q-46 -52 -80 -52q-20 0 -32.5 15t-12.5 38q0 29 18.5 69.5t47.5 76.5q61 75 110 75q21 0 33.5 -12.5t12.5 -32.5q0 -22 -15 -51q9 -12 9 -16q0 -6 -6 -13l-9 -11q-5 -6 -21 -36q-10 -19 -10 -29q0 -18 14 -18t41.5 29.5t50.5 70.5q13 19 23 19q13 0 13 -14
q0 -9 -12 -32t-29 -43q-63 -81 -106 -81q-20 0 -29 11t-11 37zM107 118q-2 6 -3 7q-1 3 -1 5q0 5 17 21q42 40 42 69q0 8 -5 13.5t-12 5.5q-29 0 -71 -56q-45 -61 -45 -98q0 -17 14 -17q26 0 64 50zM133 416q0 25 26 49q19 19 33 19q10 0 16.5 -6t6.5 -16q0 -21 -22 -45
q-21 -24 -39 -24q-21 0 -21 23zM235 416q0 25 26 49q19 19 33 19q10 0 16.5 -6t6.5 -16q0 -21 -22 -45q-21 -24 -39 -24q-21 0 -21 23zM66 -307z" />
    <glyph glyph-name="aring" unicode="&#xe5;" horiz-adv-x="243" 
d="M107 68q-46 -52 -80 -52q-20 0 -32.5 15t-12.5 38q0 29 18.5 69.5t47.5 76.5q61 75 110 75q21 0 33.5 -12.5t12.5 -32.5q0 -22 -15 -51q9 -12 9 -16q0 -6 -6 -13l-9 -11q-5 -6 -21 -36q-10 -19 -10 -29q0 -18 14 -18t41.5 29.5t50.5 70.5q13 19 23 19q13 0 13 -14
q0 -9 -12 -32t-29 -43q-63 -81 -106 -81q-20 0 -29 11t-11 37zM107 118q-2 6 -3 7q-1 3 -1 5q0 5 17 21q42 40 42 69q0 8 -5 13.5t-12 5.5q-29 0 -71 -56q-45 -61 -45 -98q0 -17 14 -17q26 0 64 50zM167 394q0 37 38 75q33 31 58 31q15 0 25 -10.5t10 -25.5q0 -34 -38 -72
q-31 -33 -59 -33q-14 0 -24 10.5t-10 24.5zM198 403q0 -12 11 -12q17 0 35 20q20 24 20 41q1 5 -3.5 9.5t-9.5 4.5q-11 0 -27 -15q-26 -24 -26 -48zM100 -307z" />
    <glyph glyph-name="ae" unicode="&#xe6;" horiz-adv-x="329" 
d="M123 65q-50 -75 -103 -75q-23 0 -39 20t-16 48q0 53 44 98.5t95 45.5q23 0 49 -11q15 32 15 54q0 11 -7.5 18.5t-18.5 7.5q-14 0 -57 -19q-12 -6 -22 -6q-6 0 -10.5 5.5t-4.5 12.5q0 13 23 26q57 32 93 32q43 0 52 -49q45 42 75 42q20 0 32.5 -12.5t12.5 -32.5
q0 -54 -42.5 -101.5t-90.5 -47.5q-8 0 -26 6q-8 -23 -8 -41q0 -42 33 -42q51 0 126 105q14 20 24 20q4 0 8 -4.5t4 -9.5q0 -10 -16 -35q-84 -129 -161 -129q-29 0 -43 16.5t-21 57.5zM194 168q8 -2 20 -2q35 0 67 46q13 19 13 38q0 16 -13 16q-36 0 -87 -98zM132 149
q-18 11 -37 11q-30 0 -57 -29t-27 -63q0 -26 23 -26q25 0 52.5 30.5t45.5 76.5z" />
    <glyph glyph-name="ccedilla" unicode="&#xe7;" horiz-adv-x="197" 
d="M28 -6q-21 6 -33.5 23.5t-12.5 41.5q0 79 81 172q64 73 111 73q17 0 27 -11t10 -29q0 -38 -28 -72q-23 -27 -37 -27q-15 0 -15 15q0 10 16 24q7 7 18 25q7 12 7 16q0 10 -10 10t-29 -15t-35 -36q-29 -36 -48 -74.5t-19 -62.5q0 -13 9 -22.5t22 -9.5q31 0 73 39
q32 28 60 65q14 18 22 18q5 0 9.5 -4.5t4.5 -10.5q0 -12 -20 -38q-83 -105 -144 -112l-20 -36q28 -5 40 -14.5t12 -26.5q0 -24 -20.5 -40.5t-49.5 -16.5q-28 0 -48 11.5t-20 27.5q0 14 11 14q6 0 11 -4q25 -17 41 -17q14 0 24 6t10 14q0 7 -8 12t-18 5q-18 1 -23 3.5
t-5 10.5q0 5 2 11l7 13z" />
    <glyph glyph-name="egrave" unicode="&#xe8;" horiz-adv-x="204" 
d="M51 133q-14 -34 -14 -52q0 -15 10.5 -25.5t26.5 -10.5q28 0 66 28.5t64 67.5q15 24 25 24q6 0 10.5 -4.5t4.5 -10.5q0 -20 -39 -66q-35 -41 -74.5 -65t-71.5 -24q-29 0 -51 21.5t-22 50.5q0 34 20.5 81.5t53.5 87.5q25 32 60.5 53.5t61.5 21.5q17 0 29 -12.5t12 -31.5
q0 -50 -45.5 -96t-95.5 -46q-12 0 -31 8zM74 176q15 -7 24 -7q29 0 60 38q23 28 23 46q0 14 -14 14q-20 0 -50 -33q-17 -18 -43 -58zM159 503q13 0 28 -21q1 -2 4 -6t8.5 -11t9.5 -13q22 -27 23 -28q18 -22 18 -34q0 -17 -15 -17t-51 46q-44 54 -44 66q0 7 6 12.5t13 5.5z
M73 -307z" />
    <glyph glyph-name="eacute" unicode="&#xe9;" horiz-adv-x="204" 
d="M51 133q-14 -34 -14 -52q0 -15 10.5 -25.5t26.5 -10.5q28 0 66 28.5t64 67.5q15 24 25 24q6 0 10.5 -4.5t4.5 -10.5q0 -20 -39 -66q-35 -41 -74.5 -65t-71.5 -24q-29 0 -51 21.5t-22 50.5q0 34 20.5 81.5t53.5 87.5q25 32 60.5 53.5t61.5 21.5q17 0 29 -12.5t12 -31.5
q0 -50 -45.5 -96t-95.5 -46q-12 0 -31 8zM74 176q15 -7 24 -7q29 0 60 38q23 28 23 46q0 14 -14 14q-20 0 -50 -33q-17 -18 -43 -58zM284 503q7 0 13 -5.5t6 -12.5q0 -12 -44 -66q-23 -28 -32.5 -37t-18.5 -9q-16 0 -16 17q0 11 19 34q1 1 23 28l22 30q14 21 28 21z
M126 -307z" />
    <glyph glyph-name="ecircumflex" unicode="&#xea;" horiz-adv-x="204" 
d="M51 133q-14 -34 -14 -52q0 -15 10.5 -25.5t26.5 -10.5q28 0 66 28.5t64 67.5q15 24 25 24q6 0 10.5 -4.5t4.5 -10.5q0 -20 -39 -66q-35 -41 -74.5 -65t-71.5 -24q-29 0 -51 21.5t-22 50.5q0 34 20.5 81.5t53.5 87.5q25 32 60.5 53.5t61.5 21.5q17 0 29 -12.5t12 -31.5
q0 -50 -45.5 -96t-95.5 -46q-12 0 -31 8zM74 176q15 -7 24 -7q29 0 60 38q23 28 23 46q0 14 -14 14q-20 0 -50 -33q-17 -18 -43 -58zM140 418q0 15 23 25l23 11q36 16 51 16q14 0 40 -31q25 -32 25 -47q0 -7 -6.5 -13.5t-14.5 -6.5q-12 0 -29 22q-20 26 -30 26q-2 0 -12 -4
q-4 -2 -20 -8l-17 -5q-9 -3 -16 -3t-12 5.5t-5 12.5zM73 -307z" />
    <glyph glyph-name="edieresis" unicode="&#xeb;" horiz-adv-x="204" 
d="M51 133q-14 -34 -14 -52q0 -15 10.5 -25.5t26.5 -10.5q28 0 66 28.5t64 67.5q15 24 25 24q6 0 10.5 -4.5t4.5 -10.5q0 -20 -39 -66q-35 -41 -74.5 -65t-71.5 -24q-29 0 -51 21.5t-22 50.5q0 34 20.5 81.5t53.5 87.5q25 32 60.5 53.5t61.5 21.5q17 0 29 -12.5t12 -31.5
q0 -50 -45.5 -96t-95.5 -46q-12 0 -31 8zM74 176q15 -7 24 -7q29 0 60 38q23 28 23 46q0 14 -14 14q-20 0 -50 -33q-17 -18 -43 -58zM147 416q0 25 26 49q19 19 33 19q10 0 16.5 -6t6.5 -16q0 -21 -22 -45q-21 -24 -39 -24q-21 0 -21 23zM249 416q0 25 26 49q19 19 33 19
q10 0 16.5 -6t6.5 -16q0 -21 -22 -45q-21 -24 -39 -24q-21 0 -21 23zM80 -307z" />
    <glyph glyph-name="igrave" unicode="&#xec;" horiz-adv-x="110" 
d="M-31 42q0 56 58 142q40 58 58 58q6 0 10.5 -5t4.5 -11q0 -12 -29 -54q-32 -47 -43 -70q-9 -24 -9 -34q0 -13 11 -13q14 0 39.5 27t49.5 67q12 20 22 20q5 0 9 -4.5t4 -10.5q0 -26 -51 -88q-57 -69 -96 -69q-16 0 -27 13.5t-11 31.5zM99 503q13 0 28 -21l22 -30
q22 -27 23 -28q18 -22 18 -34q0 -17 -15 -17t-51 46q-44 54 -44 66q0 7 6 12.5t13 5.5zM13 -307z" />
    <glyph glyph-name="iacute" unicode="&#xed;" horiz-adv-x="110" 
d="M-31 42q0 56 58 142q40 58 58 58q6 0 10.5 -5t4.5 -11q0 -12 -29 -54q-32 -47 -43 -70q-9 -24 -9 -34q0 -13 11 -13q14 0 39.5 27t49.5 67q12 20 22 20q5 0 9 -4.5t4 -10.5q0 -26 -51 -88q-57 -69 -96 -69q-16 0 -27 13.5t-11 31.5zM224 503q7 0 13 -5.5t6 -12.5
q0 -12 -44 -66q-23 -28 -32.5 -37t-18.5 -9q-16 0 -16 17q0 11 19 34q1 1 23 28q4 6 9.5 13t8.5 11t4 6q14 21 28 21zM66 -307z" />
    <glyph glyph-name="icircumflex" unicode="&#xee;" horiz-adv-x="110" 
d="M-31 42q0 56 58 142q40 58 58 58q6 0 10.5 -5t4.5 -11q0 -12 -29 -54q-32 -47 -43 -70q-9 -24 -9 -34q0 -13 11 -13q14 0 39.5 27t49.5 67q12 20 22 20q5 0 9 -4.5t4 -10.5q0 -26 -51 -88q-57 -69 -96 -69q-16 0 -27 13.5t-11 31.5zM80 418q0 15 23 25l23 11q36 16 51 16
q14 0 40 -31q25 -32 25 -47q0 -7 -6.5 -13.5t-14.5 -6.5q-12 0 -29 22q-20 26 -30 26q-2 0 -12 -4q-4 -2 -20 -8l-17 -5q-9 -3 -16 -3t-12 5.5t-5 12.5zM13 -307z" />
    <glyph glyph-name="idieresis" unicode="&#xef;" horiz-adv-x="110" 
d="M-31 42q0 56 58 142q40 58 58 58q6 0 10.5 -5t4.5 -11q0 -12 -29 -54q-32 -47 -43 -70q-9 -24 -9 -34q0 -13 11 -13q14 0 39.5 27t49.5 67q12 20 22 20q5 0 9 -4.5t4 -10.5q0 -26 -51 -88q-57 -69 -96 -69q-16 0 -27 13.5t-11 31.5zM87 416q0 25 26 49q19 19 33 19
q10 0 16.5 -6t6.5 -16q0 -21 -22 -45q-21 -24 -39 -24q-21 0 -21 23zM189 416q0 25 26 49q19 19 33 19q10 0 16.5 -6t6.5 -16q0 -21 -22 -45q-21 -24 -39 -24q-21 0 -21 23zM20 -307z" />
    <glyph glyph-name="ntilde" unicode="&#xf1;" horiz-adv-x="219" 
d="M56 147q4 4 9 9.5t6 6.5q47 52 83 80q35 28 53 28q9 0 17 -7.5t8 -15.5q0 -11 -23 -34q-28 -27 -49 -64t-21 -60q0 -6 4 -10.5t9 -4.5q12 0 35 24q16 18 33 45l18 27q10 17 22 17q5 0 9.5 -4t4.5 -9q0 -10 -16 -38q-32 -54 -66.5 -85.5t-60.5 -31.5q-18 0 -29.5 14.5
t-11.5 36.5q0 42 36 100q-49 -37 -76 -72.5t-50 -94.5q-7 -20 -23 -20q-10 0 -16.5 7t-6.5 16q0 12 17 57q36 93 79 161q26 39 37 51t21 12q18 0 18 -19q0 -12 -17 -34q-31 -37 -53 -88zM162 469q26 0 53 -8q29 -8 42 -8q26 0 51 11l8 2q13 0 13 -18q0 -17 -18.5 -28.5
t-44.5 -11.5q-5 0 -25 2q-5 1 -10.5 1.5t-9 1.5t-5.5 1l-24 6q-10 2 -23 2q-7 0 -10 -1l-18 -3q-17 0 -17 21q0 30 38 30zM57 -319z" />
    <glyph glyph-name="ograve" unicode="&#xf2;" horiz-adv-x="208" 
d="M188 166q-81 -171 -158 -171q-23 0 -36.5 16.5t-13.5 43.5q0 47 27 104.5t70 100.5q55 56 97 56q41 0 41 -47q0 -34 -13 -68q-1 -3 -12 -19q-4 -4 -4 -9q0 -1 2 -7zM124 132q-13 10 -12 15q0 4 5 9l10 12q42 47 44 80q1 6 -3.5 10.5t-10.5 4.5q-12 0 -34 -18.5t-44 -47.5
t-36.5 -64t-14.5 -58q0 -25 20 -25q19 0 40 23t36 59zM146 503q13 0 28 -21q1 -2 4 -6t8.5 -11t9.5 -13q22 -27 23 -28q18 -22 18 -34q0 -17 -15 -17t-51 46q-44 54 -44 66q0 7 6 12.5t13 5.5zM60 -307z" />
    <glyph glyph-name="oacute" unicode="&#xf3;" horiz-adv-x="208" 
d="M188 166q-81 -171 -158 -171q-23 0 -36.5 16.5t-13.5 43.5q0 47 27 104.5t70 100.5q55 56 97 56q41 0 41 -47q0 -34 -13 -68q-1 -3 -12 -19q-4 -4 -4 -9q0 -1 2 -7zM124 132q-13 10 -12 15q0 4 5 9l10 12q42 47 44 80q1 6 -3.5 10.5t-10.5 4.5q-12 0 -34 -18.5t-44 -47.5
t-36.5 -64t-14.5 -58q0 -25 20 -25q19 0 40 23t36 59zM278 503q7 0 13 -5.5t6 -12.5q0 -12 -44 -66q-23 -28 -32.5 -37t-18.5 -9q-16 0 -16 17q0 11 19 34q1 1 23 28q4 6 9.5 13t8.5 11t4 6q14 21 28 21zM120 -307z" />
    <glyph glyph-name="ocircumflex" unicode="&#xf4;" horiz-adv-x="208" 
d="M188 166q-81 -171 -158 -171q-23 0 -36.5 16.5t-13.5 43.5q0 47 27 104.5t70 100.5q55 56 97 56q41 0 41 -47q0 -34 -13 -68q-1 -3 -12 -19q-4 -4 -4 -9q0 -1 2 -7zM124 132q-13 10 -12 15q0 4 5 9l10 12q42 47 44 80q1 6 -3.5 10.5t-10.5 4.5q-12 0 -34 -18.5t-44 -47.5
t-36.5 -64t-14.5 -58q0 -25 20 -25q19 0 40 23t36 59zM127 418q0 15 23 25l23 11q36 16 51 16q14 0 40 -31q25 -32 25 -47q0 -7 -6.5 -13.5t-14.5 -6.5q-12 0 -29 22q-20 26 -30 26q-2 0 -12 -4q-4 -2 -20 -8l-17 -5q-9 -3 -16 -3t-12 5.5t-5 12.5zM60 -307z" />
    <glyph glyph-name="otilde" unicode="&#xf5;" horiz-adv-x="208" 
d="M188 166q-81 -171 -158 -171q-23 0 -36.5 16.5t-13.5 43.5q0 47 27 104.5t70 100.5q55 56 97 56q41 0 41 -47q0 -34 -13 -68q-1 -3 -12 -19q-4 -4 -4 -9q0 -1 2 -7zM124 132q-13 10 -12 15q0 4 5 9l10 12q42 47 44 80q1 6 -3.5 10.5t-10.5 4.5q-12 0 -34 -18.5t-44 -47.5
t-36.5 -64t-14.5 -58q0 -25 20 -25q19 0 40 23t36 59zM162 469q26 0 53 -8q29 -8 42 -8q26 0 51 11l8 2q13 0 13 -18q0 -17 -18.5 -28.5t-44.5 -11.5q-5 0 -25 2q-5 1 -10.5 1.5t-9 1.5t-5.5 1l-24 6q-10 2 -23 2q-7 0 -10 -1l-18 -3q-17 0 -17 21q0 30 38 30zM57 -319z" />
    <glyph glyph-name="odieresis" unicode="&#xf6;" horiz-adv-x="208" 
d="M188 166q-81 -171 -158 -171q-23 0 -36.5 16.5t-13.5 43.5q0 47 27 104.5t70 100.5q55 56 97 56q41 0 41 -47q0 -34 -13 -68q-1 -3 -12 -19q-4 -4 -4 -9q0 -1 2 -7zM124 132q-13 10 -12 15q0 4 5 9l10 12q42 47 44 80q1 6 -3.5 10.5t-10.5 4.5q-12 0 -34 -18.5t-44 -47.5
t-36.5 -64t-14.5 -58q0 -25 20 -25q19 0 40 23t36 59zM134 416q0 25 26 49q19 19 33 19q10 0 16.5 -6t6.5 -16q0 -21 -22 -45q-21 -24 -39 -24q-21 0 -21 23zM236 416q0 25 26 49q19 19 33 19q10 0 16.5 -6t6.5 -16q0 -21 -22 -45q-21 -24 -39 -24q-21 0 -21 23zM67 -307z
" />
    <glyph glyph-name="divide" unicode="&#xf7;" 
d="M33 667h334v-667h-334v667zM40 7h320v653h-320v-653z" />
    <glyph glyph-name="oslash" unicode="&#xf8;" horiz-adv-x="279" 
d="M269 285l13 11q10 9 17 9q5 0 9.5 -5t4.5 -10q0 -14 -45 -54q-15 -72 -67 -151q-58 -92 -116 -92q-40 0 -49 59q-8 -4 -9 -5q-13 -6 -20 -6q-5 0 -9.5 4.5t-4.5 9.5q0 11 21 26l19 12q2 3 10 7q19 77 79.5 146t109.5 69q26 0 37 -30zM225 244q2 6 2 7q-2 11 -14 11
q-17 0 -49 -34t-56 -79q23 16 62 48q38 32 55 47zM85 87q-1 -5 -1 -13q0 -26 20 -26q25 0 53.5 37.5t49.5 96.5q-6 -5 -19 -15l-44 -35l-48 -36z" />
    <glyph glyph-name="ugrave" unicode="&#xf9;" horiz-adv-x="249" 
d="M129 95q-25 -40 -44.5 -56t-42.5 -16q-20 0 -34 16.5t-14 41.5q0 36 21 85t55 91q21 27 42 46q13 12 23 12q7 0 13 -5.5t6 -13.5q0 -10 -16 -27q-36 -38 -64.5 -91t-28.5 -82q0 -16 13 -16q22 0 50 38q16 20 39 54q3 5 9.5 14t9.5 13q11 16 12 18l26 40q20 29 38 29
q16 0 16 -16q0 -12 -21 -44q-70 -99 -70 -147q0 -6 3.5 -10.5t8.5 -4.5q21 0 48 44l21 33q10 15 13 21q9 19 20 19q13 0 13 -13q0 -7 -5 -15l-10 -20q-63 -127 -116 -127q-19 0 -31 13.5t-12 34.5q0 17 9 41zM166 503q13 0 28 -21q1 -2 4 -6t8.5 -11t9.5 -13q22 -27 23 -28
q18 -22 18 -34q0 -17 -15 -17t-51 46q-44 54 -44 66q0 7 6 12.5t13 5.5zM80 -307z" />
    <glyph glyph-name="uacute" unicode="&#xfa;" horiz-adv-x="249" 
d="M129 95q-25 -40 -44.5 -56t-42.5 -16q-20 0 -34 16.5t-14 41.5q0 36 21 85t55 91q21 27 42 46q13 12 23 12q7 0 13 -5.5t6 -13.5q0 -10 -16 -27q-36 -38 -64.5 -91t-28.5 -82q0 -16 13 -16q22 0 50 38q16 20 39 54q3 5 9.5 14t9.5 13q11 16 12 18l26 40q20 29 38 29
q16 0 16 -16q0 -12 -21 -44q-70 -99 -70 -147q0 -6 3.5 -10.5t8.5 -4.5q21 0 48 44l21 33q10 15 13 21q9 19 20 19q13 0 13 -13q0 -7 -5 -15l-10 -20q-63 -127 -116 -127q-19 0 -31 13.5t-12 34.5q0 17 9 41zM298 503q7 0 13 -5.5t6 -12.5q0 -12 -44 -66q-23 -28 -32.5 -37
t-18.5 -9q-16 0 -16 17q0 11 19 34q1 1 23 28l22 30q14 21 28 21zM140 -307z" />
    <glyph glyph-name="ucircumflex" unicode="&#xfb;" horiz-adv-x="249" 
d="M129 95q-25 -40 -44.5 -56t-42.5 -16q-20 0 -34 16.5t-14 41.5q0 36 21 85t55 91q21 27 42 46q13 12 23 12q7 0 13 -5.5t6 -13.5q0 -10 -16 -27q-36 -38 -64.5 -91t-28.5 -82q0 -16 13 -16q22 0 50 38q16 20 39 54q3 5 9.5 14t9.5 13q11 16 12 18l26 40q20 29 38 29
q16 0 16 -16q0 -12 -21 -44q-70 -99 -70 -147q0 -6 3.5 -10.5t8.5 -4.5q21 0 48 44l21 33q10 15 13 21q9 19 20 19q13 0 13 -13q0 -7 -5 -15l-10 -20q-63 -127 -116 -127q-19 0 -31 13.5t-12 34.5q0 17 9 41zM147 418q0 15 23 25l23 11q36 16 51 16q14 0 40 -31
q25 -32 25 -47q0 -7 -6.5 -13.5t-14.5 -6.5q-12 0 -29 22q-20 26 -30 26q-2 0 -12 -4q-4 -2 -20 -8l-17 -5q-9 -3 -16 -3t-12 5.5t-5 12.5zM80 -307z" />
    <glyph glyph-name="udieresis" unicode="&#xfc;" horiz-adv-x="249" 
d="M129 95q-25 -40 -44.5 -56t-42.5 -16q-20 0 -34 16.5t-14 41.5q0 36 21 85t55 91q21 27 42 46q13 12 23 12q7 0 13 -5.5t6 -13.5q0 -10 -16 -27q-36 -38 -64.5 -91t-28.5 -82q0 -16 13 -16q22 0 50 38q16 20 39 54q3 5 9.5 14t9.5 13q11 16 12 18l26 40q20 29 38 29
q16 0 16 -16q0 -12 -21 -44q-70 -99 -70 -147q0 -6 3.5 -10.5t8.5 -4.5q21 0 48 44l21 33q10 15 13 21q9 19 20 19q13 0 13 -13q0 -7 -5 -15l-10 -20q-63 -127 -116 -127q-19 0 -31 13.5t-12 34.5q0 17 9 41zM154 416q0 25 26 49q19 19 33 19q10 0 16.5 -6t6.5 -16
q0 -21 -22 -45q-21 -24 -39 -24q-21 0 -21 23zM256 416q0 25 26 49q19 19 33 19q10 0 16.5 -6t6.5 -16q0 -21 -22 -45q-21 -24 -39 -24q-21 0 -21 23zM87 -307z" />
    <glyph glyph-name="ydieresis" unicode="&#xff;" horiz-adv-x="271" 
d="M160 138q-59 -69 -93 -97t-61 -28q-15 0 -24.5 10t-9.5 26q0 54 62 141q31 43 62 73q17 16 30 16q8 0 13.5 -6t5.5 -14q0 -14 -16 -32l-21 -22q-8 -8 -38 -44q-40 -51 -40 -74q0 -11 9 -11q15 0 46 28q21 18 48.5 47t39.5 45l26 36l21 28q23 33 40 33q8 0 14 -6.5
t6 -15.5q0 -14 -19 -47q-22 -38 -43 -75q-31 -55 -47 -98q33 19 57 44q41 41 53 65q9 20 19 20q14 0 14 -14q0 -24 -44 -77q-53 -60 -129 -104q-39 -92 -78 -164q-69 -119 -141 -119q-27 0 -44.5 19t-17.5 48q0 58 56 112q41 42 110 83l55 32q1 0 3 1.5t6 4t8 4.5
q10 24 27 60q21 40 35 72zM71 -54q-34 -17 -55 -34q-59 -42 -83 -76q-23 -33 -23 -58t25 -25q22 0 46 27q26 30 48 75l33 74q4 8 9 17zM155 416q0 25 26 49q19 19 33 19q10 0 16.5 -6t6.5 -16q0 -21 -22 -45q-21 -24 -39 -24q-21 0 -21 23zM257 416q0 25 26 49q19 19 33 19
q10 0 16.5 -6t6.5 -16q0 -21 -22 -45q-21 -24 -39 -24q-21 0 -21 23zM88 -307z" />
    <glyph glyph-name="dotlessi" unicode="&#x131;" horiz-adv-x="110" 
d="M-31 42q0 56 58 142q40 58 58 58q6 0 10.5 -5t4.5 -11q0 -12 -29 -54q-32 -47 -43 -70q-9 -24 -9 -34q0 -13 11 -13q14 0 39.5 27t49.5 67q12 20 22 20q5 0 9 -4.5t4 -10.5q0 -26 -51 -88q-57 -69 -96 -69q-16 0 -27 13.5t-11 31.5z" />
    <glyph glyph-name="OE" unicode="&#x152;" horiz-adv-x="662" 
d="M336 48q119 51 213 51q28 0 39 -6t11 -22q0 -24 -44 -23q-47 0 -94 -12q-73 -17 -106 -36l-30 -17q-14 -7 -21 -7q-14 0 -24.5 11.5t-10.5 25.5q0 15 27 85q-31 -38 -69 -72q-45 -39 -74 -54.5t-57 -15.5q-40 0 -64.5 28t-24.5 74q0 66 34.5 151.5t94.5 166.5
q53 72 124 145q22 23 57 52q-33 -8 -60 -21l-26 -13q-11 -6 -19 -6t-13 6.5t-5 16.5t8.5 18t33.5 20q74 37 141 37q54 0 92 -32.5t38 -79.5q0 -13 -4 -30q7 13 20 32l12 17q2 5 9 14q-21 3 -21 28q0 21 43 30l40 8q39 9 150 20q53 5 67 5q39 0 39 -27q0 -28 -47 -28
q-31 0 -117 -8q-58 -7 -102 -19q5 -6 5 -12q0 -10 -22 -39q-3 -6 -24 -36l-29 -44q-19 -29 -39 -67l18 4q53 11 106 17q28 4 45 4q32 0 32 -24q0 -27 -41 -28q-14 0 -69 -6q-69 -7 -123 -23q-21 -35 -37 -66q-39 -75 -63 -136q-9 -20 -19 -57zM343 579q8 -11 8 -17
q0 -9 -28 -38q-40 -43 -67 -75q-99 -113 -145 -207t-46 -167q0 -27 11.5 -43t31.5 -16q42 0 118 76q44 46 92 106.5t70 99.5q28 48 46.5 105t18.5 94q0 82 -87 82h-23z" />
    <glyph glyph-name="oe" unicode="&#x153;" horiz-adv-x="347" 
d="M225 259q59 50 97 50q18 0 30 -13t12 -32q0 -48 -46 -95t-93 -47q-13 0 -31 6q-17 -30 -17 -50q0 -34 34 -34q29 0 67.5 28t64.5 67q15 23 25 23q14 0 14 -15q0 -21 -38 -65q-34 -40 -74.5 -64.5t-72.5 -24.5q-51 0 -71 53q-46 -52 -89 -52q-21 0 -35.5 18.5t-14.5 46.5
q0 45 27.5 100t72.5 100q57 57 100 57q16 0 28 -11t12 -26q0 -4 -2 -20zM217 174q10 -6 18 -6q27 0 53 26q32 32 32 57q0 14 -12 14q-29 0 -91 -91zM60 48q31 0 77 76q50 81 50 117q0 22 -18 22q-28 0 -79 -69q-52 -69 -52 -118q0 -11 6.5 -19.5t15.5 -8.5z" />
    <glyph glyph-name="Ydieresis" unicode="&#x178;" horiz-adv-x="317" 
d="M402 727q0 25 26 49q19 19 33 19q10 0 16.5 -6t6.5 -16q0 -21 -22 -45q-21 -24 -39 -24q-21 0 -21 23zM504 727q0 25 26 49q19 19 33 19q10 0 16.5 -6t6.5 -16q0 -21 -22 -45q-21 -24 -39 -24q-21 0 -21 23zM330 320q-40 -39 -94 -87q-44 -38 -65.5 -50.5t-42.5 -12.5
q-22 0 -37 18t-15 46q0 56 41.5 135t106.5 149q51 56 96 86q24 16 39 16q8 0 13.5 -5.5t5.5 -13.5q0 -19 -33 -39q-26 -17 -63.5 -53t-61.5 -68q-32 -43 -60 -102t-28 -86q0 -9 6 -15.5t14 -6.5q20 0 64 35q38 30 59.5 51t65.5 69q69 77 107 128l40 54q2 2 5.5 6t10.5 13
t15 18q34 41 48 41q10 0 16.5 -8.5t6.5 -19.5q0 -18 -18 -41q-54 -69 -97 -128q-105 -141 -148 -221q-17 -30 -44 -88q-53 -115 -66 -158q-10 -32 -19.5 -44t-23.5 -12q-23 0 -23 22q0 28 37.5 113t81.5 158l44 74q1 1 3 4t5.5 10t7.5 13z" />
    <glyph glyph-name="florin" unicode="&#x192;" horiz-adv-x="343" 
d="M164 250l-4 -1l-16 -4q-40 -9 -69 -9q-31 0 -31 19q0 30 50 31q46 2 92 16l3 7q58 132 107 182t121 50q42 0 42 -25q0 -26 -36 -24h-16q-48 0 -82 -37t-73 -121q-2 -5 -4.5 -10.5t-3.5 -7.5q2 0 4.5 1t4.5 1q50 14 66 14q52 0 52 -28q0 -13 -10 -18t-37 -5
q-56 0 -102 -19l-2 -6q-1 -3 -8 -19.5t-11 -25.5q-6 -16 -12 -31q-42 -108 -72 -157q-40 -66 -96 -123t-81 -57q-7 0 -12 5t-5 11q0 15 39 50q116 102 172 259l24 66q2 6 6 16z" />
    <glyph glyph-name="circumflex" unicode="&#x2c6;" horiz-adv-x="295" 
d="M67 418q0 15 23 25l23 11q36 16 51 16q14 0 40 -31q25 -32 25 -47q0 -7 -6.5 -13.5t-14.5 -6.5q-12 0 -29 22q-20 26 -30 26q-2 0 -12 -4q-4 -2 -20 -8l-17 -5q-9 -3 -16 -3t-12 5.5t-5 12.5zM0 -307z" />
    <glyph glyph-name="caron" unicode="&#x2c7;" 
d="M33 667h334v-667h-334v667zM40 7h320v653h-320v-653z" />
    <glyph glyph-name="breve" unicode="&#x2d8;" horiz-adv-x="523" 
d="M192 148q18 5 30 12.5t42 31.5l10 18q60 95 88 95q18 0 18 -18t-25 -55t-61 -72q-8 -18 -15 -40q0 -2 -2.5 -9t-4.5 -12l20 20l45 48q17 17 39 38q56 50 75 65q39 28 55 28q7 0 12.5 -5.5t5.5 -12.5q0 -16 -25 -43l-28 -30q-26 -29 -44.5 -68t-18.5 -67q0 -25 19 -25
q12 0 37 21q44 41 64 41q8 0 13.5 -6.5t5.5 -16.5q0 -16 -18 -26l-21 -13q-16 -9 -49 -35q-27 -22 -46 -22q-25 0 -40 18.5t-15 49.5q0 43 35 113q-52 -43 -103 -115q-25 -35 -36.5 -45.5t-24.5 -10.5q-9 0 -15.5 7.5t-6.5 18.5q0 28 29 100q-36 -22 -71 -28
q-66 -119 -130 -119q-25 0 -41 19.5t-16 49.5q0 32 15 71t39 70l17 20q0 1 12 20q53 83 113 83q45 0 45 -62q0 -41 -27 -102zM145 139q29 66 29 94q0 23 -18 23q-14 0 -35 -16q0 -2 0.5 -4.5t0.5 -3.5q0 -9 -9 -18q-13 -16 -13 -31q0 -20 12 -31.5t33 -12.5zM115 94
q-26 8 -36.5 19t-18.5 36q-32 -44 -32 -89q0 -26 20 -26q14 0 34 18t33 42z" />
    <glyph glyph-name="dotaccent" unicode="&#x2d9;" horiz-adv-x="360" 
d="M180 174q30 24 55 55q1 2 4.5 6t5.5 6q-12 10 -12 25q0 33 28 69q33 44 59 44q20 0 20 -22q0 -24 -30 -67q-7 -10 -9 -13h12q22 0 34 -2q17 -5 17 -22q0 -10 -16 -30q-27 -32 -53 -81.5t-26 -68.5q0 -18 14 -18q13 0 46 38q36 41 49 63q14 21 25 21q10 0 10 -11
q0 -24 -46 -81q-66 -87 -105 -87q-20 0 -33.5 14.5t-13.5 36.5q0 51 45 117l29 41l1 2q2 2 4 6t4 7l-9 1q-7 1 -20 4q-29 -43 -106 -107q-29 -49 -49 -74q-47 -57 -83 -57q-20 0 -34.5 18t-14.5 45q0 38 19 84t50 85q30 38 66 65q25 17 43 17q17 0 30 -14.5t13 -34.5
q0 -26 -23 -80zM119 112q-13 8 -12 14q0 3 5 10l13 14q13 13 24.5 39.5t11.5 43.5q0 8 -4.5 13.5t-10.5 5.5q-24 0 -69 -61q-46 -65 -46 -117q0 -29 24 -29q16 0 36 20.5t28 46.5z" />
    <glyph glyph-name="ring" unicode="&#x2da;" horiz-adv-x="265" 
d="M67 394q0 37 38 75q33 31 58 31q15 0 25 -10.5t10 -25.5q0 -34 -38 -72q-32 -33 -59 -33q-14 0 -24 10.5t-10 24.5zM98 403q0 -12 11 -12q17 0 35 20q20 24 20 41q1 5 -3.5 9.5t-9.5 4.5q-11 0 -27 -15q-26 -24 -26 -48zM0 -307z" />
    <glyph glyph-name="ogonek" unicode="&#x2db;" 
d="M33 667h334v-667h-334v667zM40 7h320v653h-320v-653z" />
    <glyph glyph-name="tilde" unicode="&#x2dc;" horiz-adv-x="305" 
d="M88 469q26 0 53 -8q29 -8 42 -8q26 0 51 11l8 2q13 0 13 -18q0 -17 -18.5 -28.5t-44.5 -11.5q-5 0 -25 2q-5 1 -10.5 1.5t-9 1.5t-5.5 1l-24 6q-10 2 -23 2q-7 0 -10 -1l-18 -3q-17 0 -17 21q0 30 38 30zM-17 -319z" />
    <glyph glyph-name="hungarumlaut" unicode="&#x2dd;" 
d="M33 667h334v-667h-334v667zM40 7h320v653h-320v-653z" />
    <glyph glyph-name="Delta" unicode="&#x394;" horiz-adv-x="156" 
d="M-45 36q-18 -18 -29 -18q-13 0 -13 12q0 9 7 16l20 22q10 12 20 27q5 6 14.5 19t14.5 20q11 15 20 29q7 8 14 19l27 42q69 104 122 104q27 0 27 -27t-39 -35q-46 -10 -46 -53q0 -13 3 -39q2 -24 2 -33q0 -63 -33.5 -111t-77.5 -48q-21 0 -35 14.5t-18 39.5zM-15 73
q0 -18 8.5 -29t21.5 -11q25 0 45 41t20 93q0 9 -3 29q-20 -19 -39 -51q-18 -28 -23 -33l-22 -29z" />
    <glyph glyph-name="Omega" unicode="&#x3a9;" horiz-adv-x="318" 
d="M66 164q36 38 72 67q46 36 63 36q8 0 14 -5t6 -12q0 -9 -17 -30q-27 -35 -37 -57q37 38 79 72q54 43 77 43q9 0 15.5 -6t6.5 -14q0 -14 -21 -35q-34 -36 -57 -70q-35 -53 -35 -85q0 -26 9 -37l13 -16q3 -5 3 -11q0 -9 -7 -16t-15 -7q-19 0 -33 24t-14 54q0 60 54 133
q-43 -34 -84 -86q-32 -43 -53 -83q-11 -22 -25 -22q-18 0 -18 19q0 18 28 82q16 37 38 75q-80 -64 -114 -148l-11 -27q-10 -24 -28 -24q-7 0 -12.5 6t-5.5 14q0 15 18 65q27 83 78 162q23 37 35.5 50.5t22.5 13.5q15 0 15 -14q0 -9 -18 -35q-1 -2 -27 -44q-5 -9 -15 -32z
" />
    <glyph glyph-name="pi" unicode="&#x3c0;" horiz-adv-x="131" 
d="M65 163l-4 -10q-25 -67 -25 -83q0 -13 11 -13q14 0 35 21q19 19 32 41l18 29q10 17 21 17q13 0 13 -13q0 -9 -18 -40q-68 -111 -123 -111q-17 0 -28 12t-11 31q0 55 66 193q82 174 171 291q69 91 116 91q14 0 24 -10.5t10 -26.5q0 -58 -88 -180q-47 -67 -87 -111
t-118 -114zM100 241q67 59 126 139q41 53 69 103.5t28 68.5q0 10 -10 10q-26 0 -97 -106q-63 -95 -116 -215z" />
    <glyph glyph-name="endash" unicode="&#x2013;" horiz-adv-x="410" 
d="M74 169q1 31 60 32l64 1q22 0 43 -1q7 0 19 -0.5t18 -0.5h25q32 -1 43 -6.5t11 -22.5q0 -27 -24 -27h-7q-6 1 -10 1q-4 1 -32 2h-22h-56q-20 0 -46 -1q-30 -2 -39 -4q-12 -3 -21 -3q-11 0 -19 9t-7 21z" />
    <glyph glyph-name="emdash" unicode="&#x2014;" horiz-adv-x="1127" 
d="M74 169q1 31 60 32q26 0 51 1q153 3 401 3h78h53l163 -3h47q21 -1 31 -1q24 0 37 -1h25q32 -1 43 -6.5t11 -22.5q0 -12 -6.5 -19.5t-17.5 -7.5q-1 0 -7 0.5t-10 0.5q-4 1 -37 2h-24l-121 1l-159 1l-181 2l-180 -1q-50 0 -75 -1q-34 0 -49 -1l-47 -2q-18 -1 -39 -4
q-12 -3 -21 -3q-11 0 -19 9t-7 21z" />
    <glyph glyph-name="quoteleft" unicode="&#x2018;" horiz-adv-x="152" 
d="M329 624q-1 -13 -22 -30q-22 -20 -42 -53.5t-24 -59.5l-3 -21q-2 -12 -11.5 -20t-21.5 -8q-22 0 -22 29q0 45 49 116q20 30 47 54q19 16 28 16t16 -7.5t6 -15.5z" />
    <glyph glyph-name="quoteright" unicode="&#x2019;" horiz-adv-x="152" 
d="M153 454q0 14 21 31q22 19 42 52.5t24 59.5l3 21q2 13 11.5 21t21.5 8q23 0 23 -29q0 -45 -50 -116q-20 -30 -47 -54q-19 -16 -28 -16t-15.5 7t-5.5 15z" />
    <glyph glyph-name="quotesinglbase" unicode="&#x201a;" horiz-adv-x="328" 
d="M54 235l9 18q63 125 99 184q41 70 104 145q29 34 44 34q8 0 15 -6.5t7 -14.5q0 -9 -17 -25q-26 -26 -77 -100q-31 -46 -61 -97q-2 -3 -4 -6.5t-7.5 -13.5t-11.5 -20q-40 -72 -56 -110q60 5 101 38q1 36 22.5 66.5t46.5 30.5q19 0 19 -21q0 -31 -40 -80q14 -6 16 -7
q24 -10 32.5 -16.5t8.5 -16.5q0 -11 -21 -43q-55 -86 -55 -120q0 -6 3.5 -10.5t8.5 -4.5q16 0 45 34q20 24 47 76q15 28 21 35.5t14 7.5q14 0 14 -15q0 -11 -18 -47q-31 -63 -69 -107q-35 -42 -70 -42q-22 0 -35 15t-13 40q0 43 24 86l22 39q2 4 5 9.5t4.5 8.5t2.5 4
q6 9 6 13q0 12 -27 23q-1 0 -4 1.5l-5 2.5q-34 -25 -80 -38q27 -45 27 -101q0 -113 -62 -244q-58 -120 -122 -120q-26 0 -41.5 21.5t-15.5 59.5q0 85 57 235q44 109 45 111q2 4 8.5 18t12.5 27q-39 15 -39 36q0 9 7.5 16t16.5 7q17 0 36 -16zM77 178q-39 -72 -77 -178
q-42 -119 -42 -181q0 -41 22 -39q37 2 82 104q49 114 49 202q0 50 -34 92z" />
    <glyph glyph-name="quotedblleft" unicode="&#x201c;" horiz-adv-x="263" 
d="M329 624q-1 -13 -22 -30q-22 -20 -42 -53.5t-24 -59.5l-3 -21q-2 -12 -11.5 -20t-21.5 -8q-23 0 -23 29q0 43 50 116q20 30 47 54q19 16 28 16t16 -7.5t6 -15.5zM440 624q-1 -13 -21 -30q-22 -19 -41.5 -53t-24.5 -60l-4 -21q-2 -12 -11 -20t-22 -8q-22 0 -22 29
q0 42 49 116q19 28 48 54q17 16 28 16q8 0 15 -7.5t6 -15.5z" />
    <glyph glyph-name="quotedblright" unicode="&#x201d;" horiz-adv-x="263" 
d="M152 454q1 14 22 31q22 19 42 52.5t24 59.5l3 21q2 13 11.5 21t21.5 8q23 0 23 -29q0 -45 -50 -116q-20 -30 -47 -54q-19 -16 -28 -16t-16 7t-6 15zM264 454q1 14 21 31q22 19 41.5 52t24.5 60l4 21q2 13 11.5 21t21.5 8q22 0 22 -29q0 -46 -49 -116q-18 -26 -47 -54
q-19 -16 -29 -16q-8 0 -15 7t-6 15z" />
    <glyph glyph-name="quotedblbase" unicode="&#x201e;" horiz-adv-x="318" 
d="M-66 -94q1 13 21 30q22 19 41.5 52.5t24.5 60.5l4 21q2 12 11.5 20t21.5 8q22 0 22 -29q0 -45 -49 -116q-18 -27 -47 -54q-19 -16 -29 -16q-8 0 -15 7.5t-6 15.5zM46 -94q1 13 21 30q22 19 41.5 52.5t24.5 60.5l4 21q2 12 11 20t22 8q22 0 22 -29q0 -42 -49 -116
q-19 -28 -48 -54q-17 -16 -28 -16q-8 0 -15 7.5t-6 15.5z" />
    <glyph glyph-name="dagger" unicode="&#x2020;" 
d="M33 667h334v-667h-334v667zM40 7h320v653h-320v-653z" />
    <glyph glyph-name="daggerdbl" unicode="&#x2021;" 
d="M33 667h334v-667h-334v667zM40 7h320v653h-320v-653z" />
    <glyph glyph-name="bullet" unicode="&#x2022;" horiz-adv-x="338" 
d="M167 337q0 29 20 49.5t48 20.5q29 0 49.5 -20.5t20.5 -49.5t-20.5 -49t-48.5 -20t-48.5 20.5t-20.5 48.5z" />
    <glyph glyph-name="ellipsis" unicode="&#x2026;" horiz-adv-x="1000" 
d="M74 21q0 26 15 50.5t31 24.5q10 0 17 -7.5t7 -18.5q0 -28 -15 -51.5t-32 -23.5q-23 0 -23 26zM407 21q0 26 15.5 50.5t31.5 24.5q10 0 16.5 -7.5t6.5 -18.5q0 -28 -14.5 -51.5t-32.5 -23.5q-23 0 -23 26zM740 21q0 26 15.5 50.5t31.5 24.5q10 0 16.5 -7.5t6.5 -18.5
q0 -28 -14.5 -51.5t-32.5 -23.5q-10 0 -16.5 7t-6.5 19z" />
    <glyph glyph-name="perthousand" unicode="&#x2030;" horiz-adv-x="645" 
d="M307 419q67 30 107 62l29 23q16 11 29 11q10 0 16.5 -6.5t6.5 -14.5q0 -17 -46 -74q-50 -63 -122 -137q-42 -42 -68 -69q-78 -86 -111.5 -129.5t-74.5 -114.5q-18 -30 -25.5 -39t-14.5 -9q-8 0 -15.5 6.5t-7.5 13.5q0 17 44 84q44 63 93 121q11 13 29.5 34t20.5 23
q11 13 21.5 24.5t11.5 12.5l35 34l35 37l53 54q24 25 54 66q-64 -43 -135 -69q-61 -77 -120 -77q-19 0 -31.5 13t-12.5 33q0 24 21.5 56.5t55.5 60.5q55 42 97 42q17 0 27.5 -9t10.5 -23q0 -15 -13 -40zM359 77q2 -4 2 -8q0 -11 -34 -45q-28 -30 -60 -49t-53 -19
q-18 0 -29.5 12.5t-11.5 31.5q0 52 56 108q59 59 112 59q19 0 31.5 -10.5t12.5 -26.5q0 -29 -26 -53zM546 77l2 -8q0 -9 -34 -45q-28 -30 -60 -49t-54 -19q-17 0 -28.5 12.5t-11.5 31.5q0 52 56 108q57 59 111 59q19 0 31.5 -10.5t12.5 -26.5q0 -29 -25 -53zM228 367
q-6 7 -6 15q0 10 12 17l17 11q19 10 19 24q0 10 -11 10q-20 0 -50 -25q-54 -43 -54 -71q0 -16 14 -16q18 0 59 35zM287 36q-2 3 -4 7q-3 5 -3 6q0 2 6 8l10 8q35 29 35 45q0 12 -10 12q-28 0 -67 -44q-33 -36 -33 -60q0 -6 4.5 -10.5t10.5 -4.5q18 0 51 33zM473 36
q-1 2 -2.5 4t-1.5 3l-2 6q0 3 6 8l10 8q34 28 34 45q0 12 -10 12q-27 0 -66 -44q-33 -35 -33 -60q0 -6 4.5 -10.5t10.5 -4.5q18 0 50 33z" />
    <glyph glyph-name="guilsinglleft" unicode="&#x2039;" horiz-adv-x="248" 
d="M80 154q0 28 35 61q31 30 47 30q10 0 18 -7.5t8 -15.5q0 -11 -24 -30q-28 -21 -28 -36q0 -12 12 -33q12 -20 12 -28q0 -10 -9 -18.5t-19 -8.5q-20 0 -37 35q-15 33 -15 51z" />
    <glyph glyph-name="guilsinglright" unicode="&#x203a;" horiz-adv-x="248" 
d="M181 173q0 -29 -35 -62q-31 -30 -46 -30q-10 0 -18.5 7.5t-8.5 16.5q0 12 25 29q27 21 27 36q0 12 -12 33q-12 22 -12 28q0 10 9 18.5t19 8.5q20 0 37 -35q15 -32 15 -50z" />
    <glyph glyph-name="fraction" unicode="&#x2044;" horiz-adv-x="133" 
d="M309 493q0 -12 -20 -40q-63 -85 -148 -170q-42 -42 -67 -69q-79 -86 -112.5 -129.5t-74.5 -114.5q-16 -29 -24 -38.5t-16 -9.5t-15.5 6.5t-7.5 13.5q0 17 44 84q39 56 94 121q13 15 49 57q17 18 33 37l35 34l35 37l54 54q50 54 75 102q16 30 23.5 38.5t18.5 8.5t17.5 -6
t6.5 -16z" />
    <glyph glyph-name="trademark" unicode="&#x2122;" 
d="M33 667h334v-667h-334v667zM40 7h320v653h-320v-653z" />
    <glyph glyph-name="partialdiff" unicode="&#x2202;" horiz-adv-x="233" 
d="M84 201q33 36 72 62q46 33 66 33q10 0 17.5 -8t7.5 -17q0 -15 -21 -41q-38 -50 -61 -97q-19 -40 -19 -52q0 -13 13 -13q27 0 89 93q12 19 23 19q10 0 10 -12q0 -11 -14 -35q-33 -58 -69.5 -92t-65.5 -34q-17 0 -27 12t-10 32q0 29 20 75q8 20 44 79q4 7 11 19
q-52 -27 -99 -90q-16 -20 -38.5 -62t-30.5 -65q-6 -19 -20 -19q-9 0 -15 6t-6 16q0 16 24 74l37 90q41 98 113 230q50 90 85 150q17 30 33 30q8 0 14 -7.5t6 -17.5q0 -15 -16 -37q-8 -11 -30 -47q-5 -8 -14 -23.5t-13 -22.5q-11 -18 -18 -31l-49 -91q-37 -70 -49 -106z" />
    <glyph glyph-name="product" unicode="&#x220f;" horiz-adv-x="289" 
d="M167 210q-31 -76 -31 -119q0 -22 9 -36.5t24 -14.5q24 0 60 29.5t65 73.5q13 19 24 19t11 -11q0 -12 -18 -39q-83 -123 -155 -123q-38 0 -54 37q-11 27 -11 55q0 27 11 75q-24 -21 -45 -51q-25 -36 -51 -78q-18 -28 -31 -28q-7 0 -12.5 6.5t-5.5 14.5q0 12 24 70
q48 109 102 206q73 133 154.5 224.5t127.5 91.5q12 0 21 -10.5t9 -24.5q0 -34 -30.5 -85.5t-80.5 -101.5q-65 -66 -142 -127q-29 -21 -54 -37l-7 -14l-16 -33l-13 -28q64 69 97 91q21 15 54 29.5t46 14.5q16 0 16 -17q0 -15 -22 -22q-36 -11 -76 -37zM125 294q39 26 83 65
q68 65 106 122q31 47 31 63q0 11 -11 11q-26 0 -88 -77t-121 -184z" />
    <glyph glyph-name="summation" unicode="&#x2211;" horiz-adv-x="92" 
d="M-42 9q0 5 13 46q26 85 88 180q38 59 54 59q7 0 12.5 -5.5t5.5 -12.5q0 -9 -14 -29q-71 -106 -105 -211l-8 -26q-8 -24 -25 -24q-9 0 -15 6.5t-6 16.5zM146 406q0 25 26 49q20 20 33 20q10 0 16.5 -6.5t6.5 -16.5q0 -21 -22 -45q-21 -24 -39 -24q-21 0 -21 23z" />
    <glyph glyph-name="radical" unicode="&#x221a;" horiz-adv-x="203" 
d="M194 180q31 10 51 26l12 10q7 5 11 5q11 0 11 -12q0 -19 -31.5 -42t-78.5 -38q-70 -134 -141 -134q-22 0 -35.5 18t-13.5 46q0 37 23 87.5t59 94.5q61 75 112 75q41 0 41 -47q0 -30 -20 -89zM124 132q-14 9 -12 15q0 5 4 8l12 13q16 16 28.5 41t12.5 41q0 13 -11 13
q-14 0 -37.5 -20.5t-44.5 -50.5q-50 -70 -50 -117q0 -26 22 -26q18 0 40.5 24t35.5 59z" />
    <glyph glyph-name="infinity" unicode="&#x221e;" horiz-adv-x="437" 
d="M264 308q-5 -28 -9 -63q-4 -41 -4 -86q0 -119 36 -119q19 0 48 36q26 31 44 61q13 22 23 22q12 0 12 -12q0 -7 -4 -15l-13 -24q-18 -34 -53 -78q-38 -46 -74 -46q-42 0 -57 55q-12 50 -12 114q0 77 14 159q9 50 32 50q6 0 16 -4l25 -11q15 -5 31 -5q63 0 116 68
q53 67 53 120q0 22 -11.5 34.5t-32.5 12.5q-33 0 -76.5 -27t-82.5 -73q-41 -46 -110 -177q-69 -130 -101 -216q-26 -73 -30 -103q-6 -30 -24 -30q-12 0 -19.5 9t-7.5 23q0 19 18 79q16 51 70 165q41 83 77 145l49 88q42 74 56 129q9 33 15.5 42.5t19.5 9.5q21 0 21 -24
q0 -22 -17 -68q42 34 87 54.5t80 20.5q32 0 53 -22t21 -56q0 -86 -76 -167t-157 -81q-18 0 -46 10z" />
    <glyph glyph-name="integral" unicode="&#x222b;" horiz-adv-x="333" 
d="M70 171q80 78 117 78q19 0 19 -21q0 -7 -4 -19l-9 -18q-1 -2 -3 -8t-4 -11q41 41 61 57q55 44 74 44q7 0 12.5 -6t5.5 -14q0 -15 -20 -47q-32 -51 -39 -71q-12 -32 -12 -75q0 -26 4 -38q5 -22 5 -29q0 -8 -5.5 -13.5t-13.5 -5.5q-19 0 -27 26q-8 24 -8 60q0 73 41 137
q-42 -21 -68 -57q-39 -50 -61 -100q-11 -26 -27 -26q-7 0 -12 5t-5 12q0 11 13 48q20 52 50 113q-34 -18 -84 -70q-28 -31 -64 -97q-16 -30 -32 -30t-16 16q0 9 14 48q35 91 82 168q41 66 59 66q6 0 11 -4.5t5 -10.5q0 -10 -14 -30q-1 -1 -3.5 -5t-7 -10.5t-8.5 -13.5
q-17 -28 -26 -48z" />
    <glyph glyph-name="approxequal" unicode="&#x2248;" horiz-adv-x="206" 
d="M65 237q-4 12 -4 15q0 26 21 55q27 32 52 32q8 0 13.5 -5.5t5.5 -13.5q0 -19 -25 -54q22 -5 28 -5h18q21 0 21 -15q0 -9 -17 -35l-18 -26q-2 -2 -5 -7.5t-9 -15.5t-11 -18q-24 -43 -24 -58q0 -17 15 -17q18 0 49 35q30 35 47 67q15 29 25 29q5 0 8.5 -4.5t3.5 -10.5
q0 -11 -13 -37t-30 -49q-67 -87 -114 -87q-18 0 -31 15t-13 36q0 62 72 157l-9 1q-7 1 -22 4q-12 -22 -36 -54l-35 -48q-15 -19 -28 -19q-17 0 -17 11q0 6 17 27l24 32q9 13 33 50z" />
    <glyph glyph-name="notequal" unicode="&#x2260;" horiz-adv-x="217" 
d="M78 144q-1 14 -1 30q0 19 1 32q1 20 1 38q1 55 27 55q21 0 21 -25q0 -11 -1 -19t-1 -31v-23q6 7 12 13l29 33q18 21 39 39q16 15 26 15q14 0 14 -16q0 -12 -15 -26q-52 -45 -97 -104l-9 -12v-12l1 -35q0 -34 16 -34q15 0 39 30q29 37 42 60q13 21 25 21q11 0 11 -12
q0 -11 -16 -39q-28 -46 -60 -82q-34 -40 -61 -40q-23 0 -31.5 18t-11.5 73q-10 -12 -10 -13l-29 -36q-46 -57 -62 -57q-15 0 -15 24q0 10 4 16t23 22q34 31 56 57l24 29l1 1q2 2 4 5t4 5z" />
    <glyph glyph-name="lessequal" unicode="&#x2264;" horiz-adv-x="256" 
d="M203 286q50 105 92 178q41 71 57.5 92t30.5 21q8 0 14.5 -6.5t6.5 -14.5q0 -10 -17 -37q-74 -120 -130 -232q-68 -137 -68 -204q0 -38 15 -51l13 -9q3 -3 3 -10q0 -10 -7.5 -18t-16.5 -8q-22 0 -41 36q-9 16 -11 62q-52 -92 -97 -92q-23 0 -38.5 22.5t-15.5 54.5
q0 74 55 152q55 76 117 76q20 0 38 -12zM186 246q-13 9 -24 9q-41 0 -81 -57t-43 -118q-1 -12 5 -20.5t16 -7.5q22 1 51 49q33 49 69 130q2 2 7 15z" />
    <glyph glyph-name="greaterequal" unicode="&#x2265;" horiz-adv-x="217" 
d="M39 95v-10q0 -16 12.5 -26t32.5 -10q61 0 142 94q13 16 23 16q5 0 9 -4t4 -9q0 -19 -47 -64q-83 -81 -154 -81q-33 0 -53 20t-20 52q0 85 78 163q63 65 109 65q15 0 25.5 -10t10.5 -25q0 -24 -19.5 -57t-49.5 -59q-43 -39 -103 -55zM50 133q30 11 49 24t41 38
q24 27 24 45q0 10 -9 10q-23 0 -64 -48q-25 -29 -41 -69z" />
    <glyph glyph-name="lozenge" unicode="&#x25ca;" horiz-adv-x="199" 
d="M159 214v-6v-10l3 -27q1 -8 1 -25q0 -61 -31.5 -108.5t-72.5 -47.5q-23 0 -38 16t-15 41q0 28 14 49.5t32 21.5q10 0 10 -9q0 -3 -3 -8q-11 -20 -11 -35q0 -23 20 -23q23 0 39.5 32t16.5 75q0 15 -2 36q-10 -5 -11 -5l-17 -10q-6 -3 -12 -3q-10 0 -10 14q0 22 36 41
q15 7 20 21q11 32 31.5 52t42.5 20q19 0 19 -20q0 -34 -50 -73q-5 -3 -12 -9z" />
    <glyph glyph-name="apple" unicode="&#xf8ff;" 
d="M33 667h334v-667h-334v667zM40 7h320v653h-320v-653z" />
    <glyph glyph-name="fi" unicode="&#xfb01;" horiz-adv-x="315" 
d="M125 273q82 33 144 33q72 0 72 -28q0 -9 -35 -56q-54 -75 -70 -109q-13 -28 -13 -41t11 -13q15 0 40 25q24 27 51 70q11 16 19 16q14 0 14 -12q0 -23 -52 -92q-23 -30 -49 -48.5t-46 -18.5q-16 0 -27 14t-11 34q0 66 108 214q-14 2 -30 2q-85 0 -156 -49q58 -28 58 -117
q0 -119 -72 -250q-63 -118 -121 -118q-24 0 -38.5 20.5t-14.5 54.5q0 69 37 171q27 75 69 166l5 11h-9q-12 0 -12 14q0 11 6.5 20t28.5 27q20 18 21 19q11 17 33 61q70 139 143 237q38 48 57.5 67t33.5 19q7 0 12.5 -5t5.5 -12q0 -12 -18 -31q-58 -68 -104 -137
q-30 -46 -68 -114q-19 -36 -23 -44zM339 405q0 22 27 49q19 19 33 19q22 0 22 -22t-21 -46t-39 -24q-10 0 -16 6.5t-6 17.5zM74 168q-49 -98 -84.5 -198.5t-35.5 -140.5q0 -43 24 -43q18 0 51 49q36 55 60 129t24 128q0 33 -8.5 49.5t-30.5 26.5z" />
    <glyph glyph-name="fl" unicode="&#xfb02;" horiz-adv-x="324" 
d="M74 267q7 14 10 17l40 78q59 114 132 204q41 52 59 52q7 0 12.5 -6.5t5.5 -14.5q0 -12 -14 -26q-45 -50 -80 -102q-52 -79 -116 -200l-9 -18q26 -5 47 -5q31 0 88 15q23 51 68 126q59 99 99 149q67 83 113 83q15 0 26 -11.5t11 -27.5q0 -38 -46 -116q-47 -76 -126 -146
q-54 -49 -108 -77l-6 -14q-45 -110 -45 -147q0 -20 14 -20q27 0 80 74q19 26 27 26q5 0 8.5 -4.5t3.5 -10.5q0 -25 -50 -83q-54 -65 -96 -65q-19 0 -30 15t-11 41q0 51 22 103l18 45q2 4 6 16q-41 -9 -66 -9q-4 -1 -18 -1q25 -41 25 -95q0 -95 -56 -223q-73 -173 -145 -173
q-53 0 -53 92q0 137 135 407q-36 11 -36 37q0 11 9 17.5t23 6.5t29 -9zM89 196q-19 -33 -41 -85q-91 -221 -91 -299q0 -16 6.5 -26.5t17.5 -10.5q31 0 82 103q66 135 66 232q0 60 -40 86zM311 291q99 71 157 166q43 72 43 93q0 9 -9 9q-25 -1 -88 -94q-46 -69 -73 -115
q-14 -21 -30 -59z" />
    </font>
</defs>
</svg>
