<?xml version="1.0" standalone="no"?>
<!DOCTYPE svg PUBLIC "-//W3C//DTD SVG 1.1//EN" "http://www.w3.org/Graphics/SVG/1.1/DTD/svg11.dtd" >
<svg xmlns="http://www.w3.org/2000/svg" xmlns:xlink="http://www.w3.org/1999/xlink" version="1.1">
<metadata>
Created by FontForge 20170731 at Sat Apr 13 15:55:48 1996
 By Aleksey,,,
Digitized data copyright The Monotype Corporation 1991-1995. All rights reserved. French Script is a trademark of The Monotype Corporation which may be registered in certain jurisdictions.
</metadata>
<defs>
<font id="FrenchScriptMT" horiz-adv-x="385" >
  <font-face 
    font-family="French Script MT"
    font-weight="400"
    font-stretch="normal"
    units-per-em="2048"
    panose-1="3 2 4 2 4 6 7 4 6 5"
    ascent="1638"
    descent="-410"
    x-height="457"
    cap-height="1331"
    bbox="-342 -625 2062 1878"
    underline-thickness="102"
    underline-position="-307"
    unicode-range="U+0020-F003"
  />
<missing-glyph horiz-adv-x="2048" 
d="M256 0v1536h1536v-1536h-1536zM384 128h1280v1280h-1280v-1280z" />
    <glyph glyph-name=".notdef" horiz-adv-x="2048" 
d="M256 0v1536h1536v-1536h-1536zM384 128h1280v1280h-1280v-1280z" />
    <glyph glyph-name=".null" horiz-adv-x="0" 
 />
    <glyph glyph-name="nonmarkingreturn" horiz-adv-x="512" 
 />
    <glyph glyph-name="space" unicode=" " horiz-adv-x="512" 
 />
    <glyph glyph-name="exclam" unicode="!" horiz-adv-x="575" 
d="M387 1163q-48 -144 -53 -362l-15 -586h-45l-16 573q-6 194 -55 373q50 21 98 21q37 0 86 -19zM385 41l-86 -98l-84 98l82 104z" />
    <glyph glyph-name="quotedbl" unicode="&#x22;" horiz-adv-x="532" 
d="M117 895l-37 303q-8 70 -8 98q0 39 17.5 64.5t45.5 25.5q62 0 62 -90q0 -42 -9 -102l-41 -299h-30zM385 895l-37 303q-10 87 -10 98q0 40 17.5 65t45.5 25q29 0 45.5 -24t16.5 -66t-8 -102l-41 -299h-29z" />
    <glyph glyph-name="numbersign" unicode="#" horiz-adv-x="1260" 
d="M1174 211h-314l-78 -391h-71l82 391h-439l-78 -391h-71l82 391h-203v68h217l82 393h-299v67h315l82 391h68l-82 -391h436l80 391h70l-82 -391h203v-67h-218l-79 -393h297v-68zM889 672h-436l-82 -393h436z" />
    <glyph glyph-name="dollar" unicode="$" horiz-adv-x="748" 
d="M379 549q172 -78 226 -133t54 -140q0 -107 -74 -190.5t-206 -105.5v-136h-49v136q-131 9 -200 68t-69 142q0 104 127 125l11 -18q-56 -33 -56 -94q0 -64 54 -111.5t133 -54.5v407q-138 59 -192 117t-54 141q0 94 65 163.5t181 86.5v101h49v-99q112 -3 173.5 -46.5
t61.5 -106.5q0 -49 -38.5 -82t-96.5 -33h-10l-4 23q59 26 59 84q0 44 -38.5 80.5t-106.5 41.5v-366zM330 571v340q-78 -14 -121 -59t-43 -102q0 -101 164 -179zM379 33q95 13 147 69t52 123q0 121 -199 197v-389z" />
    <glyph glyph-name="percent" unicode="%" horiz-adv-x="1366" 
d="M373 969q95 0 157 -75t62 -185t-62.5 -185t-156.5 -75t-156.5 75.5t-62.5 184.5q0 110 62 185t157 75zM373 481q64 0 100.5 59t36.5 169q0 109 -36.5 168t-100.5 59t-100.5 -59t-36.5 -168q0 -110 36 -169t101 -59zM934 967l-445 -985h-57l447 987zM991 502q95 0 157 -75
t62 -185q0 -111 -62 -184.5t-157 -73.5q-94 0 -156.5 74.5t-62.5 183.5q0 110 62 185t157 75zM991 16q64 0 100.5 58.5t36.5 167.5t-36 168t-101 59q-64 0 -100.5 -59t-36.5 -168q0 -110 36 -168t101 -58z" />
    <glyph glyph-name="ampersand" unicode="&#x26;" horiz-adv-x="1323" 
d="M1139 657q49 -28 49 -79q0 -34 -24 -57t-64 -23t-111 20q-71 21 -100 23q94 -79 94 -189q0 -147 -124 -259.5t-290 -112.5q-160 0 -271.5 109t-111.5 263q0 125 73.5 216t213.5 130q-221 59 -221 207q0 113 104 197t246 84q66 0 176 -25q110 -24 148 -24q63 0 114 32
l17 -26q-87 -90 -207 -90q-67 0 -171 38q-104 39 -149 39q-73 0 -120.5 -55.5t-47.5 -142.5q0 -88 58.5 -139.5t159.5 -51.5q55 0 102 13l6 -33q-184 -23 -280.5 -120t-96.5 -247q0 -141 90.5 -230t216.5 -89q117 0 200 81.5t83 202.5q0 92 -43.5 146.5t-118.5 54.5
q-59 0 -96 -32.5t-37 -84.5q0 -34 20.5 -53.5t53.5 -19.5q39 0 68 32l12 -28q-46 -88 -111 -88q-46 0 -79 35.5t-33 87.5q0 92 79 149t220 57l194 -10q103 0 103 53q0 14 -9 23z" />
    <glyph glyph-name="quotesingle" unicode="'" horiz-adv-x="276" 
d="M121 895l-37 303q-8 70 -8 98q0 39 17.5 64.5t45.5 25.5q62 0 62 -90q0 -42 -8 -102l-41 -299h-31z" />
    <glyph glyph-name="parenleft" unicode="(" 
d="M365 1315q-215 -344 -215 -752q0 -410 192 -702l-31 -27q-258 317 -258 737q0 429 281 766z" />
    <glyph glyph-name="parenright" unicode=")" 
d="M49 1337q281 -340 281 -766q0 -420 -258 -737l-31 27q192 292 192 702q0 408 -215 752z" />
    <glyph glyph-name="asterisk" unicode="*" horiz-adv-x="748" 
d="M616 848q-7 -64 -57 -100q-84 84 -149 131l-23 -15q-2 -34 37 -192q-31 -10 -59 -10q-29 0 -58 10q34 123 37 194l-14 11q-58 -43 -142 -132q-59 35 -65 97q78 18 188 67l6 25q-97 48 -190 70q0 69 57 100q70 -78 150 -135l16 12q-9 71 -41 195q28 12 60 12q33 0 55 -12
q-25 -97 -33 -195l23 -18q124 110 143 135q51 -28 59 -94q-97 -26 -184 -76v-15q124 -53 184 -65z" />
    <glyph glyph-name="plus" unicode="+" horiz-adv-x="1260" 
d="M1126 436h-467v-459h-65v459h-463v68h463v465h65v-465h467v-68z" />
    <glyph glyph-name="comma" unicode="," 
d="M281 49q-62 -152 -195 -246l-20 23q63 63 104 143l-72 78l88 100z" />
    <glyph glyph-name="hyphen" unicode="-" 
d="M344 215h-291v74h291v-74z" />
    <glyph glyph-name="period" unicode="." 
d="M289 47l-90 -96l-90 92l90 100z" />
    <glyph glyph-name="slash" unicode="/" horiz-adv-x="1004" 
d="M885 1315l-697 -1462h-69l696 1462h70z" />
    <glyph glyph-name="zero" unicode="0" horiz-adv-x="748" 
d="M279 688q-3 15 -3 43q0 75 46 124.5t118 49.5q111 0 184.5 -111.5t73.5 -299.5q0 -231 -97 -372.5t-241 -141.5q-138 0 -227.5 131.5t-89.5 332.5q0 372 307 525l15 -25q-232 -151 -232 -440q0 -191 85.5 -321t197.5 -130q96 0 158.5 102t62.5 269q0 174 -69 282.5
t-160 108.5q-45 0 -72 -30t-27 -80v-11z" />
    <glyph glyph-name="one" unicode="1" horiz-adv-x="748" 
d="M432 16l-106 -57v815q-83 -58 -181 -80l-20 37q204 62 293 252l14 -10v-957z" />
    <glyph glyph-name="two" unicode="2" horiz-adv-x="748" 
d="M692 207q-21 -111 -100 -174.5t-164 -63.5q-86 0 -152 58q-38 34 -77 34q-77 0 -93 -88h-28q5 148 104.5 264.5t186.5 173.5q87 58 125 126t38 133q0 89 -59.5 159t-146.5 70q-84 0 -140.5 -53.5t-56.5 -136.5q0 -60 30.5 -97t76.5 -37q41 0 67.5 27t26.5 62v18l22 8
q15 -26 15 -63q0 -62 -40.5 -98.5t-105.5 -36.5q-67 0 -110 49t-43 127q0 120 89 203t220 83q113 0 193.5 -72.5t80.5 -174.5q0 -168 -230 -319t-274 -296q53 41 123 41q51 0 131 -27q81 -26 105 -26q52 0 87 28.5t73 110.5z" />
    <glyph glyph-name="three" unicode="3" horiz-adv-x="748" 
d="M489 494q201 -59 201 -224q0 -113 -109 -208t-253 -95q-117 0 -194 67.5t-77 153.5q0 63 42 107.5t102 44.5q103 0 153 -113l-24 -18q-34 47 -90 47q-41 0 -71 -30t-30 -72q0 -57 58.5 -100.5t138.5 -43.5q100 0 172 72.5t72 173.5q0 83 -53 145t-111 62q-23 0 -45 -15
q-21 -14 -49 -14q-31 0 -31 17q0 37 119 41q141 84 141 217q0 81 -57.5 135.5t-145.5 54.5q-81 0 -134.5 -49.5t-53.5 -114.5q0 -40 31 -73t69 -33q64 0 96 76l23 -11q-44 -139 -150 -139q-58 0 -94.5 37t-36.5 100q0 106 89 184t216 78q110 0 177 -58t67 -153
q0 -141 -158 -249z" />
    <glyph glyph-name="four" unicode="4" horiz-adv-x="748" 
d="M719 377q-36 -141 -195 -182v-193l-106 -57v258q-165 49 -228 49q-99 0 -163 -64l-17 15q232 343 334 702q70 35 172 101l6 -15q-75 -177 -176 -334l-223 -348q55 17 127 17q75 0 168 -25v420l106 55v-495q115 0 172 106z" />
    <glyph glyph-name="five" unicode="5" horiz-adv-x="748" 
d="M195 535q106 88 223 88q108 0 179 -75.5t71 -187.5q0 -150 -103.5 -264t-251.5 -114q-109 0 -180.5 60.5t-71.5 143.5q0 66 43 112t111 46q85 0 145 -100l-24 -17q-40 43 -86 43t-76.5 -31.5t-30.5 -80.5q0 -56 51.5 -94.5t127.5 -38.5q104 0 172.5 78t68.5 198
q0 106 -57 177t-141 71q-103 0 -191 -94l-33 12q31 163 31 328l-4 161l25 23q93 -115 221 -115q119 0 190 113l33 -16q-95 -181 -281 -181q-78 0 -139 31q-2 -81 -22 -276z" />
    <glyph glyph-name="six" unicode="6" horiz-adv-x="748" 
d="M256 322q-31 43 -31 94q0 81 64 137.5t155 56.5q102 0 167 -75t65 -195q0 -151 -90.5 -257t-218.5 -106q-132 0 -216.5 107t-84.5 285q0 241 133 414t307 173q57 0 90 -21t33 -56q0 -34 -27.5 -60t-62.5 -26q-9 0 -25 4l-2 12q35 21 35 53q0 51 -76 51
q-122 0 -218.5 -141t-96.5 -332q0 -171 71.5 -280t188.5 -109q90 0 144 64t54 168q0 103 -60 170t-144 67q-62 0 -103 -40t-41 -97q0 -34 8 -47z" />
    <glyph glyph-name="seven" unicode="7" horiz-adv-x="748" 
d="M735 932q-7 -39 -105 -157q-164 -197 -234 -357.5t-70 -231.5q0 -45 23 -77.5t61 -32.5q55 0 94 86l16 -6q-6 -87 -52.5 -140t-109.5 -53q-65 0 -104 52.5t-39 138.5q0 195 215 448l184 217q-6 0 -44 -10q-37 -10 -76 -10q-43 0 -116 13t-102 13q-53 0 -88.5 -21
t-37.5 -32l-23 -115l-41 7l57 305l41 -6l-20 -109q118 82 219 82q24 0 110 -27q86 -26 125 -26t97 59z" />
    <glyph glyph-name="eight" unicode="8" horiz-adv-x="748" 
d="M477 496q117 -58 164 -111.5t47 -126.5q0 -122 -89.5 -204.5t-231.5 -82.5q-133 0 -216 74t-83 182q0 157 190 256q-90 62 -118.5 106.5t-28.5 102.5q0 113 89.5 189.5t219.5 76.5q110 0 180 -58t70 -148q0 -80 -42 -138t-151 -118zM430 520q158 60 158 195
q0 87 -57.5 137.5t-155.5 50.5q-85 0 -133.5 -42.5t-48.5 -112.5q0 -140 237 -228zM303 457q-145 -59 -145 -201q0 -102 68 -172t175 -70q91 0 148 54.5t57 132.5q0 58 -32.5 101t-147.5 97z" />
    <glyph glyph-name="nine" unicode="9" horiz-adv-x="748" 
d="M502 571l2 -30q0 -89 -58 -150t-145 -61q-95 0 -162 79t-67 199q0 147 94.5 250t214.5 103q122 0 208.5 -114.5t86.5 -291.5q0 -227 -133.5 -403.5t-298.5 -176.5q-63 0 -102.5 29t-39.5 72q0 80 95 84l6 -15q-19 -4 -19 -34q0 -35 26.5 -57.5t68.5 -22.5
q120 0 217.5 140t97.5 333q0 164 -79.5 268.5t-192.5 104.5q-86 0 -137.5 -57t-51.5 -152q0 -106 63 -180t140 -74q55 0 95 42t44 115h27z" />
    <glyph glyph-name="colon" unicode=":" 
d="M297 381l-96 -96l-90 98l94 100zM295 39l-94 -96l-90 106l94 98z" />
    <glyph glyph-name="semicolon" unicode=";" 
d="M297 383l-94 -100l-94 94l94 106zM299 49q-74 -147 -205 -250l-16 23q90 118 90 155q0 21 -59 70l96 100z" />
    <glyph glyph-name="less" unicode="&#x3c;" horiz-adv-x="1260" 
d="M1124 18l-991 422v60l991 420v-74l-905 -375l905 -379v-74z" />
    <glyph glyph-name="equal" unicode="=" horiz-adv-x="1260" 
d="M1124 657h-991v68h991v-68zM1124 227h-991v68h991v-68z" />
    <glyph glyph-name="greater" unicode="&#x3e;" horiz-adv-x="1260" 
d="M1124 438l-991 -420v74l903 375l-903 379v74l991 -422v-60z" />
    <glyph glyph-name="question" unicode="?" horiz-adv-x="874" 
d="M496 954l2 -26q0 -57 -36.5 -93t-92.5 -36q-58 0 -93.5 41t-35.5 100q0 103 81 174.5t214 71.5q123 0 201.5 -66t78.5 -162q0 -68 -35 -137t-158 -169t-151.5 -151t-28.5 -100q0 -38 21.5 -66t50.5 -28t61 39l21 -12q-10 -46 -41.5 -73.5t-69.5 -27.5q-48 0 -76 35
t-28 97q0 57 29.5 117.5t125.5 157.5t128 148t32 125q0 96 -61 156.5t-154 60.5q-76 0 -128 -41.5t-52 -105.5q0 -45 25 -72.5t65 -27.5q62 0 90 69zM561 47l-84 -100l-84 106l82 103z" />
    <glyph glyph-name="at" unicode="@" horiz-adv-x="1878" 
d="M1823 143q-104 -274 -335.5 -431.5t-512.5 -157.5q-376 0 -619 248t-243 640q0 262 123 484t339.5 348.5t473.5 126.5q312 0 505 -186.5t193 -489.5q0 -284 -159 -494.5t-365 -210.5q-154 0 -154 130q0 40 35 190q-157 -191 -239.5 -251t-162.5 -60t-131 57.5t-51 161.5
q0 148 89 311.5t220.5 271t235.5 107.5q59 0 100.5 -31t69.5 -137l39 143l108 15l-135 -453q-73 -243 -73 -315q0 -45 29.5 -71t74.5 -26q145 0 290.5 198t145.5 460q0 290 -184.5 468.5t-480.5 178.5q-243 0 -448 -127t-316 -364.5t-111 -487.5q0 -339 225 -571t578 -232
q266 0 490.5 151t322.5 406h33zM774 113q86 0 190 99.5t174 251t70 281.5q0 75 -40 121.5t-107 46.5q-90 0 -189 -102.5t-166 -261t-67 -281.5q0 -71 37 -113t98 -42z" />
    <glyph glyph-name="A" unicode="A" horiz-adv-x="1044" 
d="M705 199q-151 -219 -336 -219q-133 0 -216 109t-83 280q0 232 121.5 463.5t313.5 374.5t376 143q119 0 189.5 -79.5t70.5 -213.5q0 -312 -310 -496v-411q0 -59 7.5 -79t40.5 -20q74 0 174 131l32 -26q-69 -99 -125 -139t-118 -40q-68 0 -103 37t-34 185zM831 616
q111 56 169.5 155.5t58.5 219.5q0 127 -74 201t-197 74q-224 0 -408.5 -237t-184.5 -566q0 -180 65 -290t168 -110q31 0 61.5 9.5t60 28t57.5 46.5t63 81.5t35 68.5v217q-34 -4 -58 -4q-104 0 -165.5 61.5t-61.5 163.5q0 99 60.5 193.5t166.5 144.5l15 -22
q-152 -127 -152 -279q0 -90 48.5 -143.5t131.5 -53.5h15v404l126 68v-431z" />
    <glyph glyph-name="B" unicode="B" horiz-adv-x="1386" 
d="M1028 717q256 -73 256 -340q0 -165 -88 -285.5t-207 -120.5q-130 0 -186 113q19 18 98 57q8 -8 10 -14q23 -100 113 -100q72 0 121 72.5t49 191.5q0 155 -85.5 249.5t-225.5 94.5l-4 18q85 33 136.5 113t51.5 168q0 129 -99.5 220t-242.5 91q-214 0 -385.5 -156
t-171.5 -352q0 -94 43 -151.5t111 -57.5q80 0 149 113l21 -12q-31 -89 -91 -137t-133 -48q-79 0 -127.5 60t-48.5 155q0 155 99 312t263.5 252.5t344.5 95.5q163 0 260.5 -86.5t97.5 -228.5q0 -160 -129 -287zM870 1114q-69 -107 -69 -235q0 -68 21 -209q22 -141 22 -213
q0 -208 -122 -349t-300 -141q-116 0 -193 68t-92 192q55 26 131 45l4 -14q-22 -39 -22 -82q0 -66 53 -116t133 -50q122 0 205.5 105t83.5 280q0 55 -10 163t-10 161q0 259 149 411z" />
    <glyph glyph-name="C" unicode="C" horiz-adv-x="961" 
d="M1018 182q-74 -114 -170.5 -163.5t-245.5 -49.5q-241 0 -386.5 148t-145.5 389q0 203 103.5 396t272 310t338.5 117q124 0 196.5 -69t72.5 -189q0 -176 -127 -315.5t-275 -139.5q-75 0 -122.5 46t-47.5 120q0 118 133 222l21 -25q-72 -47 -72 -148q0 -62 42.5 -101.5
t107.5 -39.5q101 0 179.5 87.5t78.5 211.5q0 120 -74 193t-195 73q-202 0 -358 -189t-156 -454q0 -244 139.5 -406.5t352.5 -162.5q106 0 176.5 37.5t128.5 126.5z" />
    <glyph glyph-name="D" unicode="D" horiz-adv-x="1430" 
d="M563 815q-14 -128 -78.5 -196t-158.5 -68q-92 0 -151.5 70.5t-59.5 175.5q0 210 173.5 367t436.5 157q282 0 458.5 -182t176.5 -475q0 -287 -165 -487t-370 -200q-69 0 -160 56q-90 57 -155 57q-85 0 -162 -113l-24 15q39 97 161 184q123 87 164 157t41 187q0 58 -10 158
t-10 145q0 124 47 201t151 123l13 -23q-107 -76 -107 -211q0 -44 17 -157q18 -112 18 -174q0 -126 -63.5 -221t-223.5 -197l49 2q114 0 199 -53q86 -52 162 -52q127 0 229.5 149t102.5 368q0 287 -180.5 482t-438.5 195q-199 0 -330 -116.5t-131 -282.5q0 -91 50 -148
t126 -57q130 0 177 170z" />
    <glyph glyph-name="E" unicode="E" horiz-adv-x="1067" 
d="M1057 1253q-95 -82 -230 -82q-74 0 -180 37q-105 37 -164 37q-91 0 -145.5 -60t-54.5 -159q0 -103 60 -166t151 -63q38 0 112 16l6 -41q-190 -24 -297.5 -134.5t-107.5 -270.5q0 -150 89 -241t230 -91q148 0 255.5 105t107.5 237q0 91 -54 156t-128 65
q-61 0 -108.5 -44.5t-47.5 -100.5q0 -40 23.5 -67.5t56.5 -27.5q38 0 67 37l23 -12q-24 -109 -121 -109q-50 0 -80.5 35.5t-30.5 93.5q0 101 84.5 181t198.5 80q94 0 150.5 -60.5t56.5 -150.5q0 -177 -137.5 -325t-347.5 -148q-189 0 -306.5 109.5t-117.5 268.5
q0 124 83.5 228.5t237.5 161.5q-227 49 -227 231q0 135 138.5 242.5t311.5 107.5q71 0 180 -37t162 -37q40 0 86 25z" />
    <glyph glyph-name="F" unicode="F" horiz-adv-x="1130" 
d="M1159 1253q-83 -73 -203 -73q-47 0 -65 4q-82 -64 -82 -193q0 -104 47 -200q108 63 180 63q24 0 60 -12l2 -25q0 -14 -15 -100q-3 0 -13 -3q-9 -3 -11 -3h-4q-7 31 -32 50t-52 19q-51 0 -99 -37q47 -138 55.5 -186.5t8.5 -93.5q0 -212 -148 -355t-366 -143
q-149 0 -237.5 79.5t-88.5 205.5q0 143 113 244.5t262 101.5q77 0 129.5 -44t52.5 -108q0 -81 -75 -146t-183 -65h-22v23q176 31 176 156q0 58 -39.5 93.5t-103.5 35.5q-96 0 -162 -67.5t-66 -172.5q0 -122 86.5 -201.5t216.5 -79.5q146 0 255.5 96t109.5 236q0 69 -37 177
l-43 124q-43 -32 -68 -96l-32 25q38 65 86 123q-33 135 -33 200q0 173 133 285q-148 33 -268 33t-195.5 -65t-75.5 -161q0 -61 37 -100t82 -39q34 0 65.5 25t41.5 67h20l2 -28q0 -66 -43 -115t-106 -49q-70 0 -119 54.5t-49 139.5q0 148 132 251.5t335 103.5q96 0 217 -27
q122 -27 147 -27q40 0 70 29z" />
    <glyph glyph-name="G" unicode="G" horiz-adv-x="1067" 
d="M965 776q-91 -48 -91 -127q0 -36 27 -126q27 -89 27 -150q0 -168 -125 -282t-320 -114q-301 0 -374 259q46 34 137 57l6 -19q-4 -19 -4 -45q0 -91 72.5 -150t181.5 -59q130 0 218.5 87t88.5 217q0 40 -13 119q-12 79 -12 110q0 49 21 98q-183 -162 -352 -162
q-137 0 -219 83t-82 221q0 207 168.5 375.5t386.5 168.5q107 0 171 -52.5t64 -141.5q0 -120 -87.5 -210.5t-197.5 -90.5q-59 0 -95 32t-36 84q0 121 144 187l14 -21q-68 -58 -68 -125q0 -46 26 -74t69 -28q60 0 110.5 54t50.5 128q0 88 -64.5 145.5t-166.5 57.5
q-153 0 -262 -128.5t-109 -307.5q0 -131 64.5 -207t169.5 -76q66 0 135 25t165 112q97 88 144 103z" />
    <glyph glyph-name="H" unicode="H" horiz-adv-x="1642" 
d="M1700 182q-134 -213 -307 -213q-144 0 -229 135t-85 379q0 69 8 197q-26 -6 -61 -6q-22 0 -48 9t-40 9q-7 0 -27 -4q19 -90 19 -205q0 -219 -126 -364.5t-323 -145.5q-242 0 -336 193l107 94l14 -10q53 -234 250 -234q134 0 214.5 96t80.5 259q0 38 -13 158
q-12 121 -12 208q0 259 84 420q-12 -4 -59 -26q-46 -21 -82 -21q-78 0 -157 75q-78 75 -144 75q-74 0 -137.5 -71t-63.5 -161q0 -77 47 -127.5t115 -50.5q50 0 93.5 29.5t66.5 83.5l26 -9q-25 -92 -90 -143t-135 -51q-78 0 -131 58.5t-53 144.5q0 140 98.5 255t224.5 115
q104 0 193 -92q66 -65 121 -65q54 0 99 51l83 94l31 -21q-139 -135 -139 -362q0 -100 26 -203q46 29 84 29q43 0 113 -35q51 281 180.5 440.5t273.5 159.5q91 0 134 -57l-101 -103q-44 95 -106 95q-98 0 -194.5 -171.5t-96.5 -476.5q0 -256 75 -409.5t185 -153.5
q121 0 219 154z" />
    <glyph glyph-name="I" unicode="I" horiz-adv-x="1067" 
d="M797 989q54 23 88 23q54 0 87.5 -35.5t33.5 -91.5q0 -133 -140 -236q58 -124 58 -235q0 -175 -134.5 -304.5t-334.5 -129.5q-154 0 -255.5 74.5t-129.5 213.5q52 39 147 49l6 -18q-14 -23 -14 -59q0 -91 79.5 -154t192.5 -63q140 0 236 97.5t96 235.5q0 100 -72 238
q-41 -6 -90 -6q-155 0 -250.5 84t-95.5 217q0 178 173.5 310.5t479.5 131.5l9 -24q-114 -35 -176 -113.5t-62 -169.5q0 -120 117 -336q90 64 90 158q0 53 -29.5 88t-62.5 35q-12 0 -43 -6zM854 1290q-212 -24 -321 -120t-109 -252q0 -129 70 -208t184 -79l39 2
q-78 182 -78 297q0 217 215 360z" />
    <glyph glyph-name="J" unicode="J" horiz-adv-x="961" 
d="M694 870q35 25 84 25q75 0 122.5 -52.5t47.5 -137.5q0 -222 -252 -318q60 -226 60 -403q0 -262 -138.5 -422t-332.5 -160q-134 0 -219.5 79t-85.5 204q0 106 71.5 177.5t163.5 71.5q79 0 137 -51.5t58 -124.5q0 -68 -46.5 -117t-125.5 -49l-9 29q90 24 90 115
q0 55 -37 90t-94 35q-69 0 -115 -54.5t-46 -132.5q0 -97 75.5 -163t188.5 -66q151 0 245.5 124.5t94.5 336.5q0 137 -62 454q-191 2 -292 92.5t-101 256.5q0 232 211 424t490 204l10 -26q-246 -124 -246 -492q0 -165 49 -393q80 26 124 93.5t44 150.5q0 78 -38.5 130
t-90.5 52h-24zM788 1292q-223 -40 -358 -208t-135 -367q0 -290 268 -314q-26 205 -26 285q0 378 251 604z" />
    <glyph glyph-name="K" unicode="K" horiz-adv-x="1665" 
d="M1763 1241l-96 -96l-14 10q0 57 -41 99t-86 42q-55 0 -102.5 -42.5t-122.5 -228.5q-109 -269 -211 -378q48 -25 85.5 -63.5t75.5 -136.5l87 -213q46 -112 55 -126t35 -31.5t55 -17.5q92 0 196 148l33 -25q-134 -207 -295 -207q-86 0 -145.5 86.5t-106.5 286.5
q-46 200 -118 262q-46 -28 -86 -28l-19 2v-82q0 -214 -125 -368t-305 -154q-192 0 -309 178l119 110l14 -12q-4 -6 -4 -25q0 -97 56.5 -152.5t148.5 -55.5q125 0 205.5 99t80.5 284q0 71 -24 227q-23 156 -23 248q0 170 72 299q-82 -62 -156 -62q-92 0 -180 76
q-75 66 -156 66q-80 0 -137 -64t-57 -156q0 -81 49 -132.5t125 -51.5q91 0 151 74l17 -12q-55 -152 -191 -152q-92 0 -149.5 63.5t-57.5 167.5q0 145 103 245.5t223 100.5q96 0 197 -90q75 -65 129 -65q78 0 164 125l26 -19q-90 -123 -90 -282q0 -76 31 -194
q32 -117 43 -171q33 15 78 15l34 -3q39 37 72.5 91t77.5 188q45 134 88 212.5t119.5 133.5t159.5 55q111 0 202 -98zM1004 629q-49 0 -62 -15q13 -4 21 -4q22 0 41 19z" />
    <glyph glyph-name="L" unicode="L" horiz-adv-x="1174" 
d="M625 152q82 83 82 159q0 57 -38.5 140t-120.5 180q-81 98 -108.5 166.5t-27.5 136.5q0 155 136.5 280t342.5 125q166 0 267.5 -83.5t101.5 -217.5q0 -126 -90.5 -219.5t-208.5 -93.5q-94 0 -149.5 51t-55.5 133q0 124 129 187l14 -21q-68 -55 -68 -131q0 -65 50.5 -114.5
t119.5 -49.5q75 0 126 58.5t51 144.5q0 122 -103 211.5t-250 89.5q-135 0 -222 -79.5t-87 -186.5q0 -127 131 -281q150 -174 150 -340q0 -134 -119 -264q189 -80 295 -80q120 0 227 154l31 -25q-66 -104 -149 -153t-214 -49q-105 0 -299 77q-149 -84 -280 -84q-81 0 -136 32
t-55 79q0 53 69 91t167 38q101 0 291 -61zM514 78q-161 80 -242 80q-104 0 -104 -54q0 -30 47 -55.5t109 -25.5q88 0 190 55z" />
    <glyph glyph-name="M" unicode="M" horiz-adv-x="2005" 
d="M2062 182q-64 -102 -140.5 -151t-180.5 -49q-119 0 -193.5 96.5t-74.5 251.5q0 314 296 731q-57 -25 -116 -25q-66 0 -125 35l-176 -215v-842l-117 -59v1098q0 57 -27 57q-25 0 -76 -67t-51 -87q0 -1 3 -14q22 -110 22 -211q0 -313 -169.5 -531t-397.5 -218
q-203 0 -293 147l106 94l15 -10q39 -176 219 -176q168 0 299 174.5t131 441.5q0 263 -125.5 424.5t-304.5 161.5q-163 0 -284.5 -132t-121.5 -290q0 -113 66 -191.5t162 -78.5q98 0 167.5 73.5t69.5 174.5q0 54 -29 90.5t-71 36.5q-63 0 -72 -68l-20 4q-7 27 -7 41
q0 51 34 87t85 36q62 0 102 -55t40 -140q0 -145 -101 -257.5t-246 -112.5q-115 0 -182 75.5t-67 208.5q0 230 169.5 409t387.5 179q137 0 233 -74t166 -231q78 105 119.5 140.5t81.5 35.5q35 0 59.5 -34.5t24.5 -94.5v-153l223 288q57 -96 156 -96q84 0 149 74l23 -23
q-188 -198 -250 -405.5t-62 -384.5q0 -141 61.5 -228.5t159.5 -87.5q115 0 220 152z" />
    <glyph glyph-name="N" unicode="N" horiz-adv-x="1792" 
d="M1849 182q-65 -103 -140 -151.5t-181 -48.5q-125 0 -204 97t-79 251q0 309 283 762q-82 -41 -127 -41q-63 0 -135 51l-154 -217q8 -52 8 -140q0 -331 -166 -548t-405 -217q-184 0 -287 147l109 92l12 -10q37 -174 217 -174q173 0 301.5 179t128.5 450q0 252 -129 413.5
t-303 161.5q-161 0 -279 -128.5t-118 -305.5q0 -116 64.5 -188t162.5 -72q91 0 166.5 76.5t75.5 177.5q0 55 -29 91t-68 36q-54 0 -86 -74l-26 2v18q0 68 32.5 106t88.5 38q58 0 96.5 -54.5t38.5 -138.5q0 -147 -104 -257.5t-244 -110.5q-114 0 -182 78t-68 210
q0 221 171 400.5t382 179.5q319 0 428 -381l223 318q59 -125 158 -125q78 0 151 94l25 -19q-157 -224 -225 -412t-68 -388q0 -170 62.5 -266.5t160.5 -96.5q67 0 118.5 36.5t113.5 123.5z" />
    <glyph glyph-name="O" unicode="O" horiz-adv-x="1174" 
d="M696 874q23 -40 23 -92q0 -76 -53.5 -128t-124.5 -52q-83 0 -141 71t-58 189q0 188 116.5 327.5t254.5 139.5q149 0 257.5 -163.5t108.5 -415.5q0 -314 -159.5 -541t-378.5 -227q-185 0 -315 166.5t-130 426.5q0 419 320 707l22 -29q-245 -221 -245 -567
q0 -252 130.5 -428t303.5 -176q154 0 258 153.5t104 409.5q0 257 -110.5 420.5t-251.5 163.5q-96 0 -160 -82.5t-64 -206.5q0 -101 45 -165t115 -64q53 0 84 32.5t31 83.5q0 25 -2 39z" />
    <glyph glyph-name="P" unicode="P" horiz-adv-x="1110" 
d="M547 639q-75 -143 -211 -143q-92 0 -150.5 72t-58.5 190q0 229 197 410.5t481 181.5q185 0 295 -92t110 -240q0 -128 -84 -241t-235 -156l-8 30q209 81 209 314q0 148 -95 238.5t-254 90.5q-212 0 -369 -140.5t-157 -336.5q0 -104 53 -167.5t123 -63.5q89 0 125 65z
M891 1180q-84 -98 -84 -269q0 -48 23 -191q24 -143 24 -243q0 -223 -113.5 -359t-285.5 -136q-124 0 -203.5 70t-79.5 169v27l135 31l6 -13q-22 -35 -22 -80q0 -66 51.5 -113.5t128.5 -47.5q115 0 186.5 96.5t71.5 267.5q0 90 -17 238q-16 148 -16 196q0 105 39 192t131 183
z" />
    <glyph glyph-name="Q" unicode="Q" horiz-adv-x="1174" 
d="M1114 145q-63 -168 -113 -168q-22 0 -78.5 25.5t-125.5 73.5q-105 -94 -256 -94q-189 0 -317 166.5t-128 437.5q0 423 318 698l24 -22q-129 -127 -187 -261.5t-58 -304.5q0 -368 249 -551q59 76 172 76q65 0 129 -26q64 -25 82 -29q87 98 122.5 210t35.5 269
q0 256 -106.5 421t-249.5 165q-98 0 -161 -80t-63 -207q0 -106 44 -166.5t116 -60.5q52 0 82.5 31t30.5 81q0 23 -4 41l24 11q21 -48 21 -93q0 -78 -53.5 -129t-126.5 -51q-83 0 -139 72.5t-56 191.5q0 189 107 324t258 135q161 0 266.5 -169t105.5 -423q0 -165 -54 -322.5
t-155 -269.5q76 -22 125 -22q59 0 107 25zM741 115q-88 63 -145 63q-65 0 -117 -51q61 -37 146 -37q63 0 116 25z" />
    <glyph glyph-name="R" unicode="R" horiz-adv-x="1516" 
d="M1573 182q-130 -209 -291 -209q-52 0 -99 28t-83 78.5t-47 97.5l-33 151q-38 169 -61.5 225.5t-75.5 64.5v23q86 15 148.5 110t62.5 205q0 142 -99.5 231t-257.5 89q-202 0 -359 -138.5t-157 -334.5q0 -104 50 -169t124 -65q80 0 135 70l21 -16q-71 -144 -215 -144
q-95 0 -153 68t-58 184q0 232 196.5 416t477.5 184q192 0 302.5 -88t110.5 -242q0 -122 -71 -226t-189 -142q44 -16 87 -64.5t56 -88.5l46 -147q56 -182 87.5 -234t104.5 -52q99 0 209 160zM901 1153q-98 -94 -98 -242q0 -58 24 -207q25 -149 25 -249q0 -207 -113.5 -346.5
t-277.5 -139.5q-112 0 -195 69t-100 193l147 39l9 -10q-25 -41 -25 -88q0 -62 49 -111t127 -49q114 0 187 91t73 227q0 112 -18 238q-17 127 -17 159q0 157 36 255t149 198z" />
    <glyph glyph-name="S" unicode="S" horiz-adv-x="1174" 
d="M1032 1321q-35 -58 -112 -98.5t-148 -40.5q-70 0 -197 41q-126 41 -163 41q-69 0 -118.5 -53t-49.5 -128q0 -73 45.5 -119.5t113 -73t210.5 -66.5q143 -39 230 -76.5t147.5 -112t60.5 -195.5q0 -181 -148.5 -322t-367.5 -141q-200 0 -331.5 105t-131.5 250
q0 107 77 178.5t199 71.5q128 0 216.5 -70.5t88.5 -167.5q0 -66 -45.5 -108.5t-109.5 -42.5q-106 0 -158 98l25 14q38 -39 84 -39q49 0 81.5 34.5t32.5 86.5q0 65 -54.5 108.5t-131.5 43.5q-90 0 -149.5 -66t-59.5 -158q0 -121 106.5 -208t268.5 -87q173 0 288 108.5
t115 254.5q0 100 -53.5 162t-128 93t-207.5 69t-207.5 69t-125 90t-50.5 154q0 130 103 223.5t239 93.5q63 0 180 -33q118 -32 170 -32q85 0 148 67z" />
    <glyph glyph-name="T" unicode="T" horiz-adv-x="1067" 
d="M1176 1286q-83 -74 -203 -74q-46 0 -64 5q-82 -78 -82 -216q0 -85 53 -221q54 -136 66 -198.5t12 -114.5q0 -194 -148 -342t-359 -148q-155 0 -248.5 81t-93.5 212q0 146 112 248.5t268 102.5q83 0 129 -41.5t46 -114.5q0 -92 -72.5 -150.5t-210.5 -64.5v26
q186 25 186 154q0 61 -39.5 98t-105.5 37q-97 0 -160 -64t-63 -171q0 -127 86.5 -212t216.5 -85q147 0 249.5 103t102.5 251q0 93 -62 270q-61 178 -61 267q0 170 131 297q-146 34 -250 34q-130 0 -208 -62.5t-78 -166.5q0 -65 36.5 -104t88.5 -39q34 0 62.5 25t37.5 71h27
q-11 -186 -158 -186q-73 0 -118.5 47.5t-45.5 128.5q0 152 133 261t340 109q97 0 218 -27q122 -26 147 -26q41 0 69 27z" />
    <glyph glyph-name="U" unicode="U" horiz-adv-x="1516" 
d="M1571 182q-127 -200 -291 -200q-94 0 -147 80.5t-80 263.5q-138 -351 -293 -351q-74 0 -125 65t-51 165q0 66 18 153.5t83 265.5q66 178 81.5 252t15.5 128q0 127 -70.5 201.5t-189.5 74.5q-135 0 -226 -101t-91 -239q0 -98 56.5 -161.5t135.5 -63.5q67 0 120.5 48
t53.5 111q0 43 -24.5 72t-61.5 29q-52 0 -69 -64l-19 4q-2 12 -2 31q0 48 28.5 80.5t74.5 32.5q49 0 81.5 -44.5t32.5 -107.5q0 -112 -75 -194t-181 -82q-94 0 -157.5 70t-63.5 180q0 179 128.5 316.5t297.5 137.5q149 0 244.5 -99.5t95.5 -262.5q0 -59 -16.5 -136.5
t-82.5 -250.5q-65 -173 -82.5 -255t-17.5 -145t26.5 -100t64.5 -37q46 0 100.5 65.5t101 175.5t53.5 141.5t18 113.5q42 312 146 489.5t209 177.5q31 0 56.5 -23t25.5 -42q0 -16 -69 -88q-40 69 -74 69q-71 0 -137 -173t-66 -435q0 -222 49 -343.5t133 -121.5q53 0 97.5 34
t103.5 118z" />
    <glyph glyph-name="V" unicode="V" horiz-adv-x="1366" 
d="M1331 1038q-13 -10 -65 -32q45 -152 45 -330q0 -312 -120 -508.5t-304 -196.5q-156 0 -261.5 145.5t-105.5 387.5q0 158 47 308.5t168 354.5q-62 -34 -125 -34q-93 0 -188 71q-73 53 -135 53t-103 -46.5t-41 -110.5q0 -52 38 -90.5t87 -38.5q36 0 60 19.5t24 49.5
q0 21 -12.5 40.5t-32.5 23.5l2 16q13 2 35 2q90 0 90 -84q0 -57 -41 -95t-104 -38q-79 0 -133 59.5t-54 137.5q0 91 73 165t171 74q52 0 112 -25t107 -63q70 -55 121 -55q78 0 148 111l30 -19q-213 -326 -213 -741q0 -235 72 -378.5t192 -143.5q136 0 231 157.5t95 405.5
q0 215 -78 395q-130 7 -201 78.5t-71 167.5q0 45 25 72.5t65 27.5q69 0 143.5 -76.5t126.5 -207.5q39 13 64 26zM1147 1030q-30 80 -78 132t-82 52q-35 0 -35 -43q0 -39 53 -87.5t142 -53.5z" />
    <glyph glyph-name="W" unicode="W" horiz-adv-x="1706" 
d="M1616 1049q-23 -18 -78 -35q43 -165 43 -312q0 -299 -122.5 -512t-276.5 -213q-121 0 -197 127q-79 -129 -199 -129q-131 0 -224 142.5t-93 359.5q0 325 238 680q-37 -12 -80 -12q-82 0 -214 70q-103 55 -153 55q-57 0 -95 -42t-38 -102q0 -50 34 -85t81 -35
q43 0 72.5 30t29.5 70q0 9 -4 31l25 8q20 -28 20 -76q0 -61 -39 -99t-98 -38q-68 0 -115 50t-47 130q0 101 72 166t188 65q46 0 95 -14t122 -65q74 -50 113 -50q58 0 145 91l21 -21q-240 -310 -240 -778q0 -217 61.5 -341t157.5 -124q56 0 102 43.5t46 91.5v772l118 62v-791
q0 -84 36 -135t91 -51q113 0 205 173t92 417q0 196 -79 366h-7q-154 0 -243.5 68.5t-89.5 163.5q0 51 32 82.5t84 31.5q89 0 170.5 -72t143.5 -210h2q19 0 71 34zM1411 1030q-106 205 -203 205q-47 0 -47 -53t67 -102.5t163 -49.5h20z" />
    <glyph glyph-name="X" unicode="X" horiz-adv-x="1323" 
d="M1395 1200q-11 -49 -64 -96q-57 65 -121 65q-101 0 -191 -151t-106 -367q18 -4 33 -4q33 0 78 21v-19q0 -51 -23 -72t-90 -22q14 -240 83.5 -364.5t160.5 -124.5q54 0 94.5 29t98.5 112l32 -25q-133 -207 -276 -207q-122 0 -186 115.5t-87 392.5q-67 -267 -198.5 -388.5
t-280.5 -121.5q-65 0 -114.5 26t-61.5 69q25 51 80 114l12 -8q3 -58 48.5 -92.5t105.5 -34.5q122 0 228 147t130 363l-47 2q-43 0 -61 -31q-4 30 -4 50q0 77 116 77h13v37q0 251 -90 406t-236 155q-115 0 -192.5 -88t-77.5 -215q0 -106 58 -170.5t134 -64.5q61 0 109.5 49.5
t48.5 107.5q0 40 -23 66.5t-57 26.5t-65 -43l-17 12l-2 12q0 48 25 75.5t67 27.5q55 0 87 -42.5t32 -113.5q0 -109 -71.5 -188.5t-170.5 -79.5q-95 0 -156 71.5t-61 190.5q0 180 114.5 315t276.5 135q153 0 248 -143t101 -408q151 467 395 467q81 0 121 -53z" />
    <glyph glyph-name="Y" unicode="Y" horiz-adv-x="1430" 
d="M1260 938q-29 -43 -29 -168q0 -104 31 -318q32 -213 32 -331q0 -315 -156 -518t-362 -203q-115 0 -188.5 65t-73.5 166q0 90 60 150.5t145 60.5q66 0 109.5 -39t43.5 -92q0 -43 -29 -77.5t-79 -41.5l-16 21q43 32 43 74q0 35 -28.5 58.5t-68.5 23.5q-54 0 -93.5 -43
t-39.5 -105q0 -76 64.5 -127t156.5 -51q168 0 288 156.5t120 423.5q0 128 -41 401q-162 -381 -365 -381q-87 0 -143.5 62.5t-56.5 164.5q0 59 17 134.5t83 236.5t83 238t17 137q0 119 -72.5 188.5t-191.5 69.5q-133 0 -226 -95.5t-93 -228.5q0 -99 52.5 -160t137.5 -61
q73 0 120.5 45.5t47.5 108.5q0 38 -24 66t-56 28q-45 0 -69 -49l-17 8v4q0 51 30.5 81t76.5 30q44 0 72 -41.5t28 -106.5q0 -104 -70.5 -181t-171.5 -77q-98 0 -158.5 69t-60.5 183q0 175 124.5 303.5t303.5 128.5q145 0 233.5 -93.5t88.5 -250.5q0 -107 -49 -233l-78 -233
q-74 -220 -74 -281q0 -63 32.5 -101.5t82.5 -38.5q41 0 77.5 17.5t70.5 52t66 85t79 150.5t47 115l-2 121q0 48 2 87.5t7 77.5t15 73q5 17 35 37t60 24z" />
    <glyph glyph-name="Z" unicode="Z" horiz-adv-x="1110" 
d="M1163 164q-74 -120 -172 -178q-52 -265 -205.5 -426.5t-273.5 -161.5q-58 0 -99.5 36t-41.5 93q0 88 80 174.5t430 275.5q8 54 8 99q0 162 -90 241q-145 -114 -240 -114q-74 0 -74 61q0 55 75.5 100.5t170.5 45.5q39 0 86 -17q166 180 166 426q0 199 -105 325t-253 126
t-261.5 -129t-113.5 -293q0 -128 64 -216.5t155 -88.5q72 0 131 57.5t59 138.5q0 57 -30 93t-74 36q-46 0 -68 -39l-20 15q31 108 123 108q58 0 98.5 -47.5t40.5 -120.5q0 -115 -92 -211t-211 -96q-115 0 -190.5 85t-75.5 226q0 221 160.5 379t369.5 158q174 0 289 -115
t115 -301q0 -138 -56 -264t-182 -268q143 -90 143 -295l-2 -37q66 46 133 143zM754 340q-30 14 -68 14q-49 0 -84 -19.5t-35 -43.5q0 -23 33 -23q30 0 75.5 19t78.5 53zM874 -80q-214 -113 -313.5 -205.5t-99.5 -183.5q0 -34 21 -56t55 -22q95 0 198.5 131.5t138.5 335.5z
" />
    <glyph glyph-name="bracketleft" unicode="[" 
d="M328 -127h-244v1442h244v-47h-158v-1346h158v-49z" />
    <glyph glyph-name="backslash" unicode="\" horiz-adv-x="1004" 
d="M889 -147h-70l-704 1462h69z" />
    <glyph glyph-name="bracketright" unicode="]" 
d="M303 -127h-246v49h160v1346h-160v47h246v-1442z" />
    <glyph glyph-name="asciicircum" unicode="^" horiz-adv-x="1151" 
d="M1018 662h-70l-370 634l-375 -634h-70l428 718h35z" />
    <glyph glyph-name="underscore" unicode="_" horiz-adv-x="1024" 
d="M1036 -256h-1048v102h1048v-102z" />
    <glyph glyph-name="grave" unicode="`" horiz-adv-x="682" 
d="M467 569h-45l-189 219h199z" />
    <glyph glyph-name="a" unicode="a" horiz-adv-x="705" 
d="M745 158q-114 -178 -223 -178q-41 0 -59 22t-19 92q-60 -74 -101.5 -96.5t-94.5 -22.5q-77 0 -122.5 53t-45.5 142v43q-11 -14 -51 -72l-33 23q88 136 185.5 213.5t170.5 77.5q52 0 103 -31l88 45v-340q0 -54 5 -65t27 -11q19 0 57 34t83 97zM442 170v201q-40 41 -96 41
q-60 0 -108 -56t-48 -139q0 -72 34 -111.5t93 -39.5q46 0 85.5 45.5t39.5 58.5z" />
    <glyph glyph-name="b" unicode="b" horiz-adv-x="682" 
d="M238 362q80 105 196 105q65 0 106.5 -46.5t41.5 -119.5q0 -118 -87.5 -219.5t-195.5 -101.5q-79 0 -123.5 50.5t-44.5 143.5v150q-34 -87 -100 -179l-29 27q56 89 92.5 171t36.5 87v371q0 173 75 280t173 107q50 0 81.5 -35t31.5 -90q0 -78 -57.5 -207t-196.5 -367v-127z
M238 571q113 200 148.5 293t35.5 166q0 49 -21 79t-55 30q-49 0 -78.5 -57t-29.5 -152v-359zM238 156q0 -133 90 -133q61 0 112.5 64t51.5 151q0 72 -33 113.5t-86 41.5q-62 0 -98.5 -45.5t-36.5 -54.5v-137zM723 158q-110 -174 -293 -195l-8 23q161 36 270 196z" />
    <glyph glyph-name="c" unicode="c" horiz-adv-x="512" 
d="M553 158q-112 -178 -289 -178q-86 0 -139 56.5t-53 158.5l2 8l-45 -62l-33 23q148 218 211.5 258.5t126.5 40.5q104 0 151 -72q-14 -55 -65 -80q-44 109 -129 109q-50 0 -90.5 -46t-40.5 -118q0 -83 48 -143t122 -60q102 0 190 129z" />
    <glyph glyph-name="d" unicode="d" horiz-adv-x="618" 
d="M135 799q0 61 36 96t93 35q123 0 218.5 -125t95.5 -320q0 -214 -103 -359.5t-235 -145.5q-74 0 -120 45.5t-46 109.5v35q0 28 2 37l-47 -66l-33 23q197 305 371 305q93 0 143 -78q6 44 6 84q0 134 -83 244t-193 110q-56 0 -105 -30zM293 53q76 0 137.5 76.5t61.5 167.5
q0 60 -34.5 94.5t-92.5 34.5q-77 0 -136 -71t-59 -156q0 -65 34 -105.5t89 -40.5zM659 158q-110 -174 -292 -195l-9 23q163 37 269 196z" />
    <glyph glyph-name="e" unicode="e" horiz-adv-x="532" 
d="M573 158q-59 -96 -129 -139.5t-184 -43.5q-83 0 -131.5 49.5t-48.5 139.5q0 24 4 51q-36 -46 -55 -74l-33 23q130 184 200 241.5t144 57.5q41 0 67.5 -24t26.5 -62q0 -130 -229 -256q31 -72 129 -72q47 0 104.5 34t104.5 99zM186 160q166 81 166 180q0 30 -16.5 49
t-44.5 19q-51 0 -86 -47t-35 -113q0 -36 8 -61q8 -24 8 -27z" />
    <glyph glyph-name="f" unicode="f" horiz-adv-x="406" 
d="M2 172q19 30 38 63.5t55 108.5t36 86v449q0 117 77.5 207t176.5 90q117 0 117 -109q0 -96 -54 -223t-217 -385v-418q47 3 85 28t112 132l31 -25q-116 -192 -228 -192v-346q0 -115 -63.5 -184.5t-157.5 -69.5q-99 0 -155 86l82 81l16 -14q-6 -19 -6 -29q0 -38 24 -65
t62 -27q98 0 98 199v369q-50 8 -102 45q10 43 45 86q28 -45 57 -56v265q-40 -97 -100 -179zM231 557q189 303 189 485q0 91 -66 91q-49 0 -86 -51.5t-37 -135.5v-389z" />
    <glyph glyph-name="g" unicode="g" horiz-adv-x="725" 
d="M778 176q-112 -179 -203 -190v-316q0 -127 -80 -205.5t-196 -78.5q-78 0 -143 35.5t-80 86.5l84 80l14 -14q-4 -13 -4 -27q0 -51 40.5 -90t98.5 -39q78 0 122 60.5t44 169.5v450q-97 -123 -209 -123q-83 0 -135.5 60t-52.5 135v41l-49 -70l-33 23q120 170 196 231.5
t152 61.5q83 0 131 -47l100 61v-426q70 6 173 156zM475 166v188q-46 70 -123 70q-72 0 -121 -58t-49 -141q0 -78 36 -122t99 -44q68 0 113 45.5t45 61.5z" />
    <glyph glyph-name="h" unicode="h" horiz-adv-x="725" 
d="M766 158q-122 -178 -236 -178q-34 0 -51.5 25t-17.5 106v219q0 57 -45 57q-35 0 -75 -34.5t-71.5 -94t-31.5 -78.5v-153l-101 -64v352q-52 -102 -110 -176l-31 25q25 37 46 71t58 107t37 88v432q0 142 70 233t164 91q112 0 112 -137q0 -179 -245 -570v-188
q72 95 123 132.5t108 37.5q92 0 92 -131v-201q0 -76 29 -76q52 0 145 131zM238 565q100 178 138 282.5t38 190.5q0 50 -20 82.5t-52 32.5q-48 0 -76 -62t-28 -171v-355z" />
    <glyph glyph-name="i" unicode="i" 
d="M252 662l-70 -89l-71 89l71 86zM424 158q-57 -86 -117 -132t-108 -46q-54 0 -68 29t-14 102v182q-31 -79 -90 -154l-31 25q93 129 121 250l100 53v-317q0 -59 5.5 -78t27.5 -19q45 0 145 131z" />
    <glyph glyph-name="j" unicode="j" horiz-adv-x="406" 
d="M260 670l-70 -95l-69 95l69 92zM459 176q-120 -194 -223 -192v-310q0 -75 -11 -143.5t-71.5 -112t-118.5 -43.5q-114 0 -146 109q38 35 91 63l8 -14q-6 -18 -6 -31q0 -37 20.5 -60.5t56.5 -23.5q52 0 64 55t12 230v619q-31 -75 -102 -177l-29 27q87 138 129 252l103 51
v-434q46 0 86.5 34t105.5 128z" />
    <glyph glyph-name="k" unicode="k" horiz-adv-x="768" 
d="M815 170q-119 -190 -250 -190q-66 0 -114.5 46t-139.5 189l-51 -63v-136l-100 -51v367l-129 -187l-29 27q158 245 158 258v453q0 121 81.5 212t180.5 91q113 0 113 -113q0 -88 -70 -244t-205 -354v-262q117 145 182 195.5t125 50.5q44 0 75.5 -32.5t31.5 -53.5
q0 -30 -70 -70q-35 82 -84 82q-56 0 -137 -92q78 -120 126.5 -180t113.5 -60q59 0 161 142zM260 553q98 155 148.5 285.5t50.5 210.5q0 39 -19.5 66.5t-52.5 27.5q-53 0 -90 -62.5t-37 -148.5v-379z" />
    <glyph glyph-name="l" unicode="l" 
d="M-4 164q19 27 34.5 50.5t31.5 54t35.5 80t19.5 65.5v387q0 143 90 259t188 116q52 0 81.5 -36t29.5 -96q0 -80 -66 -215.5t-223 -379.5v-289q0 -62 5 -84.5t26 -22.5q45 0 145 131l31 -26q-119 -178 -236 -178q-35 0 -53 23.5t-18 107.5v182q-31 -79 -90 -154zM217 522
q134 220 176.5 319.5t42.5 172.5q0 112 -69 112q-63 0 -106.5 -71t-43.5 -193v-340z" />
    <glyph glyph-name="m" unicode="m" horiz-adv-x="981" 
d="M1022 158q-117 -178 -236 -178q-34 0 -52.5 22.5t-18.5 108.5v233q0 37 -29 37q-17 0 -36 -13.5t-40.5 -40.5t-57.5 -88.5t-36 -70.5v-158l-100 -49v365q0 45 -31 45q-26 0 -57 -28t-71 -97t-40 -78v-158l-100 -49v332q-31 -79 -90 -154l-31 25q88 119 121 256l100 47
v-207q114 195 215 195q42 0 63 -33t21 -162q63 109 111.5 152t101.5 43q86 0 86 -117v-184q0 -70 7 -85.5t24 -15.5q45 0 145 131z" />
    <glyph glyph-name="n" unicode="n" horiz-adv-x="682" 
d="M723 158q-121 -178 -231 -178q-36 0 -55 23.5t-19 107.5v229q0 53 -33 53q-16 0 -33.5 -12t-37.5 -35.5t-56.5 -78t-36.5 -60.5v-180l-100 -64v336q-31 -79 -94 -160l-31 25q101 142 127 256l98 47v-186q73 106 118 142t91 36q42 0 65 -30t23 -148v-134q0 -54 4.5 -74
t24.5 -20q49 0 145 131z" />
    <glyph glyph-name="o" unicode="o" horiz-adv-x="641" 
d="M-6 164q130 185 213 239t174 54q87 0 136.5 -46t49.5 -128q0 -117 -94 -213.5t-219 -96.5q-81 0 -129.5 48.5t-48.5 123.5q0 40 6 72q-15 -17 -55 -78zM319 39q76 0 121 55t45 146q0 79 -42 123.5t-111 44.5q-73 0 -116.5 -53t-43.5 -148q0 -168 147 -168zM680 158
q-80 -114 -151 -150.5t-142 -44.5l-8 23q165 37 268 196z" />
    <glyph glyph-name="p" unicode="p" horiz-adv-x="705" 
d="M225 360q102 103 199 103q77 0 122.5 -54t45.5 -143q0 -114 -74.5 -199t-169.5 -85q-69 0 -123 41v-385q0 -119 -66 -186.5t-161 -67.5q-100 0 -156 86l82 81l17 -14q-7 -18 -7 -29q0 -37 24.5 -64.5t61.5 -27.5q99 0 99 199v682q-36 -83 -94 -158l-29 25q82 112 123 254
l106 53v-111zM225 74q51 -49 121 -49q65 0 110.5 56t45.5 140q0 72 -39.5 115t-100.5 43q-79 0 -137 -84v-221zM743 158q-110 -174 -292 -195l-9 23q161 36 271 196z" />
    <glyph glyph-name="q" unicode="q" horiz-adv-x="705" 
d="M758 176q-105 -172 -199 -188v-449h-100v561q-89 -118 -197 -118q-81 0 -128.5 60.5t-47.5 156.5v18q-22 -25 -57 -76l-33 23q96 143 171 225t177 82q65 0 117 -39l98 51v-438q65 8 168 156zM459 166v215q-53 47 -115 47q-71 0 -116.5 -56t-45.5 -139q0 -75 35.5 -118
t91.5 -43q95 0 150 94z" />
    <glyph glyph-name="r" unicode="r" horiz-adv-x="492" 
d="M530 158q-113 -178 -227 -178q-117 0 -117 133q0 108 103 235q-18 -4 -64 -4q-30 0 -63 12q-51 -111 -135 -217l-31 25q94 136 164 309q96 -45 151 -45q52 0 90 41l17 -12q-61 -76 -98 -153.5t-37 -170.5q0 -29 19 -54.5t42 -25.5q38 0 73 31t83 98z" />
    <glyph glyph-name="s" unicode="s" horiz-adv-x="532" 
d="M231 483q78 -40 125 -117t47 -155q0 -93 -54.5 -162t-139.5 -69q-42 0 -91 28t-85 82q31 48 90 82l8 -10q-2 -10 -2 -29q0 -43 30 -76.5t68 -33.5q47 0 77 39.5t30 99.5q0 124 -148 221l-85 -134q-51 -82 -74 -110l-31 25q102 151 203 368l24 -2zM573 158
q-107 -176 -270 -191l-6 19q72 17 122.5 56.5t123.5 139.5z" />
    <glyph glyph-name="t" unicode="t" horiz-adv-x="449" 
d="M487 160q-113 -180 -239 -180q-60 0 -75 28.5t-15 91.5v242q-67 -115 -131 -201l-33 23q37 55 63 96t63.5 107.5t37.5 74.5v410l100 98v-381l154 242l39 -29l-193 -305v-307q0 -70 6 -93.5t33 -23.5q68 0 162 133z" />
    <glyph glyph-name="u" unicode="u" horiz-adv-x="705" 
d="M745 158q-121 -178 -231 -178q-37 0 -56.5 24.5t-19.5 106.5v84q-108 -159 -152 -191.5t-83 -32.5q-41 0 -63.5 28t-22.5 130v164q-43 -96 -88 -152l-33 23q89 128 121 258l100 51v-362q0 -39 4.5 -52.5t24.5 -13.5q22 0 57.5 34t85 109t49.5 82v152l101 51v-313
q0 -62 4.5 -84.5t25.5 -22.5q49 0 146 131z" />
    <glyph glyph-name="v" unicode="v" horiz-adv-x="555" 
d="M258 645q24 14 64 14q79 0 136.5 -68t57.5 -171q0 -238 -260 -453l-12 8q4 31 4 54q0 92 -117 254q-23 -23 -58 -77l-46 -69l-31 27q18 23 47 71q29 49 45 72q52 71 62 148h14q10 -52 68 -136t71.5 -128.5t13.5 -84.5v-28q158 162 158 344q0 68 -33 107.5t-86 39.5
q-40 0 -77 -20q-21 42 -21 96zM596 158q-109 -176 -270 -191l-7 19q73 17 123 56.5t121 139.5z" />
    <glyph glyph-name="w" unicode="w" horiz-adv-x="788" 
d="M420 621q15 18 51 18q99 0 160 -71t61 -185q0 -88 -37 -175.5t-147 -232.5l-23 11q7 26 7 45q0 44 -18.5 86t-50.5 84l-48 65q-65 -206 -178 -291l-23 11q6 41 6 57q0 27 -20 92t-51 129q-60 -96 -82 -125l-31 29q109 153 151 291l21 -8q0 -69 45 -157t45 -175v-15h6
q93 162 123 365h25q0 -87 65 -160q80 -86 86 -203q88 148 88 267q0 166 -135 166q-44 0 -63 -4q-33 50 -33 86zM829 158q-107 -176 -270 -191l-6 19q72 17 122.5 56.5t123.5 139.5z" />
    <glyph glyph-name="x" unicode="x" horiz-adv-x="662" 
d="M702 158q-54 -84 -111.5 -131t-96.5 -47q-34 0 -57.5 30t-96.5 150q-13 -17 -52 -79q-39 -61 -71 -82.5t-65 -21.5q-64 0 -84 52q25 57 57 84q34 -62 59 -62q37 0 78 68l53 88l-68 123q-21 41 -36 41q-17 0 -81 -92t-103 -140l-31 25q124 180 172.5 238.5t77.5 58.5
q42 0 72 -53l57 -99q67 111 99.5 133.5t66.5 22.5q43 0 69 -35q-10 -32 -63 -92q-26 43 -47 43q-18 0 -36 -19.5t-61 -99.5q94 -165 111 -178.5t39 -13.5q35 0 117 112z" />
    <glyph glyph-name="y" unicode="y" horiz-adv-x="705" 
d="M758 176q-107 -175 -203 -190v-318q0 -118 -73.5 -198t-182.5 -80q-62 0 -123 32t-94 89l84 94l14 -13q-4 -25 -4 -38q0 -47 40.5 -84t98.5 -37q63 0 98.5 48.5t35.5 135.5v559q-82 -116 -130 -158.5t-94 -42.5q-96 0 -96 105v235q-38 -87 -98 -170l-29 27
q97 152 127 254l107 53v-395q0 -35 28 -35h10q37 0 175 209v168l106 53v-434q68 6 170 156z" />
    <glyph glyph-name="z" unicode="z" horiz-adv-x="598" 
d="M637 158q-69 -110 -164 -160q39 -79 39 -193q0 -165 -87 -289t-218 -124q-70 0 -124 43t-63 104q42 34 109 64l12 -13q-8 -22 -8 -55q0 -44 28.5 -72t69.5 -28q74 0 132.5 87t58.5 228q0 112 -44.5 204t-125.5 140q-56 -67 -107 -67q-53 0 -53 41q0 37 42 61.5t106 24.5
h8q103 124 160 223q-58 -29 -132 -29q-63 0 -108 21q-62 -124 -141 -230l-31 25q66 95 176 319q102 -61 172 -61q76 0 143 59l25 -18q-77 -143 -223 -322q102 -25 164 -108q83 45 153 149zM215 111h-25q-15 0 -36 -11t-21 -28q0 -13 17 -13q16 0 35.5 14t29.5 38z" />
    <glyph glyph-name="braceleft" unicode="{" horiz-adv-x="897" 
d="M764 -393q-153 29 -239.5 129.5t-86.5 245.5q0 37 19 126q20 89 20 152q0 59 -59.5 117.5t-159.5 75.5v34q116 26 168.5 83t52.5 124q0 36 -20 139q-19 103 -19 166q0 111 86 211.5t238 126.5v-37q-96 -16 -150.5 -75.5t-54.5 -137.5q0 -46 19 -151q20 -105 20 -150
q0 -95 -67 -178t-197 -135q126 -52 194 -135.5t68 -167.5q0 -70 -20 -169q-19 -98 -19 -132q0 -181 207 -229v-33z" />
    <glyph glyph-name="bar" unicode="|" horiz-adv-x="981" 
d="M526 -387h-71v1702h71v-1702z" />
    <glyph glyph-name="braceright" unicode="}" horiz-adv-x="897" 
d="M637 455q-115 -23 -168 -82t-53 -123q0 -34 20 -138q21 -103 21 -167q0 -111 -86.5 -211t-239.5 -127v37q95 15 151 75t56 138q0 46 -21 151q-20 106 -20 150q0 95 67.5 177.5t198.5 133.5q-127 52 -194.5 135.5t-67.5 167.5q0 70 19 169q20 99 20 134q0 179 -209 228v34
q153 -29 240.5 -130.5t87.5 -245.5q0 -38 -20 -125q-19 -87 -19 -152q0 -60 59.5 -119t157.5 -76v-34z" />
    <glyph glyph-name="asciitilde" unicode="~" horiz-adv-x="1366" 
d="M1217 776q-3 -115 -69.5 -183.5t-156.5 -68.5q-79 0 -315 95q-235 96 -301 96q-150 0 -191 -187h-37q7 123 71.5 187.5t141.5 64.5q41 0 102 -16t210 -79q150 -62 212 -78.5t103 -16.5q170 0 193 186h37z" />
    <glyph glyph-name="nonbreakingspace" unicode="&#xa0;" horiz-adv-x="512" 
 />
    <glyph glyph-name="exclamdown" unicode="&#xa1;" horiz-adv-x="575" 
d="M371 522l-88 -104l-82 104l84 96zM373 -598q-53 -18 -86 -18q-51 0 -99 20q50 182 56 373l16 573h45l14 -586q7 -223 54 -362z" />
    <glyph glyph-name="cent" unicode="&#xa2;" horiz-adv-x="748" 
d="M668 442q-110 -140 -238 -143v-133h-49v137q-132 27 -202 113t-70 217q0 123 73 216.5t199 113.5v102h49v-98q92 -4 145.5 -46.5t53.5 -91.5q0 -28 -21 -46.5t-59 -18.5q-41 0 -41 10q0 4 19 17q20 13 20 38q0 30 -32 57.5t-85 33.5v-572q103 0 199 117zM381 358v560
q-88 -18 -135 -90.5t-47 -184.5q0 -217 182 -285z" />
    <glyph glyph-name="sterling" unicode="&#xa3;" horiz-adv-x="768" 
d="M784 121q-123 -150 -276 -150q-88 0 -211 56q-98 -58 -168 -58q-53 0 -87 23t-34 57q0 46 44 78.5t110 32.5t170 -41q35 46 35 92q0 68 -105 211h-172v47h141q-102 141 -102 223q0 108 94 187t236 79q113 0 178 -46.5t65 -118.5q0 -58 -37 -92.5t-96 -34.5q-57 0 -102 26
l20 29q26 -6 43 -6q36 0 59 23.5t23 58.5q0 49 -49 83.5t-121 34.5q-91 0 -157 -49.5t-66 -117.5q0 -44 28.5 -97.5t125.5 -181.5h239v-47h-215q39 -65 39 -148q0 -91 -59 -174q162 -55 209 -55q83 0 168 102zM248 49q-104 45 -133 45q-27 0 -43.5 -11.5t-16.5 -27.5
q0 -19 18.5 -31t47.5 -12q72 0 127 37z" />
    <glyph glyph-name="currency" unicode="&#xa4;" horiz-adv-x="1260" 
d="M1053 90l-39 -39l-115 113q-127 -98 -268 -98q-145 0 -269 100l-116 -115l-39 39l117 115q-101 123 -101 268q0 146 101 268l-117 113l41 41l114 -115q124 101 269 101q141 0 268 -101l115 115l39 -41l-115 -113q102 -125 102 -268q0 -142 -100 -270zM631 123
q146 0 247 95.5t101 254.5q0 145 -101.5 248.5t-244.5 103.5q-145 0 -246.5 -103t-101.5 -249q0 -159 100.5 -254.5t245.5 -95.5z" />
    <glyph glyph-name="yen" unicode="&#xa5;" horiz-adv-x="1153" 
d="M1153 1020q-17 -56 -66 -92q-39 49 -88 49q-100 0 -190 -168.5t-100 -382.5h30q71 0 144 16l-19 -53q-55 -12 -125 -12h-32l-5 -64h58q61 0 123 15l-19 -49q-49 -15 -123 -15h-41v-31q0 -178 7 -239l-121 -25q14 155 14 269v26q-67 6 -84 6q-58 0 -100 -14l18 51
q35 10 92 10q49 0 74 -2v64q-26 2 -88 2h-20q-38 0 -66 -8l16 51q46 12 76 12q10 0 38 -3q29 -3 42 -3q-13 295 -111 464t-227 169q-96 0 -158.5 -76t-62.5 -180q0 -86 47.5 -143.5t114.5 -57.5q54 0 93.5 42t39.5 89q0 35 -18 57.5t-44 22.5q-35 0 -51 -35l-24 11
q12 98 82 98q42 0 69 -38t27 -97q0 -91 -63 -162.5t-142 -71.5q-81 0 -133.5 67t-52.5 177q0 147 91.5 259t205.5 112q159 0 269 -148t140 -418q49 235 157 362.5t214 127.5q58 0 92 -41z" />
    <glyph glyph-name="brokenbar" unicode="&#xa6;" horiz-adv-x="981" 
d="M526 598h-71v717h71v-717zM526 -387h-71v719h71v-719z" />
    <glyph glyph-name="section" unicode="&#xa7;" horiz-adv-x="961" 
d="M604 938q21 -72 80 -72q41 0 66.5 30.5t25.5 70.5q0 59 -52.5 106t-129.5 47q-96 0 -162.5 -65.5t-66.5 -165.5q0 -95 52 -145t188 -126t166.5 -101.5t52.5 -67.5t22 -84q0 -141 -176 -193q137 -101 137 -227q0 -102 -82 -175t-207 -73q-136 0 -220.5 76.5t-84.5 179.5
q0 58 37 99.5t92 41.5q58 0 94.5 -41.5t38.5 -115.5h-16q-31 73 -94 73q-38 0 -64.5 -27.5t-26.5 -70.5q0 -68 57 -114t140 -46q88 0 152.5 61t64.5 154q0 100 -53.5 155t-189.5 138q-135 83 -163.5 107.5t-50.5 65.5t-22 85q0 67 44 118.5t126 72.5q-125 118 -125 227
q0 101 77 170.5t201 69.5q135 0 224.5 -74t89.5 -174q0 -62 -39.5 -104t-99.5 -42q-57 0 -90 38t-33 98v20h20zM584 229q71 11 111 56.5t40 103.5q0 54 -35 104t-241 162q-131 -53 -131 -166q0 -72 58 -130t198 -130z" />
    <glyph glyph-name="dieresis" unicode="&#xa8;" horiz-adv-x="682" 
d="M338 664l-90 -95l-88 95l88 100zM559 664l-90 -95l-90 95l90 100z" />
    <glyph glyph-name="copyright" unicode="&#xa9;" horiz-adv-x="1579" 
d="M788 1352q289 0 494 -204.5t205 -492.5q0 -287 -205.5 -492.5t-493.5 -205.5q-287 0 -491.5 205t-204.5 493q0 287 204.5 492t491.5 205zM788 -10q274 0 470 195t196 468q0 274 -196 470t-470 196q-273 0 -468 -196t-195 -470t194.5 -468.5t468.5 -194.5zM1133 434
q-124 -205 -336 -205q-178 0 -298 122.5t-120 310.5q0 191 125 319.5t297 128.5q73 0 141 -27q69 -26 92 -26q18 0 33 15t16 40h13l18 -272h-12q-71 245 -291 245q-139 0 -226 -115.5t-87 -297.5q0 -188 89.5 -294t239.5 -106q176 0 299 166z" />
    <glyph glyph-name="ordfeminine" unicode="&#xaa;" horiz-adv-x="532" 
d="M516 1149q-52 -76 -81.5 -95.5t-57.5 -19.5q-54 0 -62 45q-58 -49 -120 -49q-111 0 -119 127q-2 -3 -12 -15q-9 -11 -11 -14l-28 17q130 174 241 174q26 0 62 -16l63 30v-241q0 -15 15 -15q17 0 83 90zM315 1141v131q-29 20 -55 20q-40 0 -69 -33.5t-29 -84.5
q0 -89 71 -89q47 0 82 56z" />
    <glyph glyph-name="guillemotleft" unicode="&#xab;" horiz-adv-x="788" 
d="M416 41l-15 -16l-307 294l307 273l15 -19l-174 -254zM696 41l-14 -16l-309 294l309 273l14 -19l-174 -254z" />
    <glyph glyph-name="logicalnot" unicode="&#xac;" horiz-adv-x="1366" 
d="M1217 201h-58v487h-1012v57h1070v-544z" />
    <glyph glyph-name="sfthyphen" unicode="&#xad;" 
d="M344 215h-291v74h291v-74z" />
    <glyph glyph-name="registered" unicode="&#xae;" horiz-adv-x="1556" 
d="M780 1356q288 0 492.5 -204.5t204.5 -492.5t-204.5 -493t-492.5 -205q-287 0 -492.5 205.5t-205.5 492.5t205 492t493 205zM780 -6q273 0 468.5 194.5t195.5 468.5q0 276 -195 471t-469 195q-273 0 -469 -196t-196 -470q0 -273 195 -468t470 -195zM1176 244h-189
q0 3 -78 110l-213 295h-84v-239q0 -94 23 -121t104 -29v-16h-348v14h4q68 0 92.5 24.5t24.5 90.5v563q0 84 -23.5 112.5t-97.5 28.5v10h268q106 0 156.5 -6t99 -34.5t75 -73t26.5 -99.5q0 -181 -234 -206l176 -238q75 -101 113.5 -133.5t104.5 -36.5v-16zM612 670h39
q123 0 188.5 56.5t65.5 160.5q0 82 -53.5 130t-146.5 48q-44 0 -93 -21v-374z" />
    <glyph glyph-name="overscore" unicode="&#xaf;" horiz-adv-x="1025" 
d="M1036 1488h-1048v102h1048v-102z" />
    <glyph glyph-name="degree" unicode="&#xb0;" horiz-adv-x="705" 
d="M352 1423q117 0 201 -83t84 -199t-84 -198.5t-201 -82.5q-116 0 -200 82.5t-84 198.5t84 199t200 83zM352 915q93 0 158 66t65 160t-65 160.5t-158 66.5q-92 0 -157.5 -66.5t-65.5 -160.5t65 -160t158 -66z" />
    <glyph glyph-name="plusminus" unicode="&#xb1;" horiz-adv-x="1260" 
d="M1126 584h-467v-461h-65v461h-463v67h463v465h65v-465h467v-67zM1126 -166h-995v68h995v-68z" />
    <glyph glyph-name="twosuperior" unicode="&#xb2;" horiz-adv-x="492" 
d="M449 571q-47 -133 -170 -133q-42 0 -85 23q-42 24 -55 24q-34 0 -41 -43h-39v9q0 48 30 94.5t102 96.5q97 68 118 99.5t21 63.5q0 44 -32.5 77t-80.5 33q-45 0 -73.5 -24.5t-28.5 -65.5q0 -61 51 -61q43 0 43 47v4l31 10q14 -20 14 -43q0 -33 -28 -53t-70 -20
q-45 0 -74 26.5t-29 67.5q0 64 56.5 109.5t138.5 45.5q71 0 121.5 -38.5t50.5 -94.5q0 -36 -23 -71.5t-128 -103.5q-105 -67 -138 -122q35 13 57 13q32 0 76 -15q45 -14 62 -14q49 0 86 74z" />
    <glyph glyph-name="threesuperior" unicode="&#xb3;" horiz-adv-x="492" 
d="M332 717q112 -34 112 -115q0 -61 -68 -110.5t-159 -49.5q-75 0 -122.5 35.5t-47.5 81.5q0 34 28 59t68 25q68 0 103 -65l-31 -19q-20 29 -49 29q-20 0 -34.5 -13.5t-14.5 -33.5q0 -28 31 -47t73 -19q55 0 94 35t39 84q0 45 -30.5 72.5t-53.5 27.5q-4 0 -22 -8t-33 -8
q-31 0 -31 16q0 23 78 27q76 38 76 104q0 39 -30 64.5t-77 25.5q-45 0 -72.5 -22t-27.5 -53q0 -45 45 -45q36 0 51 39l35 -13q-29 -82 -102 -82q-40 0 -65 21t-25 55q0 58 57 100.5t135 42.5q69 0 113.5 -32t44.5 -82q0 -69 -88 -127z" />
    <glyph glyph-name="acute" unicode="&#xb4;" horiz-adv-x="682" 
d="M637 788l-264 -219h-45l92 219h217z" />
    <glyph glyph-name="mu" unicode="&#xb5;" horiz-adv-x="938" 
d="M858 190q-18 -219 -160 -219q-109 0 -125 185q-138 -181 -262 -181q-96 0 -141 115v-43q0 -147 2.5 -172.5t18.5 -95.5t16 -109q0 -40 -18 -66t-44 -26q-27 0 -45 26.5t-18 69.5q0 11 7 46q42 202 42 522v327h107v-278q0 -126 34.5 -170.5t108.5 -44.5q71 0 192 137v356
h107v-336q0 -172 65 -172q28 0 45 24.5t33 104.5h35z" />
    <glyph glyph-name="paragraph" unicode="&#xb6;" horiz-adv-x="981" 
d="M993 1368h-71q-44 0 -67.5 -34.5t-23.5 -143.5v-1649h-73v1809h-195v-1809h-76v1082q-267 2 -382 111t-115 280q0 183 123.5 288t343.5 105h536v-39z" />
    <glyph glyph-name="periodcentered" unicode="&#xb7;" 
d="M289 473l-90 -96l-90 92l90 100z" />
    <glyph glyph-name="periodcentered" unicode="&#x2219;" 
d="M289 473l-90 -96l-90 92l90 100z" />
    <glyph glyph-name="cedilla" unicode="&#xb8;" horiz-adv-x="682" 
d="M344 -25h14q35 0 55.5 -21.5t20.5 -53.5q0 -55 -47.5 -109t-198.5 -158l-14 31q141 104 141 162q0 45 -61 65z" />
    <glyph glyph-name="onesuperior" unicode="&#xb9;" horiz-adv-x="492" 
d="M291 475l-86 -39v414q-46 -23 -103 -33l-18 31q130 30 182 137l25 -14v-496z" />
    <glyph glyph-name="ordmasculine" unicode="&#xba;" horiz-adv-x="492" 
d="M29 1153q123 178 256 178q60 0 95.5 -28.5t35.5 -77.5q0 -70 -64.5 -127.5t-148.5 -57.5q-58 0 -91.5 28.5t-33.5 76.5l2 20l-23 -30zM244 1073q46 0 74 35.5t28 89.5q0 100 -92 100q-46 0 -73 -32t-27 -88q0 -48 24 -76.5t66 -28.5zM473 1149q-73 -108 -201 -119l-4 12
q118 37 178 125z" />
    <glyph glyph-name="guillemotright" unicode="&#xbb;" horiz-adv-x="788" 
d="M416 319l-307 -294l-15 16l174 278l-174 254l15 19zM696 319l-309 -294l-14 16l174 278l-174 254l14 19z" />
    <glyph glyph-name="onequarter" unicode="&#xbc;" horiz-adv-x="1175" 
d="M291 475l-86 -39v414q-46 -23 -103 -33l-18 31q130 30 182 137l25 -14v-496zM1025 969l-809 -992h-70l807 992h72zM1145 210q-21 -79 -115 -101v-96l-86 -41v144q-96 20 -125 20q-58 0 -96 -35l-22 17q138 176 198 362q60 28 121 62l8 -21q-32 -69 -76 -131l78 37v-262
q51 1 82 57zM944 179v199l-143 -193q41 6 51 6q29 0 92 -12z" />
    <glyph glyph-name="onehalf" unicode="&#xbd;" horiz-adv-x="1174" 
d="M291 475l-86 -39v414q-46 -23 -103 -33l-18 31q130 30 182 137l25 -14v-496zM1025 969l-809 -992h-70l807 992h72zM1131 115q-47 -133 -170 -133q-42 0 -85 23q-42 24 -55 24q-34 0 -41 -43h-39v9q0 48 30 94.5t102 96.5q97 68 118 99.5t21 63.5q0 44 -32.5 77t-80.5 33
q-45 0 -73.5 -24.5t-28.5 -65.5q0 -61 51 -61q43 0 43 47v4l31 10q14 -20 14 -43q0 -33 -28 -53t-70 -20q-45 0 -74 26.5t-29 67.5q0 64 56.5 109.5t138.5 45.5q71 0 121.5 -38.5t50.5 -94.5q0 -36 -23 -71.5t-128 -103.5q-105 -67 -138 -122q35 13 57 13q32 0 76 -15
q45 -14 62 -14q49 0 86 74z" />
    <glyph glyph-name="threequarters" unicode="&#xbe;" horiz-adv-x="1175" 
d="M332 717q112 -34 112 -115q0 -61 -68 -110.5t-159 -49.5q-75 0 -122.5 35.5t-47.5 81.5q0 34 28 59t68 25q68 0 103 -65l-31 -19q-20 29 -49 29q-20 0 -34.5 -13.5t-14.5 -33.5q0 -28 31 -47t73 -19q55 0 94 35t39 84q0 45 -30.5 72.5t-53.5 27.5q-4 0 -22 -8t-33 -8
q-31 0 -31 16q0 23 78 27q76 38 76 104q0 39 -30 64.5t-77 25.5q-45 0 -72.5 -22t-27.5 -53q0 -45 45 -45q36 0 51 39l35 -13q-29 -82 -102 -82q-40 0 -65 21t-25 55q0 58 57 100.5t135 42.5q69 0 113.5 -32t44.5 -82q0 -69 -88 -127zM1025 969l-809 -992h-70l807 992h72z
M1145 210q-21 -79 -115 -101v-96l-86 -41v144q-96 20 -125 20q-58 0 -96 -35l-22 17q138 176 198 362q60 28 121 62l8 -21q-32 -69 -76 -131l78 37v-262q51 1 82 57zM944 179v199l-143 -193q41 6 51 6q29 0 92 -12z" />
    <glyph glyph-name="questiondown" unicode="&#xbf;" horiz-adv-x="874" 
d="M655 512l-80 -100l-86 108l84 98zM555 -387l-2 25q0 57 36 94t93 37q58 0 95.5 -41.5t37.5 -100.5q0 -100 -83 -171.5t-216 -71.5q-124 0 -202 64.5t-78 160.5q0 68 35 137t157 169q123 100 151.5 151t28.5 100q0 38 -22 66t-51 28q-31 0 -60 -39l-20 12q10 47 40.5 74
t69.5 27q49 0 77 -34.5t28 -96.5q0 -58 -29.5 -118.5t-125.5 -156.5q-95 -97 -128 -148.5t-33 -125.5q0 -96 60.5 -155.5t152.5 -59.5q77 0 127.5 41t50.5 104q0 101 -86 101q-61 0 -90 -70z" />
    <glyph glyph-name="Agrave" unicode="&#xc0;" horiz-adv-x="1044" 
d="M705 199q-151 -219 -336 -219q-133 0 -216 109t-83 280q0 232 121.5 463.5t313.5 374.5t376 143q119 0 189.5 -79.5t70.5 -213.5q0 -312 -310 -496v-411q0 -59 7.5 -79t40.5 -20q74 0 174 131l32 -26q-69 -99 -125 -139t-118 -40q-68 0 -103 37t-34 185zM831 616
q111 56 169.5 155.5t58.5 219.5q0 127 -74 201t-197 74q-224 0 -408.5 -237t-184.5 -566q0 -180 65 -290t168 -110q31 0 61.5 9.5t60 28t57.5 46.5t63 81.5t35 68.5v217q-34 -4 -58 -4q-104 0 -165.5 61.5t-61.5 163.5q0 99 60.5 193.5t166.5 144.5l15 -22
q-152 -127 -152 -279q0 -90 48.5 -143.5t131.5 -53.5h15v404l126 68v-431zM852 1442h-45l-189 219h199z" />
    <glyph glyph-name="Aacute" unicode="&#xc1;" horiz-adv-x="1044" 
d="M705 199q-151 -219 -336 -219q-133 0 -216 109t-83 280q0 232 121.5 463.5t313.5 374.5t376 143q119 0 189.5 -79.5t70.5 -213.5q0 -312 -310 -496v-411q0 -59 7.5 -79t40.5 -20q74 0 174 131l32 -26q-69 -99 -125 -139t-118 -40q-68 0 -103 37t-34 185zM831 616
q111 56 169.5 155.5t58.5 219.5q0 127 -74 201t-197 74q-224 0 -408.5 -237t-184.5 -566q0 -180 65 -290t168 -110q31 0 61.5 9.5t60 28t57.5 46.5t63 81.5t35 68.5v217q-34 -4 -58 -4q-104 0 -165.5 61.5t-61.5 163.5q0 99 60.5 193.5t166.5 144.5l15 -22
q-152 -127 -152 -279q0 -90 48.5 -143.5t131.5 -53.5h15v404l126 68v-431zM1022 1661l-264 -219h-45l92 219h217z" />
    <glyph glyph-name="Acircumflex" unicode="&#xc2;" horiz-adv-x="1044" 
d="M705 199q-151 -219 -336 -219q-133 0 -216 109t-83 280q0 232 121.5 463.5t313.5 374.5t376 143q119 0 189.5 -79.5t70.5 -213.5q0 -312 -310 -496v-411q0 -59 7.5 -79t40.5 -20q74 0 174 131l32 -26q-69 -99 -125 -139t-118 -40q-68 0 -103 37t-34 185zM831 616
q111 56 169.5 155.5t58.5 219.5q0 127 -74 201t-197 74q-224 0 -408.5 -237t-184.5 -566q0 -180 65 -290t168 -110q31 0 61.5 9.5t60 28t57.5 46.5t63 81.5t35 68.5v217q-34 -4 -58 -4q-104 0 -165.5 61.5t-61.5 163.5q0 99 60.5 193.5t166.5 144.5l15 -22
q-152 -127 -152 -279q0 -90 48.5 -143.5t131.5 -53.5h15v404l126 68v-431zM969 1442h-45l-172 115l-181 -115h-45l226 265z" />
    <glyph glyph-name="Atilde" unicode="&#xc3;" horiz-adv-x="1044" 
d="M705 199q-151 -219 -336 -219q-133 0 -216 109t-83 280q0 232 121.5 463.5t313.5 374.5t376 143q119 0 189.5 -79.5t70.5 -213.5q0 -312 -310 -496v-411q0 -59 7.5 -79t40.5 -20q74 0 174 131l32 -26q-69 -99 -125 -139t-118 -40q-68 0 -103 37t-34 185zM831 616
q111 56 169.5 155.5t58.5 219.5q0 127 -74 201t-197 74q-224 0 -408.5 -237t-184.5 -566q0 -180 65 -290t168 -110q31 0 61.5 9.5t60 28t57.5 46.5t63 81.5t35 68.5v217q-34 -4 -58 -4q-104 0 -165.5 61.5t-61.5 163.5q0 99 60.5 193.5t166.5 144.5l15 -22
q-152 -127 -152 -279q0 -90 48.5 -143.5t131.5 -53.5h15v404l126 68v-431zM956 1613q-106 -151 -161 -151q-17 0 -78 34q-61 35 -82 35q-31 0 -86 -67h-51q67 96 100.5 127t62.5 31q33 0 86 -35q54 -35 76 -35q26 0 80 61h53z" />
    <glyph glyph-name="Adieresis" unicode="&#xc4;" horiz-adv-x="1044" 
d="M705 199q-151 -219 -336 -219q-133 0 -216 109t-83 280q0 232 121.5 463.5t313.5 374.5t376 143q119 0 189.5 -79.5t70.5 -213.5q0 -312 -310 -496v-411q0 -59 7.5 -79t40.5 -20q74 0 174 131l32 -26q-69 -99 -125 -139t-118 -40q-68 0 -103 37t-34 185zM831 616
q111 56 169.5 155.5t58.5 219.5q0 127 -74 201t-197 74q-224 0 -408.5 -237t-184.5 -566q0 -180 65 -290t168 -110q31 0 61.5 9.5t60 28t57.5 46.5t63 81.5t35 68.5v217q-34 -4 -58 -4q-104 0 -165.5 61.5t-61.5 163.5q0 99 60.5 193.5t166.5 144.5l15 -22
q-152 -127 -152 -279q0 -90 48.5 -143.5t131.5 -53.5h15v404l126 68v-431zM723 1537l-90 -95l-88 95l88 100zM944 1537l-90 -95l-90 95l90 100z" />
    <glyph glyph-name="Aring" unicode="&#xc5;" horiz-adv-x="1044" 
d="M705 199q-151 -219 -336 -219q-133 0 -216 109t-83 280q0 232 121.5 463.5t313.5 374.5t376 143q119 0 189.5 -79.5t70.5 -213.5q0 -312 -310 -496v-411q0 -59 7.5 -79t40.5 -20q74 0 174 131l32 -26q-69 -99 -125 -139t-118 -40q-68 0 -103 37t-34 185zM831 616
q111 56 169.5 155.5t58.5 219.5q0 127 -74 201t-197 74q-224 0 -408.5 -237t-184.5 -566q0 -180 65 -290t168 -110q31 0 61.5 9.5t60 28t57.5 46.5t63 81.5t35 68.5v217q-34 -4 -58 -4q-104 0 -165.5 61.5t-61.5 163.5q0 99 60.5 193.5t166.5 144.5l15 -22
q-152 -127 -152 -279q0 -90 48.5 -143.5t131.5 -53.5h15v404l126 68v-431zM803 1709q46 0 76 -29t30 -76q0 -63 -48 -110.5t-114 -47.5q-46 0 -73 29t-27 76q0 65 45.5 111.5t110.5 46.5zM772 1489q68 0 68 93q0 84 -62 84q-31 0 -50 -26.5t-19 -68.5q0 -35 18 -58.5
t45 -23.5z" />
    <glyph glyph-name="AE" unicode="&#xc6;" horiz-adv-x="1706" 
d="M1700 1247q-95 -80 -230 -80q-71 0 -188 38q-116 38 -162 38q-85 0 -140.5 -60.5t-55.5 -156.5q0 -104 60.5 -167.5t156.5 -63.5q43 0 106 20l4 -47q-189 -22 -297 -132.5t-108 -266.5q0 -151 91 -244.5t226 -93.5q148 0 257.5 106t109.5 238q0 90 -53.5 155.5
t-130.5 65.5q-64 0 -109 -45.5t-45 -101.5q0 -37 23.5 -63t54.5 -26q34 0 69 33l25 -12q-34 -111 -127 -111q-46 0 -76.5 40t-30.5 91q0 98 83 179.5t200 81.5q93 0 150 -58t57 -149q0 -182 -136 -327.5t-339 -145.5q-161 0 -257.5 60t-154.5 189q-157 -249 -356 -249
q-132 0 -215.5 110t-83.5 275q0 232 122 464t315 375.5t378 143.5q85 0 172 -64q106 41 186 41q68 0 182 -38q115 -38 156 -38q44 0 97 25zM1026 745q-221 50 -221 230q0 134 145 250q-73 41 -149 41q-224 0 -411 -237t-187 -566q0 -181 66 -289t173 -108q80 0 153.5 60.5
t119.5 172.5q-4 31 -4 57q0 121 80 223t235 166z" />
    <glyph glyph-name="Ccedilla" unicode="&#xc7;" horiz-adv-x="961" 
d="M1018 182q-74 -114 -170.5 -163.5t-245.5 -49.5q-241 0 -386.5 148t-145.5 389q0 203 103.5 396t272 310t338.5 117q124 0 196.5 -69t72.5 -189q0 -176 -127 -315.5t-275 -139.5q-75 0 -122.5 46t-47.5 120q0 118 133 222l21 -25q-72 -47 -72 -148q0 -62 42.5 -101.5
t107.5 -39.5q101 0 179.5 87.5t78.5 211.5q0 120 -74 193t-195 73q-202 0 -358 -189t-156 -454q0 -244 139.5 -406.5t352.5 -162.5q106 0 176.5 37.5t128.5 126.5zM566 -103h14q35 0 55.5 -21.5t20.5 -53.5q0 -55 -47.5 -109t-198.5 -158l-14 31q141 104 141 162
q0 45 -61 65z" />
    <glyph glyph-name="Egrave" unicode="&#xc8;" horiz-adv-x="1067" 
d="M1057 1253q-95 -82 -230 -82q-74 0 -180 37q-105 37 -164 37q-91 0 -145.5 -60t-54.5 -159q0 -103 60 -166t151 -63q38 0 112 16l6 -41q-190 -24 -297.5 -134.5t-107.5 -270.5q0 -150 89 -241t230 -91q148 0 255.5 105t107.5 237q0 91 -54 156t-128 65
q-61 0 -108.5 -44.5t-47.5 -100.5q0 -40 23.5 -67.5t56.5 -27.5q38 0 67 37l23 -12q-24 -109 -121 -109q-50 0 -80.5 35.5t-30.5 93.5q0 101 84.5 181t198.5 80q94 0 150.5 -60.5t56.5 -150.5q0 -177 -137.5 -325t-347.5 -148q-189 0 -306.5 109.5t-117.5 268.5
q0 124 83.5 228.5t237.5 161.5q-227 49 -227 231q0 135 138.5 242.5t311.5 107.5q71 0 180 -37t162 -37q40 0 86 25zM693 1442h-45l-189 219h199z" />
    <glyph glyph-name="Eacute" unicode="&#xc9;" horiz-adv-x="1067" 
d="M1057 1253q-95 -82 -230 -82q-74 0 -180 37q-105 37 -164 37q-91 0 -145.5 -60t-54.5 -159q0 -103 60 -166t151 -63q38 0 112 16l6 -41q-190 -24 -297.5 -134.5t-107.5 -270.5q0 -150 89 -241t230 -91q148 0 255.5 105t107.5 237q0 91 -54 156t-128 65
q-61 0 -108.5 -44.5t-47.5 -100.5q0 -40 23.5 -67.5t56.5 -27.5q38 0 67 37l23 -12q-24 -109 -121 -109q-50 0 -80.5 35.5t-30.5 93.5q0 101 84.5 181t198.5 80q94 0 150.5 -60.5t56.5 -150.5q0 -177 -137.5 -325t-347.5 -148q-189 0 -306.5 109.5t-117.5 268.5
q0 124 83.5 228.5t237.5 161.5q-227 49 -227 231q0 135 138.5 242.5t311.5 107.5q71 0 180 -37t162 -37q40 0 86 25zM862 1661l-264 -219h-45l92 219h217z" />
    <glyph glyph-name="Ecircumflex" unicode="&#xca;" horiz-adv-x="1067" 
d="M1057 1253q-95 -82 -230 -82q-74 0 -180 37q-105 37 -164 37q-91 0 -145.5 -60t-54.5 -159q0 -103 60 -166t151 -63q38 0 112 16l6 -41q-190 -24 -297.5 -134.5t-107.5 -270.5q0 -150 89 -241t230 -91q148 0 255.5 105t107.5 237q0 91 -54 156t-128 65
q-61 0 -108.5 -44.5t-47.5 -100.5q0 -40 23.5 -67.5t56.5 -27.5q38 0 67 37l23 -12q-24 -109 -121 -109q-50 0 -80.5 35.5t-30.5 93.5q0 101 84.5 181t198.5 80q94 0 150.5 -60.5t56.5 -150.5q0 -177 -137.5 -325t-347.5 -148q-189 0 -306.5 109.5t-117.5 268.5
q0 124 83.5 228.5t237.5 161.5q-227 49 -227 231q0 135 138.5 242.5t311.5 107.5q71 0 180 -37t162 -37q40 0 86 25zM810 1442h-45l-172 115l-181 -115h-45l226 265z" />
    <glyph glyph-name="Edieresis" unicode="&#xcb;" horiz-adv-x="1067" 
d="M1057 1253q-95 -82 -230 -82q-74 0 -180 37q-105 37 -164 37q-91 0 -145.5 -60t-54.5 -159q0 -103 60 -166t151 -63q38 0 112 16l6 -41q-190 -24 -297.5 -134.5t-107.5 -270.5q0 -150 89 -241t230 -91q148 0 255.5 105t107.5 237q0 91 -54 156t-128 65
q-61 0 -108.5 -44.5t-47.5 -100.5q0 -40 23.5 -67.5t56.5 -27.5q38 0 67 37l23 -12q-24 -109 -121 -109q-50 0 -80.5 35.5t-30.5 93.5q0 101 84.5 181t198.5 80q94 0 150.5 -60.5t56.5 -150.5q0 -177 -137.5 -325t-347.5 -148q-189 0 -306.5 109.5t-117.5 268.5
q0 124 83.5 228.5t237.5 161.5q-227 49 -227 231q0 135 138.5 242.5t311.5 107.5q71 0 180 -37t162 -37q40 0 86 25zM563 1537l-90 -95l-88 95l88 100zM784 1537l-90 -95l-90 95l90 100z" />
    <glyph glyph-name="Igrave" unicode="&#xcc;" horiz-adv-x="1067" 
d="M797 989q54 23 88 23q54 0 87.5 -35.5t33.5 -91.5q0 -133 -140 -236q58 -124 58 -235q0 -175 -134.5 -304.5t-334.5 -129.5q-154 0 -255.5 74.5t-129.5 213.5q52 39 147 49l6 -18q-14 -23 -14 -59q0 -91 79.5 -154t192.5 -63q140 0 236 97.5t96 235.5q0 100 -72 238
q-41 -6 -90 -6q-155 0 -250.5 84t-95.5 217q0 178 173.5 310.5t479.5 131.5l9 -24q-114 -35 -176 -113.5t-62 -169.5q0 -120 117 -336q90 64 90 158q0 53 -29.5 88t-62.5 35q-12 0 -43 -6zM854 1290q-212 -24 -321 -120t-109 -252q0 -129 70 -208t184 -79l39 2
q-78 182 -78 297q0 217 215 360zM852 1442h-45l-189 219h199z" />
    <glyph glyph-name="Iacute" unicode="&#xcd;" horiz-adv-x="1067" 
d="M797 989q54 23 88 23q54 0 87.5 -35.5t33.5 -91.5q0 -133 -140 -236q58 -124 58 -235q0 -175 -134.5 -304.5t-334.5 -129.5q-154 0 -255.5 74.5t-129.5 213.5q52 39 147 49l6 -18q-14 -23 -14 -59q0 -91 79.5 -154t192.5 -63q140 0 236 97.5t96 235.5q0 100 -72 238
q-41 -6 -90 -6q-155 0 -250.5 84t-95.5 217q0 178 173.5 310.5t479.5 131.5l9 -24q-114 -35 -176 -113.5t-62 -169.5q0 -120 117 -336q90 64 90 158q0 53 -29.5 88t-62.5 35q-12 0 -43 -6zM854 1290q-212 -24 -321 -120t-109 -252q0 -129 70 -208t184 -79l39 2
q-78 182 -78 297q0 217 215 360zM1022 1661l-264 -219h-45l92 219h217z" />
    <glyph glyph-name="Icircumflex" unicode="&#xce;" horiz-adv-x="1067" 
d="M797 989q54 23 88 23q54 0 87.5 -35.5t33.5 -91.5q0 -133 -140 -236q58 -124 58 -235q0 -175 -134.5 -304.5t-334.5 -129.5q-154 0 -255.5 74.5t-129.5 213.5q52 39 147 49l6 -18q-14 -23 -14 -59q0 -91 79.5 -154t192.5 -63q140 0 236 97.5t96 235.5q0 100 -72 238
q-41 -6 -90 -6q-155 0 -250.5 84t-95.5 217q0 178 173.5 310.5t479.5 131.5l9 -24q-114 -35 -176 -113.5t-62 -169.5q0 -120 117 -336q90 64 90 158q0 53 -29.5 88t-62.5 35q-12 0 -43 -6zM854 1290q-212 -24 -321 -120t-109 -252q0 -129 70 -208t184 -79l39 2
q-78 182 -78 297q0 217 215 360zM969 1442h-45l-172 115l-181 -115h-45l226 265z" />
    <glyph glyph-name="Idieresis" unicode="&#xcf;" horiz-adv-x="1067" 
d="M797 989q54 23 88 23q54 0 87.5 -35.5t33.5 -91.5q0 -133 -140 -236q58 -124 58 -235q0 -175 -134.5 -304.5t-334.5 -129.5q-154 0 -255.5 74.5t-129.5 213.5q52 39 147 49l6 -18q-14 -23 -14 -59q0 -91 79.5 -154t192.5 -63q140 0 236 97.5t96 235.5q0 100 -72 238
q-41 -6 -90 -6q-155 0 -250.5 84t-95.5 217q0 178 173.5 310.5t479.5 131.5l9 -24q-114 -35 -176 -113.5t-62 -169.5q0 -120 117 -336q90 64 90 158q0 53 -29.5 88t-62.5 35q-12 0 -43 -6zM854 1290q-212 -24 -321 -120t-109 -252q0 -129 70 -208t184 -79l39 2
q-78 182 -78 297q0 217 215 360zM723 1537l-90 -95l-88 95l88 100zM944 1537l-90 -95l-90 95l90 100z" />
    <glyph glyph-name="Eth" unicode="&#xd0;" horiz-adv-x="1430" 
d="M563 815q-14 -128 -78.5 -196t-158.5 -68q-92 0 -151.5 70.5t-59.5 175.5q0 210 173.5 367t436.5 157q282 0 458.5 -182t176.5 -475q0 -287 -165 -487t-370 -200q-69 0 -160 56q-90 57 -155 57q-85 0 -162 -113l-24 15q39 97 161 184q123 87 164 157t41 187q0 45 -6 105
q-46 0 -109 -7l37 56l66 -2q-8 71 -8 151q0 124 47 201t151 123l13 -23q-107 -76 -107 -211q0 -26 29 -243h22q98 0 211 10l-37 -59q-68 6 -190 6v-45q0 -126 -63.5 -221t-223.5 -197l49 2q114 0 199 -53q86 -52 162 -52q127 0 229.5 149t102.5 368q0 287 -180.5 482
t-438.5 195q-199 0 -330 -116.5t-131 -282.5q0 -91 50 -148t126 -57q130 0 177 170z" />
    <glyph glyph-name="Ntilde" unicode="&#xd1;" horiz-adv-x="1792" 
d="M1849 182q-65 -103 -140 -151.5t-181 -48.5q-125 0 -204 97t-79 251q0 309 283 762q-82 -41 -127 -41q-63 0 -135 51l-154 -217q8 -52 8 -140q0 -331 -166 -548t-405 -217q-184 0 -287 147l109 92l12 -10q37 -174 217 -174q173 0 301.5 179t128.5 450q0 252 -129 413.5
t-303 161.5q-161 0 -279 -128.5t-118 -305.5q0 -116 64.5 -188t162.5 -72q91 0 166.5 76.5t75.5 177.5q0 55 -29 91t-68 36q-54 0 -86 -74l-26 2v18q0 68 32.5 106t88.5 38q58 0 96.5 -54.5t38.5 -138.5q0 -147 -104 -257.5t-244 -110.5q-114 0 -182 78t-68 210
q0 221 171 400.5t382 179.5q319 0 428 -381l223 318q59 -125 158 -125q78 0 151 94l25 -19q-157 -224 -225 -412t-68 -388q0 -170 62.5 -266.5t160.5 -96.5q67 0 118.5 36.5t113.5 123.5zM1535 1613q-106 -151 -161 -151q-17 0 -78 34q-61 35 -82 35q-31 0 -86 -67h-51
q67 96 100.5 127t62.5 31q33 0 86 -35q54 -35 76 -35q26 0 80 61h53z" />
    <glyph glyph-name="Ograve" unicode="&#xd2;" horiz-adv-x="1174" 
d="M696 874q23 -40 23 -92q0 -76 -53.5 -128t-124.5 -52q-83 0 -141 71t-58 189q0 188 116.5 327.5t254.5 139.5q149 0 257.5 -163.5t108.5 -415.5q0 -314 -159.5 -541t-378.5 -227q-185 0 -315 166.5t-130 426.5q0 419 320 707l22 -29q-245 -221 -245 -567
q0 -252 130.5 -428t303.5 -176q154 0 258 153.5t104 409.5q0 257 -110.5 420.5t-251.5 163.5q-96 0 -160 -82.5t-64 -206.5q0 -101 45 -165t115 -64q53 0 84 32.5t31 83.5q0 25 -2 39zM713 1442h-45l-189 219h199z" />
    <glyph glyph-name="Oacute" unicode="&#xd3;" horiz-adv-x="1174" 
d="M696 874q23 -40 23 -92q0 -76 -53.5 -128t-124.5 -52q-83 0 -141 71t-58 189q0 188 116.5 327.5t254.5 139.5q149 0 257.5 -163.5t108.5 -415.5q0 -314 -159.5 -541t-378.5 -227q-185 0 -315 166.5t-130 426.5q0 419 320 707l22 -29q-245 -221 -245 -567
q0 -252 130.5 -428t303.5 -176q154 0 258 153.5t104 409.5q0 257 -110.5 420.5t-251.5 163.5q-96 0 -160 -82.5t-64 -206.5q0 -101 45 -165t115 -64q53 0 84 32.5t31 83.5q0 25 -2 39zM882 1661l-264 -219h-45l92 219h217z" />
    <glyph glyph-name="Ocircumflex" unicode="&#xd4;" horiz-adv-x="1174" 
d="M696 874q23 -40 23 -92q0 -76 -53.5 -128t-124.5 -52q-83 0 -141 71t-58 189q0 188 116.5 327.5t254.5 139.5q149 0 257.5 -163.5t108.5 -415.5q0 -314 -159.5 -541t-378.5 -227q-185 0 -315 166.5t-130 426.5q0 419 320 707l22 -29q-245 -221 -245 -567
q0 -252 130.5 -428t303.5 -176q154 0 258 153.5t104 409.5q0 257 -110.5 420.5t-251.5 163.5q-96 0 -160 -82.5t-64 -206.5q0 -101 45 -165t115 -64q53 0 84 32.5t31 83.5q0 25 -2 39zM830 1442h-45l-172 115l-181 -115h-45l226 265z" />
    <glyph glyph-name="Otilde" unicode="&#xd5;" horiz-adv-x="1174" 
d="M696 874q23 -40 23 -92q0 -76 -53.5 -128t-124.5 -52q-83 0 -141 71t-58 189q0 188 116.5 327.5t254.5 139.5q149 0 257.5 -163.5t108.5 -415.5q0 -314 -159.5 -541t-378.5 -227q-185 0 -315 166.5t-130 426.5q0 419 320 707l22 -29q-245 -221 -245 -567
q0 -252 130.5 -428t303.5 -176q154 0 258 153.5t104 409.5q0 257 -110.5 420.5t-251.5 163.5q-96 0 -160 -82.5t-64 -206.5q0 -101 45 -165t115 -64q53 0 84 32.5t31 83.5q0 25 -2 39zM816 1613q-106 -151 -161 -151q-17 0 -78 34q-61 35 -82 35q-31 0 -86 -67h-51
q67 96 100.5 127t62.5 31q33 0 86 -35q54 -35 76 -35q26 0 80 61h53z" />
    <glyph glyph-name="Odieresis" unicode="&#xd6;" horiz-adv-x="1174" 
d="M696 874q23 -40 23 -92q0 -76 -53.5 -128t-124.5 -52q-83 0 -141 71t-58 189q0 188 116.5 327.5t254.5 139.5q149 0 257.5 -163.5t108.5 -415.5q0 -314 -159.5 -541t-378.5 -227q-185 0 -315 166.5t-130 426.5q0 419 320 707l22 -29q-245 -221 -245 -567
q0 -252 130.5 -428t303.5 -176q154 0 258 153.5t104 409.5q0 257 -110.5 420.5t-251.5 163.5q-96 0 -160 -82.5t-64 -206.5q0 -101 45 -165t115 -64q53 0 84 32.5t31 83.5q0 25 -2 39zM584 1537l-90 -95l-88 95l88 100zM805 1537l-90 -95l-90 95l90 100z" />
    <glyph glyph-name="multiply" unicode="&#xd7;" horiz-adv-x="1260" 
d="M1079 872l-403 -401l397 -397l-47 -47l-395 397l-402 -397l-47 47l400 397l-400 401l45 48l404 -402l401 402z" />
    <glyph glyph-name="Oslash" unicode="&#xd8;" horiz-adv-x="1174" 
d="M1135 1296q-32 -34 -142 -170q86 -176 86 -376q0 -316 -162 -542t-376 -226q-174 0 -308 155q-81 -104 -135 -186l-20 61l127 158q-111 183 -111 412q0 421 320 700l20 -31q-116 -98 -180 -250.5t-64 -314.5q0 -229 109 -395l584 764q-116 174 -254 174q-83 0 -149 -72.5
t-66 -171.5q0 -59 29 -94t69 -35q36 0 62 31t26 74q0 23 -2 36l25 11q18 -52 18 -82q0 -63 -39 -108.5t-96 -45.5q-61 0 -100 48.5t-39 125.5q0 150 108 266.5t236 116.5q142 0 260 -164l139 197zM322 258q139 -176 303 -176q163 0 263.5 158.5t100.5 423.5q0 182 -84 352z
" />
    <glyph glyph-name="Ugrave" unicode="&#xd9;" horiz-adv-x="1516" 
d="M1571 182q-127 -200 -291 -200q-94 0 -147 80.5t-80 263.5q-138 -351 -293 -351q-74 0 -125 65t-51 165q0 66 18 153.5t83 265.5q66 178 81.5 252t15.5 128q0 127 -70.5 201.5t-189.5 74.5q-135 0 -226 -101t-91 -239q0 -98 56.5 -161.5t135.5 -63.5q67 0 120.5 48
t53.5 111q0 43 -24.5 72t-61.5 29q-52 0 -69 -64l-19 4q-2 12 -2 31q0 48 28.5 80.5t74.5 32.5q49 0 81.5 -44.5t32.5 -107.5q0 -112 -75 -194t-181 -82q-94 0 -157.5 70t-63.5 180q0 179 128.5 316.5t297.5 137.5q149 0 244.5 -99.5t95.5 -262.5q0 -59 -16.5 -136.5
t-82.5 -250.5q-65 -173 -82.5 -255t-17.5 -145t26.5 -100t64.5 -37q46 0 100.5 65.5t101 175.5t53.5 141.5t18 113.5q42 312 146 489.5t209 177.5q31 0 56.5 -23t25.5 -42q0 -16 -69 -88q-40 69 -74 69q-71 0 -137 -173t-66 -435q0 -222 49 -343.5t133 -121.5q53 0 97.5 34
t103.5 118zM1184 1442h-45l-189 219h199z" />
    <glyph glyph-name="Uacute" unicode="&#xda;" horiz-adv-x="1516" 
d="M1571 182q-127 -200 -291 -200q-94 0 -147 80.5t-80 263.5q-138 -351 -293 -351q-74 0 -125 65t-51 165q0 66 18 153.5t83 265.5q66 178 81.5 252t15.5 128q0 127 -70.5 201.5t-189.5 74.5q-135 0 -226 -101t-91 -239q0 -98 56.5 -161.5t135.5 -63.5q67 0 120.5 48
t53.5 111q0 43 -24.5 72t-61.5 29q-52 0 -69 -64l-19 4q-2 12 -2 31q0 48 28.5 80.5t74.5 32.5q49 0 81.5 -44.5t32.5 -107.5q0 -112 -75 -194t-181 -82q-94 0 -157.5 70t-63.5 180q0 179 128.5 316.5t297.5 137.5q149 0 244.5 -99.5t95.5 -262.5q0 -59 -16.5 -136.5
t-82.5 -250.5q-65 -173 -82.5 -255t-17.5 -145t26.5 -100t64.5 -37q46 0 100.5 65.5t101 175.5t53.5 141.5t18 113.5q42 312 146 489.5t209 177.5q31 0 56.5 -23t25.5 -42q0 -16 -69 -88q-40 69 -74 69q-71 0 -137 -173t-66 -435q0 -222 49 -343.5t133 -121.5q53 0 97.5 34
t103.5 118zM1353 1661l-264 -219h-45l92 219h217z" />
    <glyph glyph-name="Ucircumflex" unicode="&#xdb;" horiz-adv-x="1516" 
d="M1571 182q-127 -200 -291 -200q-94 0 -147 80.5t-80 263.5q-138 -351 -293 -351q-74 0 -125 65t-51 165q0 66 18 153.5t83 265.5q66 178 81.5 252t15.5 128q0 127 -70.5 201.5t-189.5 74.5q-135 0 -226 -101t-91 -239q0 -98 56.5 -161.5t135.5 -63.5q67 0 120.5 48
t53.5 111q0 43 -24.5 72t-61.5 29q-52 0 -69 -64l-19 4q-2 12 -2 31q0 48 28.5 80.5t74.5 32.5q49 0 81.5 -44.5t32.5 -107.5q0 -112 -75 -194t-181 -82q-94 0 -157.5 70t-63.5 180q0 179 128.5 316.5t297.5 137.5q149 0 244.5 -99.5t95.5 -262.5q0 -59 -16.5 -136.5
t-82.5 -250.5q-65 -173 -82.5 -255t-17.5 -145t26.5 -100t64.5 -37q46 0 100.5 65.5t101 175.5t53.5 141.5t18 113.5q42 312 146 489.5t209 177.5q31 0 56.5 -23t25.5 -42q0 -16 -69 -88q-40 69 -74 69q-71 0 -137 -173t-66 -435q0 -222 49 -343.5t133 -121.5q53 0 97.5 34
t103.5 118zM1301 1442h-45l-172 115l-181 -115h-45l226 265z" />
    <glyph glyph-name="Udieresis" unicode="&#xdc;" horiz-adv-x="1516" 
d="M1571 182q-127 -200 -291 -200q-94 0 -147 80.5t-80 263.5q-138 -351 -293 -351q-74 0 -125 65t-51 165q0 66 18 153.5t83 265.5q66 178 81.5 252t15.5 128q0 127 -70.5 201.5t-189.5 74.5q-135 0 -226 -101t-91 -239q0 -98 56.5 -161.5t135.5 -63.5q67 0 120.5 48
t53.5 111q0 43 -24.5 72t-61.5 29q-52 0 -69 -64l-19 4q-2 12 -2 31q0 48 28.5 80.5t74.5 32.5q49 0 81.5 -44.5t32.5 -107.5q0 -112 -75 -194t-181 -82q-94 0 -157.5 70t-63.5 180q0 179 128.5 316.5t297.5 137.5q149 0 244.5 -99.5t95.5 -262.5q0 -59 -16.5 -136.5
t-82.5 -250.5q-65 -173 -82.5 -255t-17.5 -145t26.5 -100t64.5 -37q46 0 100.5 65.5t101 175.5t53.5 141.5t18 113.5q42 312 146 489.5t209 177.5q31 0 56.5 -23t25.5 -42q0 -16 -69 -88q-40 69 -74 69q-71 0 -137 -173t-66 -435q0 -222 49 -343.5t133 -121.5q53 0 97.5 34
t103.5 118zM1055 1537l-90 -95l-88 95l88 100zM1276 1537l-90 -95l-90 95l90 100z" />
    <glyph glyph-name="Yacute" unicode="&#xdd;" horiz-adv-x="1431" 
d="M1260 938q-29 -43 -29 -168q0 -104 31 -318q32 -213 32 -331q0 -315 -156 -518t-362 -203q-115 0 -188.5 65t-73.5 166q0 90 60 150.5t145 60.5q66 0 109.5 -39t43.5 -92q0 -43 -29 -77.5t-79 -41.5l-16 21q43 32 43 74q0 35 -28.5 58.5t-68.5 23.5q-54 0 -93.5 -43
t-39.5 -105q0 -76 64.5 -127t156.5 -51q168 0 288 156.5t120 423.5q0 128 -41 401q-162 -381 -365 -381q-87 0 -143.5 62.5t-56.5 164.5q0 59 17 134.5t83 236.5t83 238t17 137q0 119 -72.5 188.5t-191.5 69.5q-133 0 -226 -95.5t-93 -228.5q0 -99 52.5 -160t137.5 -61
q73 0 120.5 45.5t47.5 108.5q0 38 -24 66t-56 28q-45 0 -69 -49l-17 8v4q0 51 30.5 81t76.5 30q44 0 72 -41.5t28 -106.5q0 -104 -70.5 -181t-171.5 -77q-98 0 -158.5 69t-60.5 183q0 175 124.5 303.5t303.5 128.5q145 0 233.5 -93.5t88.5 -250.5q0 -107 -49 -233l-78 -233
q-74 -220 -74 -281q0 -63 32.5 -101.5t82.5 -38.5q41 0 77.5 17.5t70.5 52t66 85t79 150.5t47 115l-2 121q0 48 2 87.5t7 77.5t15 73q5 17 35 37t60 24zM1213 1661l-264 -219h-45l92 219h217z" />
    <glyph glyph-name="Thorn" unicode="&#xde;" horiz-adv-x="1175" 
d="M655 1075q234 -9 360 -103.5t126 -230.5q0 -128 -87 -215t-253 -116l-8 28q112 30 170.5 97.5t58.5 160.5q0 139 -101.5 232t-271.5 100q-2 -18 -2 -61q0 -84 36 -257t36 -253q0 -208 -116.5 -342.5t-287.5 -134.5q-117 0 -197.5 72t-80.5 169l2 29l135 31l6 -15
q-24 -42 -24 -76q0 -75 50 -121t124 -46q112 0 188 92.5t76 249.5q0 116 -40 311q-40 196 -40 274q0 44 6 72q-159 -28 -244.5 -106.5t-85.5 -176.5q0 -135 148 -151l-4 -33q-43 -6 -55 -6q-87 0 -140 53.5t-53 130.5q0 118 116.5 213.5t327.5 122.5q62 174 258 277l15 -31
q-125 -101 -148 -240z" />
    <glyph glyph-name="germandbls" unicode="&#xdf;" horiz-adv-x="768" 
d="M297 565q301 -185 301 -403q0 -79 -46.5 -129.5t-111.5 -50.5q-89 0 -172 110l82 84l21 -18l-4 -31q0 -39 25 -67.5t63 -28.5q35 0 58.5 28t23.5 70q0 179 -299 342l-7 -6v-914l-100 -14v787q-37 -93 -100 -179l-29 27q20 33 38.5 65t54.5 106.5t36 86.5v408
q0 152 74.5 244t193.5 92q51 0 80 -30t29 -79q0 -161 -211 -500zM231 553q95 141 145 272t50 209q0 44 -18 70t-50 26q-59 0 -93 -66.5t-34 -191.5v-319zM811 164q-117 -184 -268 -193l-6 21q119 19 241 192z" />
    <glyph glyph-name="agrave" unicode="&#xe0;" horiz-adv-x="705" 
d="M745 158q-114 -178 -223 -178q-41 0 -59 22t-19 92q-60 -74 -101.5 -96.5t-94.5 -22.5q-77 0 -122.5 53t-45.5 142v43q-11 -14 -51 -72l-33 23q88 136 185.5 213.5t170.5 77.5q52 0 103 -31l88 45v-340q0 -54 5 -65t27 -11q19 0 57 34t83 97zM442 170v201q-40 41 -96 41
q-60 0 -108 -56t-48 -139q0 -72 34 -111.5t93 -39.5q46 0 85.5 45.5t39.5 58.5zM478 569h-45l-189 219h199z" />
    <glyph glyph-name="aacute" unicode="&#xe1;" horiz-adv-x="705" 
d="M745 158q-114 -178 -223 -178q-41 0 -59 22t-19 92q-60 -74 -101.5 -96.5t-94.5 -22.5q-77 0 -122.5 53t-45.5 142v43q-11 -14 -51 -72l-33 23q88 136 185.5 213.5t170.5 77.5q52 0 103 -31l88 45v-340q0 -54 5 -65t27 -11q19 0 57 34t83 97zM442 170v201q-40 41 -96 41
q-60 0 -108 -56t-48 -139q0 -72 34 -111.5t93 -39.5q46 0 85.5 45.5t39.5 58.5zM647 788l-264 -219h-45l92 219h217z" />
    <glyph glyph-name="acircumflex" unicode="&#xe2;" horiz-adv-x="705" 
d="M745 158q-114 -178 -223 -178q-41 0 -59 22t-19 92q-60 -74 -101.5 -96.5t-94.5 -22.5q-77 0 -122.5 53t-45.5 142v43q-11 -14 -51 -72l-33 23q88 136 185.5 213.5t170.5 77.5q52 0 103 -31l88 45v-340q0 -54 5 -65t27 -11q19 0 57 34t83 97zM442 170v201q-40 41 -96 41
q-60 0 -108 -56t-48 -139q0 -72 34 -111.5t93 -39.5q46 0 85.5 45.5t39.5 58.5zM595 569h-45l-172 115l-181 -115h-45l226 265z" />
    <glyph glyph-name="atilde" unicode="&#xe3;" horiz-adv-x="705" 
d="M745 158q-114 -178 -223 -178q-41 0 -59 22t-19 92q-60 -74 -101.5 -96.5t-94.5 -22.5q-77 0 -122.5 53t-45.5 142v43q-11 -14 -51 -72l-33 23q88 136 185.5 213.5t170.5 77.5q52 0 103 -31l88 45v-340q0 -54 5 -65t27 -11q19 0 57 34t83 97zM442 170v201q-40 41 -96 41
q-60 0 -108 -56t-48 -139q0 -72 34 -111.5t93 -39.5q46 0 85.5 45.5t39.5 58.5zM581 741q-106 -151 -161 -151q-17 0 -78 34q-61 35 -82 35q-31 0 -86 -67h-51q67 96 100.5 127t62.5 31q33 0 86 -35q54 -35 76 -35q26 0 80 61h53z" />
    <glyph glyph-name="adieresis" unicode="&#xe4;" horiz-adv-x="705" 
d="M745 158q-114 -178 -223 -178q-41 0 -59 22t-19 92q-60 -74 -101.5 -96.5t-94.5 -22.5q-77 0 -122.5 53t-45.5 142v43q-11 -14 -51 -72l-33 23q88 136 185.5 213.5t170.5 77.5q52 0 103 -31l88 45v-340q0 -54 5 -65t27 -11q19 0 57 34t83 97zM442 170v201q-40 41 -96 41
q-60 0 -108 -56t-48 -139q0 -72 34 -111.5t93 -39.5q46 0 85.5 45.5t39.5 58.5zM348 664l-90 -95l-88 95l88 100zM569 664l-90 -95l-90 95l90 100z" />
    <glyph glyph-name="aring" unicode="&#xe5;" horiz-adv-x="705" 
d="M745 158q-114 -178 -223 -178q-41 0 -59 22t-19 92q-60 -74 -101.5 -96.5t-94.5 -22.5q-77 0 -122.5 53t-45.5 142v43q-11 -14 -51 -72l-33 23q88 136 185.5 213.5t170.5 77.5q52 0 103 -31l88 45v-340q0 -54 5 -65t27 -11q19 0 57 34t83 97zM442 170v201q-40 41 -96 41
q-60 0 -108 -56t-48 -139q0 -72 34 -111.5t93 -39.5q46 0 85.5 45.5t39.5 58.5zM428 836q46 0 76 -29t30 -76q0 -63 -48 -110.5t-114 -47.5q-46 0 -73 29t-27 76q0 65 45.5 111.5t110.5 46.5zM397 616q68 0 68 93q0 84 -62 84q-31 0 -50 -26.5t-19 -68.5q0 -35 18 -58.5
t45 -23.5z" />
    <glyph glyph-name="ae" unicode="&#xe6;" horiz-adv-x="897" 
d="M936 156q-132 -179 -313 -179q-132 0 -177 127q-99 -124 -206 -124q-71 0 -118.5 56t-47.5 136l2 35q-12 -15 -51 -72l-33 23q123 173 198.5 234t159.5 61q53 0 103 -25l84 43v-78q80 72 155 72q47 0 75 -26t28 -68q0 -118 -232 -250q45 -70 131 -70q118 0 213 133z
M440 178v199q-53 43 -96 43q-59 0 -109.5 -57.5t-50.5 -135.5q0 -67 32 -112t81 -45q60 0 101.5 46.5t41.5 61.5zM545 158q80 36 124 85t44 95q0 72 -64 72q-49 0 -84 -47t-35 -113q0 -35 15 -92z" />
    <glyph glyph-name="ccedilla" unicode="&#xe7;" horiz-adv-x="512" 
d="M553 158q-112 -178 -289 -178q-86 0 -139 56.5t-53 158.5l2 8l-45 -62l-33 23q148 218 211.5 258.5t126.5 40.5q104 0 151 -72q-14 -55 -65 -80q-44 109 -129 109q-50 0 -90.5 -46t-40.5 -118q0 -83 48 -143t122 -60q102 0 190 129zM284 -97h14q35 0 55.5 -21.5
t20.5 -53.5q0 -55 -47.5 -109t-198.5 -158l-14 31q141 104 141 162q0 45 -61 65z" />
    <glyph glyph-name="egrave" unicode="&#xe8;" horiz-adv-x="532" 
d="M573 158q-59 -96 -129 -139.5t-184 -43.5q-83 0 -131.5 49.5t-48.5 139.5q0 24 4 51q-36 -46 -55 -74l-33 23q130 184 200 241.5t144 57.5q41 0 67.5 -24t26.5 -62q0 -130 -229 -256q31 -72 129 -72q47 0 104.5 34t104.5 99zM186 160q166 81 166 180q0 30 -16.5 49
t-44.5 19q-51 0 -86 -47t-35 -113q0 -36 8 -61q8 -24 8 -27zM394 569h-45l-189 219h199z" />
    <glyph glyph-name="eacute" unicode="&#xe9;" horiz-adv-x="532" 
d="M573 158q-59 -96 -129 -139.5t-184 -43.5q-83 0 -131.5 49.5t-48.5 139.5q0 24 4 51q-36 -46 -55 -74l-33 23q130 184 200 241.5t144 57.5q41 0 67.5 -24t26.5 -62q0 -130 -229 -256q31 -72 129 -72q47 0 104.5 34t104.5 99zM186 160q166 81 166 180q0 30 -16.5 49
t-44.5 19q-51 0 -86 -47t-35 -113q0 -36 8 -61q8 -24 8 -27zM563 788l-264 -219h-45l92 219h217z" />
    <glyph glyph-name="ecircumflex" unicode="&#xea;" horiz-adv-x="532" 
d="M573 158q-59 -96 -129 -139.5t-184 -43.5q-83 0 -131.5 49.5t-48.5 139.5q0 24 4 51q-36 -46 -55 -74l-33 23q130 184 200 241.5t144 57.5q41 0 67.5 -24t26.5 -62q0 -130 -229 -256q31 -72 129 -72q47 0 104.5 34t104.5 99zM186 160q166 81 166 180q0 30 -16.5 49
t-44.5 19q-51 0 -86 -47t-35 -113q0 -36 8 -61q8 -24 8 -27zM511 569h-45l-172 115l-181 -115h-45l226 265z" />
    <glyph glyph-name="edieresis" unicode="&#xeb;" horiz-adv-x="532" 
d="M573 158q-59 -96 -129 -139.5t-184 -43.5q-83 0 -131.5 49.5t-48.5 139.5q0 24 4 51q-36 -46 -55 -74l-33 23q130 184 200 241.5t144 57.5q41 0 67.5 -24t26.5 -62q0 -130 -229 -256q31 -72 129 -72q47 0 104.5 34t104.5 99zM186 160q166 81 166 180q0 30 -16.5 49
t-44.5 19q-51 0 -86 -47t-35 -113q0 -36 8 -61q8 -24 8 -27zM264 664l-90 -95l-88 95l88 100zM485 664l-90 -95l-90 95l90 100z" />
    <glyph glyph-name="igrave" unicode="&#xec;" 
d="M424 158q-57 -86 -117 -132t-108 -46q-54 0 -68 29t-14 102v182q-31 -79 -90 -154l-31 25q93 129 121 250l100 53v-317q0 -59 5.5 -78t27.5 -19q45 0 145 131zM279 569h-45l-189 219h199z" />
    <glyph glyph-name="iacute" unicode="&#xed;" 
d="M424 158q-57 -86 -117 -132t-108 -46q-54 0 -68 29t-14 102v182q-31 -79 -90 -154l-31 25q93 129 121 250l100 53v-317q0 -59 5.5 -78t27.5 -19q45 0 145 131zM448 788l-264 -219h-45l92 219h217z" />
    <glyph glyph-name="icircumflex" unicode="&#xee;" 
d="M424 158q-57 -86 -117 -132t-108 -46q-54 0 -68 29t-14 102v182q-31 -79 -90 -154l-31 25q93 129 121 250l100 53v-317q0 -59 5.5 -78t27.5 -19q45 0 145 131zM396 569h-45l-172 115l-181 -115h-45l226 265z" />
    <glyph glyph-name="idieresis" unicode="&#xef;" 
d="M424 158q-57 -86 -117 -132t-108 -46q-54 0 -68 29t-14 102v182q-31 -79 -90 -154l-31 25q93 129 121 250l100 53v-317q0 -59 5.5 -78t27.5 -19q45 0 145 131zM149 664l-90 -95l-88 95l88 100zM370 664l-90 -95l-90 95l90 100z" />
    <glyph glyph-name="eth" unicode="&#xf0;" horiz-adv-x="618" 
d="M584 866q-41 -36 -95 -71q89 -119 89 -312q0 -205 -102.5 -354t-235.5 -149q-77 0 -122.5 46.5t-45.5 125.5q0 44 2 57l-47 -66l-33 23q204 303 375 303q94 0 141 -78q6 52 6 70q0 162 -98 276q-110 -75 -113 -82l-16 45q37 37 98 70q-72 59 -151 59q-53 0 -101 -28
q0 127 133 127q100 0 195 -97q59 39 100 84zM293 53q78 0 137 79t59 167q0 60 -34.5 93.5t-87.5 33.5q-77 0 -138 -70.5t-61 -154.5q0 -63 34 -105.5t91 -42.5zM659 158q-86 -117 -155 -151t-139 -42l-7 23q162 35 269 194z" />
    <glyph glyph-name="ntilde" unicode="&#xf1;" horiz-adv-x="682" 
d="M723 158q-121 -178 -231 -178q-36 0 -55 23.5t-19 107.5v229q0 53 -33 53q-16 0 -33.5 -12t-37.5 -35.5t-56.5 -78t-36.5 -60.5v-180l-100 -64v336q-31 -79 -94 -160l-31 25q101 142 127 256l98 47v-186q73 106 118 142t91 36q42 0 65 -30t23 -148v-134q0 -54 4.5 -74
t24.5 -20q49 0 145 131zM571 741q-106 -151 -161 -151q-17 0 -78 34q-61 35 -82 35q-31 0 -86 -67h-51q67 96 100.5 127t62.5 31q33 0 86 -35q54 -35 76 -35q26 0 80 61h53z" />
    <glyph glyph-name="ograve" unicode="&#xf2;" horiz-adv-x="641" 
d="M-6 164q130 185 213 239t174 54q87 0 136.5 -46t49.5 -128q0 -117 -94 -213.5t-219 -96.5q-81 0 -129.5 48.5t-48.5 123.5q0 40 6 72q-15 -17 -55 -78zM319 39q76 0 121 55t45 146q0 79 -42 123.5t-111 44.5q-73 0 -116.5 -53t-43.5 -148q0 -168 147 -168zM680 158
q-80 -114 -151 -150.5t-142 -44.5l-8 23q165 37 268 196zM447 569h-45l-189 219h199z" />
    <glyph glyph-name="oacute" unicode="&#xf3;" horiz-adv-x="641" 
d="M-6 164q130 185 213 239t174 54q87 0 136.5 -46t49.5 -128q0 -117 -94 -213.5t-219 -96.5q-81 0 -129.5 48.5t-48.5 123.5q0 40 6 72q-15 -17 -55 -78zM319 39q76 0 121 55t45 146q0 79 -42 123.5t-111 44.5q-73 0 -116.5 -53t-43.5 -148q0 -168 147 -168zM680 158
q-80 -114 -151 -150.5t-142 -44.5l-8 23q165 37 268 196zM616 788l-264 -219h-45l92 219h217z" />
    <glyph glyph-name="ocircumflex" unicode="&#xf4;" horiz-adv-x="641" 
d="M-6 164q130 185 213 239t174 54q87 0 136.5 -46t49.5 -128q0 -117 -94 -213.5t-219 -96.5q-81 0 -129.5 48.5t-48.5 123.5q0 40 6 72q-15 -17 -55 -78zM319 39q76 0 121 55t45 146q0 79 -42 123.5t-111 44.5q-73 0 -116.5 -53t-43.5 -148q0 -168 147 -168zM680 158
q-80 -114 -151 -150.5t-142 -44.5l-8 23q165 37 268 196zM564 569h-45l-172 115l-181 -115h-45l226 265z" />
    <glyph glyph-name="otilde" unicode="&#xf5;" horiz-adv-x="641" 
d="M-6 164q130 185 213 239t174 54q87 0 136.5 -46t49.5 -128q0 -117 -94 -213.5t-219 -96.5q-81 0 -129.5 48.5t-48.5 123.5q0 40 6 72q-15 -17 -55 -78zM319 39q76 0 121 55t45 146q0 79 -42 123.5t-111 44.5q-73 0 -116.5 -53t-43.5 -148q0 -168 147 -168zM680 158
q-80 -114 -151 -150.5t-142 -44.5l-8 23q165 37 268 196zM550 741q-106 -151 -161 -151q-17 0 -78 34q-61 35 -82 35q-31 0 -86 -67h-51q67 96 100.5 127t62.5 31q33 0 86 -35q54 -35 76 -35q26 0 80 61h53z" />
    <glyph glyph-name="odieresis" unicode="&#xf6;" horiz-adv-x="641" 
d="M-6 164q130 185 213 239t174 54q87 0 136.5 -46t49.5 -128q0 -117 -94 -213.5t-219 -96.5q-81 0 -129.5 48.5t-48.5 123.5q0 40 6 72q-15 -17 -55 -78zM319 39q76 0 121 55t45 146q0 79 -42 123.5t-111 44.5q-73 0 -116.5 -53t-43.5 -148q0 -168 147 -168zM680 158
q-80 -114 -151 -150.5t-142 -44.5l-8 23q165 37 268 196zM317 664l-90 -95l-88 95l88 100zM538 664l-90 -95l-90 95l90 100z" />
    <glyph glyph-name="divide" unicode="&#xf7;" horiz-adv-x="1260" 
d="M629 905q19 0 33 -14.5t14 -34.5q0 -51 -47 -51q-21 0 -35 15t-14 40q0 19 14 32t35 13zM1126 438h-993v68h993v-68zM629 141q20 0 33.5 -13.5t13.5 -33.5q0 -22 -14 -35.5t-33 -13.5q-21 0 -35 13.5t-14 35.5q0 20 14.5 33.5t34.5 13.5z" />
    <glyph glyph-name="oslash" unicode="&#xf8;" horiz-adv-x="641" 
d="M602 453q-23 -19 -65 -62q36 -50 36 -106q0 -121 -97 -216.5t-222 -95.5q-61 0 -107 33q-28 -26 -81 -88l-13 53q34 26 64 58q-41 45 -41 118q0 47 6 72q-29 -37 -55 -80l-33 23q125 181 205.5 238t175.5 57q79 0 133 -37q70 69 80 82zM446 358q-47 50 -114 50
q-75 0 -117.5 -51.5t-42.5 -145.5q0 -60 23 -107zM215 74q42 -35 104 -35q77 0 120.5 55t43.5 150q0 46 -14 80zM680 158q-111 -174 -293 -195l-8 23q165 38 270 196z" />
    <glyph glyph-name="ugrave" unicode="&#xf9;" horiz-adv-x="705" 
d="M745 158q-121 -178 -231 -178q-37 0 -56.5 24.5t-19.5 106.5v84q-108 -159 -152 -191.5t-83 -32.5q-41 0 -63.5 28t-22.5 130v164q-43 -96 -88 -152l-33 23q89 128 121 258l100 51v-362q0 -39 4.5 -52.5t24.5 -13.5q22 0 57.5 34t85 109t49.5 82v152l101 51v-313
q0 -62 4.5 -84.5t25.5 -22.5q49 0 146 131zM427 569h-45l-189 219h199z" />
    <glyph glyph-name="uacute" unicode="&#xfa;" horiz-adv-x="705" 
d="M745 158q-121 -178 -231 -178q-37 0 -56.5 24.5t-19.5 106.5v84q-108 -159 -152 -191.5t-83 -32.5q-41 0 -63.5 28t-22.5 130v164q-43 -96 -88 -152l-33 23q89 128 121 258l100 51v-362q0 -39 4.5 -52.5t24.5 -13.5q22 0 57.5 34t85 109t49.5 82v152l101 51v-313
q0 -62 4.5 -84.5t25.5 -22.5q49 0 146 131zM596 788l-264 -219h-45l92 219h217z" />
    <glyph glyph-name="ucircumflex" unicode="&#xfb;" horiz-adv-x="705" 
d="M745 158q-121 -178 -231 -178q-37 0 -56.5 24.5t-19.5 106.5v84q-108 -159 -152 -191.5t-83 -32.5q-41 0 -63.5 28t-22.5 130v164q-43 -96 -88 -152l-33 23q89 128 121 258l100 51v-362q0 -39 4.5 -52.5t24.5 -13.5q22 0 57.5 34t85 109t49.5 82v152l101 51v-313
q0 -62 4.5 -84.5t25.5 -22.5q49 0 146 131zM543 569h-45l-172 115l-181 -115h-45l226 265z" />
    <glyph glyph-name="udieresis" unicode="&#xfc;" horiz-adv-x="705" 
d="M745 158q-121 -178 -231 -178q-37 0 -56.5 24.5t-19.5 106.5v84q-108 -159 -152 -191.5t-83 -32.5q-41 0 -63.5 28t-22.5 130v164q-43 -96 -88 -152l-33 23q89 128 121 258l100 51v-362q0 -39 4.5 -52.5t24.5 -13.5q22 0 57.5 34t85 109t49.5 82v152l101 51v-313
q0 -62 4.5 -84.5t25.5 -22.5q49 0 146 131zM297 664l-90 -95l-88 95l88 100zM518 664l-90 -95l-90 95l90 100z" />
    <glyph glyph-name="yacute" unicode="&#xfd;" horiz-adv-x="705" 
d="M758 176q-107 -175 -203 -190v-318q0 -118 -73.5 -198t-182.5 -80q-62 0 -123 32t-94 89l84 94l14 -13q-4 -25 -4 -38q0 -47 40.5 -84t98.5 -37q63 0 98.5 48.5t35.5 135.5v559q-82 -116 -130 -158.5t-94 -42.5q-96 0 -96 105v235q-38 -87 -98 -170l-29 27
q97 152 127 254l107 53v-395q0 -35 28 -35h10q37 0 175 209v168l106 53v-434q68 6 170 156zM601 788l-264 -219h-45l92 219h217z" />
    <glyph glyph-name="thorn" unicode="&#xfe;" horiz-adv-x="705" 
d="M223 358q108 103 197 103q81 0 128.5 -52.5t47.5 -136.5q0 -121 -75.5 -206.5t-162.5 -85.5q-74 0 -135 40v-382q0 -115 -63 -184.5t-162 -69.5q-100 0 -156 86l82 81l17 -14q-7 -18 -7 -29q0 -37 24.5 -64.5t61.5 -27.5q50 0 76.5 48.5t26.5 132.5v700q-43 -96 -96 -160
l-31 27l26 39q21 31 38 63t40 86t23 62v438l100 102v-596zM223 72q53 -49 123 -49q64 0 109 54.5t45 137.5q0 77 -36.5 119.5t-94.5 42.5q-83 0 -146 -84v-221zM745 156q-72 -100 -133.5 -140t-158.5 -55l-9 25q82 21 138.5 56.5t132.5 139.5z" />
    <glyph glyph-name="ydieresis" unicode="&#xff;" horiz-adv-x="705" 
d="M758 176q-107 -175 -203 -190v-318q0 -118 -73.5 -198t-182.5 -80q-62 0 -123 32t-94 89l84 94l14 -13q-4 -25 -4 -38q0 -47 40.5 -84t98.5 -37q63 0 98.5 48.5t35.5 135.5v559q-82 -116 -130 -158.5t-94 -42.5q-96 0 -96 105v235q-38 -87 -98 -170l-29 27
q97 152 127 254l107 53v-395q0 -35 28 -35h10q37 0 175 209v168l106 53v-434q68 6 170 156zM297 664l-90 -95l-88 95l88 100zM518 664l-90 -95l-90 95l90 100z" />
    <glyph glyph-name="dotlessi" unicode="&#x131;" 
d="M424 158q-57 -86 -117 -132t-108 -46q-54 0 -68 29t-14 102v182q-31 -79 -90 -154l-31 25q93 129 121 250l100 53v-317q0 -59 5.5 -78t27.5 -19q45 0 145 131z" />
    <glyph glyph-name="Lslash" unicode="&#x141;" horiz-adv-x="1174" 
d="M659 465q-13 27 -67 104q-53 78 -81 124l-63 107q-36 60 -36 134q0 155 136.5 280t342.5 125q166 0 267.5 -83.5t101.5 -217.5q0 -126 -90.5 -219.5t-208.5 -93.5q-90 0 -147.5 52t-57.5 132q0 124 129 187l14 -21q-68 -55 -68 -131q0 -65 50.5 -114.5t119.5 -49.5
q75 0 126 58.5t51 144.5q0 122 -103 211.5t-250 89.5q-135 0 -222 -79.5t-87 -186.5q0 -45 19 -97t104 -172q85 -119 123 -196q89 79 123 115l12 -68q-49 -35 -117 -90q17 -40 17 -113q0 -137 -119 -264q189 -80 295 -80q120 0 227 154l31 -25q-66 -104 -149 -153t-214 -49
q-105 0 -299 77q-149 -84 -280 -84q-81 0 -136 32t-55 79q0 53 69 91t167 38q101 0 291 -61q82 83 82 159q0 53 -29 115q-110 -96 -156 -141l-6 65zM514 78q-161 80 -242 80q-104 0 -104 -54q0 -30 47 -55.5t109 -25.5q88 0 190 55z" />
    <glyph glyph-name="lslash" unicode="&#x142;" 
d="M117 426v375q0 143 90 259t188 116q52 0 81.5 -36t29.5 -96q0 -144 -234 -509l62 43q43 29 92 69l6 -51l-76 -51l-139 -96v-289q0 -62 5 -84.5t26 -22.5q45 0 145 131l31 -26q-119 -178 -236 -178q-35 0 -53 23.5t-18 107.5v182q-42 -94 -90 -154l-31 25q68 95 108 207
l-104 -78l-4 53q37 21 121 80zM217 522q134 220 176.5 319.5t42.5 172.5q0 112 -69 112q-63 0 -106.5 -71t-43.5 -193v-340z" />
    <glyph glyph-name="OE" unicode="&#x152;" horiz-adv-x="1962" 
d="M1952 1253q-134 -86 -246 -86q-50 0 -143 35t-148 35q-71 0 -114.5 -46.5t-43.5 -125.5q0 -117 61 -189.5t159 -72.5q23 0 65 8v-41q-222 -12 -333 -135.5t-111 -274.5q0 -138 84.5 -229.5t224.5 -91.5q151 0 261 102t110 232q0 93 -53 158t-130 65q-60 0 -105.5 -42.5
t-45.5 -98.5q0 -43 20 -68t54 -25q29 0 67 37l29 -20q-47 -107 -125 -107q-48 0 -77.5 39t-29.5 103q0 107 83.5 181.5t199.5 74.5q90 0 146.5 -61t56.5 -163q0 -182 -147 -322t-343 -140q-308 0 -411 295q-176 -293 -418 -293q-188 0 -317.5 163t-129.5 424q0 223 78 393
t242 316l24 -29q-119 -100 -183 -250t-64 -321q0 -256 134.5 -426t301.5 -170q154 0 257 156t103 409q0 252 -109.5 415t-258.5 163q-90 0 -153.5 -82.5t-63.5 -204.5q0 -103 44 -165t117 -62q53 0 83 33t30 94v26l21 9q18 -52 18 -91q0 -77 -52.5 -129.5t-123.5 -52.5
q-85 0 -142 71.5t-57 188.5q0 186 113.5 325.5t253.5 139.5q154 0 262 -164t108 -420q0 -48 -10 -127q102 107 230 152q-152 98 -152 246q0 132 118.5 218.5t252.5 86.5q57 0 162 -35t137 -35q40 0 104 31z" />
    <glyph glyph-name="oe" unicode="&#x153;" horiz-adv-x="938" 
d="M977 156q-131 -176 -311 -176q-125 0 -170 110q-105 -113 -236 -113q-82 0 -131 47.5t-49 125.5q0 35 8 73q-17 -19 -55 -76l-35 21q124 178 206.5 237.5t176.5 59.5q116 0 178 -90q89 90 182 90q46 0 72.5 -23t26.5 -61q0 -129 -238 -256q40 -72 129 -72q126 0 215 129z
M322 43q77 0 123.5 55t46.5 146q0 79 -40.5 122.5t-111.5 43.5q-76 0 -120 -51t-44 -142q0 -174 146 -174zM588 162q170 80 170 180q0 27 -21 47.5t-49 20.5q-46 0 -80.5 -45.5t-34.5 -114.5q0 -22 15 -88z" />
    <glyph glyph-name="Scaron" unicode="&#x160;" horiz-adv-x="1174" 
d="M1032 1321q-35 -58 -112 -98.5t-148 -40.5q-70 0 -197 41q-126 41 -163 41q-69 0 -118.5 -53t-49.5 -128q0 -73 45.5 -119.5t113 -73t210.5 -66.5q143 -39 230 -76.5t147.5 -112t60.5 -195.5q0 -181 -148.5 -322t-367.5 -141q-200 0 -331.5 105t-131.5 250
q0 107 77 178.5t199 71.5q128 0 216.5 -70.5t88.5 -167.5q0 -66 -45.5 -108.5t-109.5 -42.5q-106 0 -158 98l25 14q38 -39 84 -39q49 0 81.5 34.5t32.5 86.5q0 65 -54.5 108.5t-131.5 43.5q-90 0 -149.5 -66t-59.5 -158q0 -121 106.5 -208t268.5 -87q173 0 288 108.5
t115 254.5q0 100 -53.5 162t-128 93t-207.5 69t-207.5 69t-125 90t-50.5 154q0 130 103 223.5t239 93.5q63 0 180 -33q118 -32 170 -32q85 0 148 67zM841 1707l-223 -265l-219 265h47l172 -115l178 115h45z" />
    <glyph glyph-name="scaron" unicode="&#x161;" horiz-adv-x="532" 
d="M231 483q78 -40 125 -117t47 -155q0 -93 -54.5 -162t-139.5 -69q-42 0 -91 28t-85 82q31 48 90 82l8 -10q-2 -10 -2 -29q0 -43 30 -76.5t68 -33.5q47 0 77 39.5t30 99.5q0 124 -148 221l-85 -134q-51 -82 -74 -110l-31 25q102 151 203 368l24 -2zM573 158
q-107 -176 -270 -191l-6 19q72 17 122.5 56.5t123.5 139.5zM522 834l-223 -265l-219 265h47l172 -115l178 115h45z" />
    <glyph glyph-name="Ydieresis" unicode="&#x178;" horiz-adv-x="1430" 
d="M1260 938q-29 -43 -29 -168q0 -104 31 -318q32 -213 32 -331q0 -315 -156 -518t-362 -203q-115 0 -188.5 65t-73.5 166q0 90 60 150.5t145 60.5q66 0 109.5 -39t43.5 -92q0 -43 -29 -77.5t-79 -41.5l-16 21q43 32 43 74q0 35 -28.5 58.5t-68.5 23.5q-54 0 -93.5 -43
t-39.5 -105q0 -76 64.5 -127t156.5 -51q168 0 288 156.5t120 423.5q0 128 -41 401q-162 -381 -365 -381q-87 0 -143.5 62.5t-56.5 164.5q0 59 17 134.5t83 236.5t83 238t17 137q0 119 -72.5 188.5t-191.5 69.5q-133 0 -226 -95.5t-93 -228.5q0 -99 52.5 -160t137.5 -61
q73 0 120.5 45.5t47.5 108.5q0 38 -24 66t-56 28q-45 0 -69 -49l-17 8v4q0 51 30.5 81t76.5 30q44 0 72 -41.5t28 -106.5q0 -104 -70.5 -181t-171.5 -77q-98 0 -158.5 69t-60.5 183q0 175 124.5 303.5t303.5 128.5q145 0 233.5 -93.5t88.5 -250.5q0 -107 -49 -233l-78 -233
q-74 -220 -74 -281q0 -63 32.5 -101.5t82.5 -38.5q41 0 77.5 17.5t70.5 52t66 85t79 150.5t47 115l-2 121q0 48 2 87.5t7 77.5t15 73q5 17 35 37t60 24zM915 1537l-90 -95l-88 95l88 100zM1136 1537l-90 -95l-90 95l90 100z" />
    <glyph glyph-name="Zcaron" unicode="&#x17d;" horiz-adv-x="1110" 
d="M1163 164q-74 -120 -172 -178q-52 -265 -205.5 -426.5t-273.5 -161.5q-58 0 -99.5 36t-41.5 93q0 88 80 174.5t430 275.5q8 54 8 99q0 162 -90 241q-145 -114 -240 -114q-74 0 -74 61q0 55 75.5 100.5t170.5 45.5q39 0 86 -17q166 180 166 426q0 199 -105 325t-253 126
t-261.5 -129t-113.5 -293q0 -128 64 -216.5t155 -88.5q72 0 131 57.5t59 138.5q0 57 -30 93t-74 36q-46 0 -68 -39l-20 15q31 108 123 108q58 0 98.5 -47.5t40.5 -120.5q0 -115 -92 -211t-211 -96q-115 0 -190.5 85t-75.5 226q0 221 160.5 379t369.5 158q174 0 289 -115
t115 -301q0 -138 -56 -264t-182 -268q143 -90 143 -295l-2 -37q66 46 133 143zM754 340q-30 14 -68 14q-49 0 -84 -19.5t-35 -43.5q0 -23 33 -23q30 0 75.5 19t78.5 53zM874 -80q-214 -113 -313.5 -205.5t-99.5 -183.5q0 -34 21 -56t55 -22q95 0 198.5 131.5t138.5 335.5z
M911 1707l-223 -265l-219 265h47l172 -115l178 115h45z" />
    <glyph glyph-name="zcaron" unicode="&#x17e;" horiz-adv-x="598" 
d="M637 158q-69 -110 -164 -160q39 -79 39 -193q0 -165 -87 -289t-218 -124q-70 0 -124 43t-63 104q42 34 109 64l12 -13q-8 -22 -8 -55q0 -44 28.5 -72t69.5 -28q74 0 132.5 87t58.5 228q0 112 -44.5 204t-125.5 140q-56 -67 -107 -67q-53 0 -53 41q0 37 42 61.5t106 24.5
h8q103 124 160 223q-58 -29 -132 -29q-63 0 -108 21q-62 -124 -141 -230l-31 25q66 95 176 319q102 -61 172 -61q76 0 143 59l25 -18q-77 -143 -223 -322q102 -25 164 -108q83 45 153 149zM215 111h-25q-15 0 -36 -11t-21 -28q0 -13 17 -13q16 0 35.5 14t29.5 38zM555 834
l-223 -265l-219 265h47l172 -115l178 115h45z" />
    <glyph glyph-name="florin" unicode="&#x192;" horiz-adv-x="811" 
d="M881 999l-101 -51l-10 19q16 26 16 51q0 42 -26 67t-64 25q-45 0 -85.5 -68t-89.5 -223.5t-54 -180.5q0 -2 -2 -7l-64 -205l39 -2q67 0 140 18l-19 -59q-62 -10 -119 -10h-57l-147 -473q-46 -145 -79.5 -227t-87.5 -137.5t-134 -55.5q-124 0 -187 145l105 53l12 -18
q-19 -36 -19 -59q0 -78 86 -78q51 0 87 70t112 313l148 467h-78q-22 0 -88 -4l18 49q41 10 80 10l84 -2l96 293q58 176 90 252.5t81.5 124t127.5 47.5q143 0 189 -144z" />
    <glyph glyph-name="circumflex" unicode="&#x2c6;" horiz-adv-x="682" 
d="M584 569h-45l-172 115l-181 -115h-45l226 265z" />
    <glyph glyph-name="caron" unicode="&#x2c7;" horiz-adv-x="682" 
d="M596 834l-223 -265l-219 265h47l172 -115l178 115h45z" />
    <glyph glyph-name="macron" unicode="&#x2c9;" horiz-adv-x="682" 
d="M508 621h-332v96h332v-96z" />
    <glyph glyph-name="breve" unicode="&#x2d8;" horiz-adv-x="682" 
d="M557 815l2 -33q0 -94 -54.5 -152.5t-148.5 -58.5q-203 0 -206 244h38q11 -143 164 -143q169 0 170 143h35z" />
    <glyph glyph-name="dotaccent" unicode="&#x2d9;" horiz-adv-x="682" 
d="M471 664l-90 -95l-88 95l88 100z" />
    <glyph glyph-name="ring" unicode="&#x2da;" horiz-adv-x="682" 
d="M418 836q46 0 76 -29t30 -76q0 -63 -48 -110.5t-114 -47.5q-46 0 -73 29t-27 76q0 65 45.5 111.5t110.5 46.5zM387 616q68 0 68 93q0 84 -62 84q-31 0 -50 -26.5t-19 -68.5q0 -35 18 -58.5t45 -23.5z" />
    <glyph glyph-name="ogonek" unicode="&#x2db;" horiz-adv-x="682" 
d="M508 -160q-105 -127 -207 -127q-55 0 -91 38.5t-36 96.5q0 54 45 152h57q-12 -57 -12 -96q0 -45 26.5 -76t69.5 -31q52 0 119 68z" />
    <glyph glyph-name="tilde" unicode="&#x2dc;" horiz-adv-x="682" 
d="M571 741q-106 -151 -161 -151q-17 0 -78 34q-61 35 -82 35q-31 0 -86 -67h-51q67 96 100.5 127t62.5 31q33 0 86 -35q54 -35 76 -35q26 0 80 61h53z" />
    <glyph glyph-name="hungarumlaut" unicode="&#x2dd;" horiz-adv-x="682" 
d="M451 788l-265 -219h-45l92 219h218zM741 788l-264 -219h-45l92 219h217z" />
    <glyph glyph-name="pi" unicode="&#x3c0;" horiz-adv-x="1124" 
d="M1085 309q-5 -155 -75.5 -248.5t-167.5 -93.5q-79 0 -138.5 91.5t-59.5 281.5q0 42 2 80t5 72l35 329h-231q-60 -624 -98.5 -742.5t-130.5 -118.5q-39 0 -74 31t-35 82q0 46 72.5 128.5t80.5 150.5l60 469h-97q-40 0 -78.5 -19.5t-56.5 -45.5l-43 -64h-35
q49 152 120.5 228.5t164.5 76.5h764v-176h-258q-12 -120 -18.5 -240t-6.5 -241q0 -82 38 -133t95 -51q35 0 73.5 28.5t43.5 74.5q3 22 4.5 34.5t1.5 15.5h43z" />
    <glyph glyph-name="endash" unicode="&#x2013;" horiz-adv-x="748" 
d="M698 219h-659v57h659v-57z" />
    <glyph glyph-name="emdash" unicode="&#x2014;" horiz-adv-x="1516" 
d="M1464 221h-1417v60h1417v-60z" />
    <glyph glyph-name="quoteleft" unicode="&#x2018;" 
d="M285 1053l-86 -103l-101 109q42 137 131 280l27 -20q-5 -27 -26 -84t-21 -94z" />
    <glyph glyph-name="quoteright" unicode="&#x2019;" 
d="M303 1219q-54 -132 -174 -269l-31 23q61 83 90 164l-67 88l94 104z" />
    <glyph glyph-name="quotesinglbase" unicode="&#x201a;" 
d="M281 49q-62 -152 -195 -246l-20 23q63 63 104 143l-72 78l88 100z" />
    <glyph glyph-name="quotedblleft" unicode="&#x201c;" horiz-adv-x="682" 
d="M285 1053l-86 -103l-101 109q42 137 131 280l27 -20q-5 -27 -26 -84t-21 -94zM582 1053l-86 -103l-101 109q41 133 131 280l27 -20q-5 -27 -26 -83t-21 -95z" />
    <glyph glyph-name="quotedblright" unicode="&#x201d;" horiz-adv-x="768" 
d="M303 1219q-54 -132 -174 -269l-31 23q61 83 90 164l-67 88l94 104zM596 1219q-54 -132 -174 -269l-31 23q64 87 90 164l-67 88l94 104z" />
    <glyph glyph-name="quotedblbase" unicode="&#x201e;" horiz-adv-x="682" 
d="M283 49q-62 -152 -195 -246l-20 23q63 63 104 143l-72 78l88 100zM578 49q-61 -149 -195 -246l-21 23q64 63 105 143l-72 78l88 100z" />
    <glyph glyph-name="dagger" unicode="&#x2020;" horiz-adv-x="897" 
d="M809 831q12 -45 12 -71t-12 -74q-165 41 -340 51q0 -83 18 -203l19 -112l-17 -300l-20 -403h-41l-20 407l-17 296l19 112q18 120 18 203q-175 -10 -340 -51q-12 48 -12 74q0 23 12 71q157 -37 340 -51q-23 247 -51 383q43 13 72 13q28 0 71 -13q-30 -147 -51 -383
q198 15 340 51z" />
    <glyph glyph-name="daggerdbl" unicode="&#x2021;" horiz-adv-x="897" 
d="M809 158q12 -49 12 -72t-12 -72q-139 35 -340 49q17 -202 51 -382q-48 -13 -71 -13q-40 0 -72 13q28 136 51 382q-184 -12 -340 -49q-12 49 -12 72q0 26 12 72q148 -37 340 -52q0 89 -18 206l-19 110l19 110q18 116 18 205q-174 -10 -340 -51q-12 48 -12 74q0 23 12 71
q153 -36 340 -51q-23 247 -51 383q43 13 72 13q39 0 71 -13q-30 -161 -51 -383q183 14 340 51q12 -48 12 -71q0 -26 -12 -74q-165 41 -340 51q0 -88 18 -205l19 -110l-19 -111q-18 -117 -18 -205q187 15 340 52z" />
    <glyph glyph-name="bullet" unicode="&#x2022;" horiz-adv-x="575" 
d="M287 858q77 0 129.5 -49.5t52.5 -132.5q0 -67 -57.5 -124.5t-124.5 -57.5q-75 0 -128 53.5t-53 128.5q0 83 52.5 132.5t128.5 49.5z" />
    <glyph glyph-name="ellipsis" unicode="&#x2026;" horiz-adv-x="2048" 
d="M426 66l-88 -82l-80 82l88 84zM1110 66l-90 -82l-80 82l90 84zM1792 66l-88 -82l-80 82l88 84z" />
    <glyph glyph-name="perthousand" unicode="&#x2030;" horiz-adv-x="1921" 
d="M375 969q95 0 157 -75t62 -185t-62.5 -185t-156.5 -75t-156.5 75.5t-62.5 184.5q0 110 62 185t157 75zM375 481q64 0 100.5 59t36.5 169q0 109 -36.5 168t-100.5 59t-100.5 -59t-36.5 -168q0 -110 36 -169t101 -59zM936 967l-444 -985h-58l447 987zM993 502q95 0 157 -75
t62 -185q0 -111 -62 -184.5t-157 -73.5q-94 0 -156.5 74.5t-62.5 183.5q0 110 62 185t157 75zM993 16q64 0 100.5 58.5t36.5 167.5t-36 168t-101 59q-64 0 -100.5 -59t-36.5 -168q0 -110 36 -168t101 -58zM1544 502q95 0 157 -75t62 -185t-62 -184t-157 -74
q-94 0 -156.5 74.5t-62.5 183.5q0 110 62 185t157 75zM1544 16q64 0 100.5 58.5t36.5 167.5t-36.5 168t-100.5 59t-100.5 -59t-36.5 -168q0 -110 36 -168t101 -58z" />
    <glyph glyph-name="guilsinglleft" unicode="&#x2039;" horiz-adv-x="512" 
d="M416 41l-15 -16l-307 294l307 273l15 -19l-174 -254z" />
    <glyph glyph-name="guilsinglright" unicode="&#x203a;" horiz-adv-x="512" 
d="M416 297l-307 -272l-15 18l174 254l-174 278l15 17z" />
    <glyph glyph-name="trademark" unicode="&#x2122;" horiz-adv-x="1855" 
d="M707 1169h-9v7q-9 72 -41.5 102.5t-124.5 30.5h-102v-576q0 -111 23 -141.5t94 -30.5v-12h-336v12q73 0 96 32t23 140v576h-105q-97 0 -129 -37.5t-39 -102.5h-6v168h656v-168zM1823 549h-324v12q77 2 97 31.5t20 120.5v563l-328 -727h-4l-338 711v-588q0 -63 20 -86
t97 -25v-12h-266v12q72 2 93 26t21 93v528q0 64 -26.5 88t-87.5 29v12h221l301 -649l293 649h211v-12q-71 -2 -93 -26.5t-22 -81.5v-535q0 -70 25 -95t90 -26v-12z" />
    <glyph glyph-name="Ohm" unicode="&#x2126;" horiz-adv-x="1573" 
d="M1506 0h-604l33 311q161 59 226 200t65 313q0 227 -107 373t-331 146t-331 -146t-107 -373q0 -172 65 -313t226 -200l33 -311h-604v332h30q16 -66 40 -95.5t96 -29.5h323l-4 57q-238 65 -341 221t-103 332q0 259 192 425.5t485 166.5t485 -166.5t192 -425.5
q0 -176 -103 -332t-341 -221l-4 -57h323q72 0 96 29.5t40 95.5h30v-332z" />
    <glyph glyph-name="partialdiff" unicode="&#x2202;" horiz-adv-x="1012" 
d="M295 1120h-45q131 303 379 303q161 0 263.5 -127t102.5 -376q0 -358 -164.5 -654.5t-427.5 -296.5q-155 0 -246 91t-91 245q0 239 166.5 420.5t383.5 181.5q222 0 312 -190h4q10 144 10 186q0 175 -92.5 276t-253.5 101q-194 0 -301 -160zM911 629q-81 225 -284 225
q-178 0 -286 -190.5t-108 -399.5q0 -108 54 -172.5t143 -64.5q136 0 279.5 162.5t201.5 439.5z" />
    <glyph glyph-name="Delta" unicode="&#x2206;" horiz-adv-x="1253" 
d="M668 1409l577 -1409h-1233zM594 1059l-447 -959h844z" />
    <glyph glyph-name="product" unicode="&#x220f;" horiz-adv-x="1686" 
d="M1645 -207h-629v47q120 0 159.5 41t39.5 125v1419h-734v-1419q0 -84 39.5 -125t159.5 -41v-47h-629v47q122 0 160.5 41t38.5 125v1282q0 101 -48.5 152t-146.5 51v47h1586v-47q-98 0 -146.5 -51t-48.5 -152v-1282q0 -84 38.5 -125t160.5 -41v-47z" />
    <glyph glyph-name="summation" unicode="&#x2211;" horiz-adv-x="1460" 
d="M1423 238q-32 -125 -54 -240t-34 -219q-63 11 -102.5 16.5t-54.5 5.5h-1031q-20 0 -59 -3t-59 -3l714 815l-710 930q70 -7 123 -10.5t90 -3.5h1018l12 -326h-41q-31 102 -52.5 141t-81.5 66q-30 13 -74.5 20t-104.5 7h-539l559 -734l-602 -694h760q127 0 177.5 52
t98.5 180h47z" />
    <glyph glyph-name="minus" unicode="&#x2212;" horiz-adv-x="1260" 
d="M1126 438h-993v68h993v-68z" />
    <glyph glyph-name="fraction" unicode="&#x2215;" horiz-adv-x="193" 
d="M537 969l-809 -992h-70l807 992h72z" />
    <glyph glyph-name="radical" unicode="&#x221a;" horiz-adv-x="1124" 
d="M1055 1868l-307 -1946l-498 1028l-197 -96l-33 68l299 147l404 -825l260 1634z" />
    <glyph glyph-name="infinity" unicode="&#x221e;" horiz-adv-x="1460" 
d="M653 668q71 169 159 222.5t212 53.5q161 0 272 -116.5t111 -301.5q0 -186 -111.5 -303t-238.5 -117q-95 0 -170.5 63t-165.5 224q-117 -233 -324 -233q-149 0 -246.5 104.5t-97.5 263.5q0 157 89 262t218 105q80 0 149 -42t144 -185zM750 465q64 -138 134.5 -201
t176.5 -63q126 0 207.5 91t81.5 234q0 140 -84 240t-199 100q-55 0 -97.5 -21.5t-74.5 -62t-64 -116.5zM614 557l11 33q-96 215 -267 215q-110 0 -179.5 -76.5t-69.5 -198.5q0 -123 66.5 -207.5t162.5 -84.5q82 0 149.5 65t126.5 254z" />
    <glyph glyph-name="integral" unicode="&#x222b;" horiz-adv-x="561" 
d="M602 1760q0 -39 -29.5 -64t-75.5 -25q-37 0 -60 25t-44 25q-18 0 -27.5 -14.5t-9.5 -43.5q0 -34 19.5 -256t19.5 -551q0 -505 -30 -709.5t-79 -282.5q-26 -41 -67.5 -62t-85.5 -21q-49 0 -86 35t-37 85q0 38 25.5 65t64.5 27q34 0 65.5 -33t44.5 -33q25 0 39.5 44.5
t14.5 153.5q0 37 -6 197t-6 562q0 481 17 638.5t41 215.5q29 70 69 104t84 34q57 0 98 -32.5t41 -83.5z" />
    <glyph glyph-name="approxequal" unicode="&#x2248;" horiz-adv-x="1124" 
d="M1022 874h51q-21 -155 -95.5 -238t-186.5 -83q-97 0 -304 117q-139 78 -211 78q-149 0 -178 -187h-47q20 154 93.5 238t181.5 84q47 0 107 -19.5t224 -107.5q118 -62 193 -62q144 0 172 180zM1022 487h51q-21 -155 -95.5 -238t-186.5 -83q-96 0 -268.5 97t-246.5 97
q-149 0 -178 -186h-47q20 153 93.5 236.5t181.5 83.5q47 0 112 -21.5t219 -103.5q118 -62 193 -62q144 0 172 180z" />
    <glyph glyph-name="notequal" unicode="&#x2260;" horiz-adv-x="1124" 
d="M1106 279h-621l-184 -330l-100 57l151 273h-321v112h385l157 285h-542v112h606l186 336l101 -57l-156 -279h338v-112h-399l-160 -285h559v-112z" />
    <glyph glyph-name="lessequal" unicode="&#x2264;" horiz-adv-x="1124" 
d="M1077 240l-1018 471v127l1018 471v-127l-887 -408l887 -407v-127zM1077 0h-1018v112h1018v-112z" />
    <glyph glyph-name="greaterequal" unicode="&#x2265;" horiz-adv-x="1124" 
d="M1077 711l-1018 -471v127l887 407l-887 408v127l1018 -471v-127zM1077 0h-1018v112h1018v-112z" />
    <glyph glyph-name="lozenge" unicode="&#x25ca;" horiz-adv-x="1012" 
d="M962 763l-397 -763h-122l-397 763l397 763h122zM839 763l-335 652l-335 -652l335 -652z" />
    <glyph glyph-name="apple" unicode="&#xf000;" horiz-adv-x="618" 
d="M139 692q0 80 50 131t118 51q80 0 127 -51.5t47 -130.5q0 -78 -47.5 -130t-122.5 -52q-76 0 -124 51.5t-48 130.5z" />
    <glyph glyph-name="fi" unicode="&#xf001;" horiz-adv-x="788" 
d="M829 158q-117 -178 -233 -178q-34 0 -54 20.5t-20 110.5v182q-49 -121 -131 -213t-160 -96v-346q0 -115 -63.5 -184.5t-157.5 -69.5q-99 0 -155 86l82 81l16 -14q-6 -19 -6 -29q0 -38 24 -65t62 -27q98 0 98 199v369q-50 8 -102 45q10 43 45 86q28 -45 57 -56v265
q-40 -97 -100 -179l-29 27q19 30 38 63.5t55 108.5t36 86v449q0 117 76.5 207t177.5 90q55 0 86 -29t31 -80q0 -97 -55.5 -226.5t-215.5 -381.5v-418q58 6 104.5 46t105 137t81.5 190l101 53v-320q0 -65 7 -79.5t23 -14.5q42 0 146 131zM231 557q189 304 189 485
q0 91 -66 91q-48 0 -85.5 -52t-37.5 -135v-389zM657 662l-69 -89l-72 89l72 86z" />
    <glyph glyph-name="fl" unicode="&#xf002;" horiz-adv-x="788" 
d="M231 41q36 3 61.5 14.5t57.5 46t66.5 86t70 125.5t35.5 101v387q0 143 90 259t189 116q51 0 82.5 -37t31.5 -95q0 -78 -63 -207.5t-229 -387.5v-289q0 -62 4.5 -84.5t25.5 -22.5q48 0 146 131l30 -26q-118 -178 -229 -178q-38 0 -58 22.5t-20 108.5v182
q-36 -90 -118.5 -198.5t-172.5 -110.5v-346q0 -115 -63.5 -184.5t-157.5 -69.5q-99 0 -155 86l82 81l16 -14q-6 -19 -6 -29q0 -38 24 -65t62 -27q98 0 98 199v369q-50 8 -102 45q10 43 45 86q28 -45 57 -56v265q-40 -97 -100 -179l-29 27q19 30 38 63.5t55 108.5t36 86v449
q0 117 76.5 207t177.5 90q55 0 86 -29t31 -80q0 -97 -55.5 -226.5t-215.5 -381.5v-418zM231 557q189 304 189 485q0 91 -66 91q-48 0 -85.5 -52t-37.5 -135v-389zM623 522q130 214 173.5 316t43.5 176q0 112 -68 112q-63 0 -106 -71t-43 -193v-340z" />
    <glyph glyph-name="foursuperior" unicode="&#xf003;" horiz-adv-x="492" 
d="M469 674q-21 -79 -115 -101v-96l-86 -41v144q-96 20 -125 20q-58 0 -96 -35l-22 17q138 176 198 362q60 28 121 62l8 -21q-32 -69 -76 -131l78 37v-262q51 1 82 57zM268 643v199l-143 -193q41 6 51 6q29 0 92 -12z" />
    </font>
</defs>
</svg>
